LazyDarwin.ufo
<glyph name="exclam" format="2">
  <advance width="217"/>
  <unicode hex="0021"/>
  <note>
exclam
</note>
  <outline>
    <contour>
      <point x="55" y="614" type="curve"/>
      <point x="69" y="501"/>
      <point x="78" y="337"/>
      <point x="78" y="214" type="curve" smooth="yes"/>
      <point x="78" y="167" type="line"/>
      <point x="96" y="167"/>
      <point x="127" y="171"/>
      <point x="139" y="177" type="curve"/>
      <point x="139" y="259" type="line" smooth="yes"/>
      <point x="139" y="373"/>
      <point x="142" y="525"/>
      <point x="153" y="630" type="curve"/>
      <point x="128" y="630"/>
      <point x="78" y="625"/>
    </contour>
    <contour>
      <point x="171" y="72" type="curve"/>
      <point x="154" y="92"/>
      <point x="119" y="112"/>
      <point x="93" y="115" type="curve"/>
      <point x="71" y="96"/>
      <point x="51" y="63"/>
      <point x="46" y="33" type="curve"/>
      <point x="61" y="14"/>
      <point x="94" y="-5"/>
      <point x="125" y="-10" type="curve"/>
      <point x="143" y="6"/>
      <point x="167" y="43"/>
    </contour>
  </outline>
</glyph>
<glyph name="quotedbl" format="2">
  <advance width="408"/>
  <unicode hex="0022"/>
  <note>
quotedbl
</note>
  <outline>
    <contour>
      <point x="97" y="688" type="curve"/>
      <point x="108" y="613"/>
      <point x="113" y="536"/>
      <point x="113" y="448" type="curve"/>
      <point x="122" y="448"/>
      <point x="154" y="454"/>
      <point x="163" y="461" type="curve"/>
      <point x="168" y="549"/>
      <point x="175" y="626"/>
      <point x="189" y="701" type="curve"/>
      <point x="161" y="701"/>
      <point x="120" y="696"/>
    </contour>
    <contour>
      <point x="238" y="688" type="curve"/>
      <point x="249" y="613"/>
      <point x="254" y="536"/>
      <point x="254" y="448" type="curve"/>
      <point x="263" y="448"/>
      <point x="295" y="454"/>
      <point x="304" y="461" type="curve"/>
      <point x="309" y="549"/>
      <point x="316" y="626"/>
      <point x="330" y="701" type="curve"/>
      <point x="302" y="701"/>
      <point x="261" y="696"/>
    </contour>
  </outline>
</glyph>
<glyph name="numbersign" format="2">
  <advance width="487"/>
  <unicode hex="0023"/>
  <note>
numbersign
</note>
  <outline>
    <contour>
      <point x="197" y="-82" type="curve"/>
      <point x="211" y="-81"/>
      <point x="246" y="-73"/>
      <point x="261" y="-67" type="curve"/>
      <point x="254" y="-3"/>
      <point x="390" y="511"/>
      <point x="416" y="577" type="curve"/>
      <point x="402" y="576"/>
      <point x="354" y="566"/>
      <point x="343" y="562" type="curve"/>
      <point x="335" y="500"/>
      <point x="201" y="-24"/>
    </contour>
    <contour>
      <point x="46" y="-82" type="curve"/>
      <point x="60" y="-81"/>
      <point x="95" y="-73"/>
      <point x="110" y="-67" type="curve"/>
      <point x="103" y="-3"/>
      <point x="238" y="511"/>
      <point x="264" y="577" type="curve"/>
      <point x="250" y="576"/>
      <point x="202" y="566"/>
      <point x="191" y="562" type="curve"/>
      <point x="183" y="500"/>
      <point x="50" y="-24"/>
    </contour>
    <contour>
      <point x="-5" y="98" type="curve"/>
      <point x="53" y="104"/>
      <point x="322" y="119"/>
      <point x="385" y="121" type="curve"/>
      <point x="391" y="131"/>
      <point x="405" y="179"/>
      <point x="408" y="193" type="curve"/>
      <point x="340" y="182"/>
      <point x="81" y="168"/>
      <point x="18" y="169" type="curve"/>
      <point x="10" y="155"/>
      <point x="-2" y="112"/>
    </contour>
    <contour>
      <point x="39" y="302" type="curve"/>
      <point x="97" y="308"/>
      <point x="366" y="323"/>
      <point x="429" y="325" type="curve"/>
      <point x="435" y="335"/>
      <point x="449" y="383"/>
      <point x="452" y="397" type="curve"/>
      <point x="384" y="386"/>
      <point x="125" y="372"/>
      <point x="62" y="373" type="curve"/>
      <point x="54" y="359"/>
      <point x="42" y="316"/>
    </contour>
  </outline>
</glyph>
<glyph name="dollar" format="2">
  <advance width="572"/>
  <unicode hex="0024"/>
  <note>
dollar
</note>
  <outline>
    <contour>
      <point x="314" y="600" type="curve" smooth="yes"/>
      <point x="374" y="600"/>
      <point x="420" y="578"/>
      <point x="428" y="485" type="curve"/>
      <point x="430" y="484"/>
      <point x="439" y="482"/>
      <point x="446" y="482" type="curve" smooth="yes"/>
      <point x="452" y="482"/>
      <point x="461" y="483"/>
      <point x="465" y="485" type="curve"/>
      <point x="491" y="625" type="line"/>
      <point x="468" y="632"/>
      <point x="357" y="651"/>
      <point x="319" y="651" type="curve" smooth="yes"/>
      <point x="204" y="651"/>
      <point x="109" y="582"/>
      <point x="109" y="483" type="curve" smooth="yes"/>
      <point x="109" y="405"/>
      <point x="167" y="356"/>
      <point x="260" y="300" type="curve" smooth="yes"/>
      <point x="360" y="241"/>
      <point x="412" y="204"/>
      <point x="412" y="147" type="curve" smooth="yes"/>
      <point x="412" y="81"/>
      <point x="338" y="53"/>
      <point x="287" y="53" type="curve" smooth="yes"/>
      <point x="208" y="53"/>
      <point x="151" y="80"/>
      <point x="137" y="198" type="curve"/>
      <point x="133" y="199"/>
      <point x="127" y="200"/>
      <point x="122" y="200" type="curve" smooth="yes"/>
      <point x="112" y="200"/>
      <point x="103" y="197"/>
      <point x="99" y="194" type="curve"/>
      <point x="94" y="43" type="line"/>
      <point x="135" y="18"/>
      <point x="224" y="0"/>
      <point x="264" y="0" type="curve" smooth="yes"/>
      <point x="374" y="0"/>
      <point x="498" y="66"/>
      <point x="498" y="193" type="curve" smooth="yes"/>
      <point x="498" y="259"/>
      <point x="465" y="297"/>
      <point x="336" y="368" type="curve" smooth="yes"/>
      <point x="239" y="421"/>
      <point x="187" y="450"/>
      <point x="187" y="520" type="curve" smooth="yes"/>
      <point x="187" y="571"/>
      <point x="246" y="600"/>
    </contour>
    <contour>
      <point x="264" y="-102" type="curve"/>
      <point x="278" y="-101"/>
      <point x="303" y="-93"/>
      <point x="318" y="-87" type="curve"/>
      <point x="311" y="-23"/>
      <point x="321" y="682"/>
      <point x="347" y="748" type="curve"/>
      <point x="333" y="747"/>
      <point x="295" y="737"/>
      <point x="284" y="733" type="curve"/>
      <point x="276" y="671"/>
      <point x="268" y="-44"/>
    </contour>
  </outline>
</glyph>
<glyph name="percent" format="2">
  <advance width="752"/>
  <unicode hex="0025"/>
  <note>
percent
</note>
  <outline>
    <contour>
      <point x="124" y="3" type="curve"/>
      <point x="136" y="-6"/>
      <point x="179" y="-15"/>
      <point x="197" y="-13" type="curve"/>
      <point x="221" y="53"/>
      <point x="597" y="600"/>
      <point x="640" y="656" type="curve"/>
      <point x="629" y="665"/>
      <point x="578" y="680"/>
      <point x="562" y="679" type="curve"/>
      <point x="537" y="622"/>
      <point x="171" y="84"/>
    </contour>
    <contour>
      <point x="407" y="148" type="curve" smooth="yes"/>
      <point x="407" y="67"/>
      <point x="461" y="-12"/>
      <point x="545" y="-12" type="curve" smooth="yes"/>
      <point x="587" y="-12"/>
      <point x="702" y="47"/>
      <point x="702" y="168" type="curve" smooth="yes"/>
      <point x="702" y="246"/>
      <point x="655" y="324"/>
      <point x="568" y="324" type="curve" smooth="yes"/>
      <point x="515" y="324"/>
      <point x="407" y="263"/>
    </contour>
    <contour>
      <point x="556" y="263" type="curve" smooth="yes"/>
      <point x="608" y="263"/>
      <point x="633" y="215"/>
      <point x="633" y="158" type="curve" smooth="yes"/>
      <point x="633" y="98"/>
      <point x="605" y="49"/>
      <point x="558" y="49" type="curve" smooth="yes"/>
      <point x="515" y="49"/>
      <point x="476" y="91"/>
      <point x="476" y="159" type="curve" smooth="yes"/>
      <point x="476" y="220"/>
      <point x="507" y="263"/>
    </contour>
    <contour>
      <point x="50" y="506" type="curve" smooth="yes"/>
      <point x="50" y="425"/>
      <point x="104" y="346"/>
      <point x="187" y="346" type="curve" smooth="yes"/>
      <point x="229" y="346"/>
      <point x="343" y="405"/>
      <point x="343" y="527" type="curve" smooth="yes"/>
      <point x="343" y="605"/>
      <point x="296" y="683"/>
      <point x="210" y="683" type="curve" smooth="yes"/>
      <point x="158" y="683"/>
      <point x="50" y="622"/>
    </contour>
    <contour>
      <point x="198" y="622" type="curve" smooth="yes"/>
      <point x="249" y="622"/>
      <point x="274" y="574"/>
      <point x="274" y="517" type="curve" smooth="yes"/>
      <point x="274" y="456"/>
      <point x="246" y="407"/>
      <point x="200" y="407" type="curve" smooth="yes"/>
      <point x="158" y="407"/>
      <point x="119" y="449"/>
      <point x="119" y="518" type="curve" smooth="yes"/>
      <point x="119" y="579"/>
      <point x="150" y="622"/>
    </contour>
  </outline>
</glyph>
<glyph name="ampersand" format="2">
  <advance width="794"/>
  <unicode hex="0026"/>
  <note>
ampersand
</note>
  <outline>
    <contour>
      <point x="135" y="501" type="curve" smooth="yes"/>
      <point x="135" y="459"/>
      <point x="155" y="424"/>
      <point x="219" y="357" type="curve"/>
      <point x="85" y="274"/>
      <point x="38" y="232"/>
      <point x="38" y="158" type="curve" smooth="yes"/>
      <point x="38" y="53"/>
      <point x="132" y="-18"/>
      <point x="223" y="-18" type="curve" smooth="yes"/>
      <point x="316" y="-18"/>
      <point x="383" y="19"/>
      <point x="442" y="105" type="curve"/>
      <point x="503" y="49"/>
      <point x="570" y="-1"/>
      <point x="622" y="-26" type="curve"/>
      <point x="666" y="-25"/>
      <point x="743" y="-11"/>
      <point x="773" y="12" type="curve"/>
      <point x="781" y="49" type="line"/>
      <point x="663" y="40"/>
      <point x="614" y="66"/>
      <point x="488" y="182" type="curve"/>
      <point x="521" y="231"/>
      <point x="614" y="453"/>
      <point x="719" y="462" type="curve" smooth="yes"/>
      <point x="731" y="463" type="line"/>
      <point x="739" y="477"/>
      <point x="741" y="490"/>
      <point x="740" y="504" type="curve"/>
      <point x="716" y="496"/>
      <point x="649" y="480"/>
      <point x="602" y="480" type="curve" smooth="yes"/>
      <point x="554" y="480"/>
      <point x="528" y="480"/>
      <point x="501" y="485" type="curve"/>
      <point x="493" y="478"/>
      <point x="488" y="460"/>
      <point x="488" y="450" type="curve"/>
      <point x="570" y="434" type="line"/>
      <point x="538" y="360"/>
      <point x="489" y="287"/>
      <point x="446" y="218" type="curve"/>
      <point x="316" y="364" type="line"/>
      <point x="370" y="391"/>
      <point x="468" y="463"/>
      <point x="468" y="548" type="curve" smooth="yes"/>
      <point x="468" y="615"/>
      <point x="408" y="668"/>
      <point x="320" y="668" type="curve" smooth="yes"/>
      <point x="241" y="668"/>
      <point x="135" y="598"/>
    </contour>
    <contour>
      <point x="305" y="625" type="curve" smooth="yes"/>
      <point x="367" y="625"/>
      <point x="392" y="563"/>
      <point x="392" y="525" type="curve" smooth="yes"/>
      <point x="392" y="470"/>
      <point x="343" y="424"/>
      <point x="292" y="396" type="curve"/>
      <point x="251" y="443"/>
      <point x="216" y="485"/>
      <point x="216" y="533" type="curve" smooth="yes"/>
      <point x="216" y="582"/>
      <point x="253" y="625"/>
    </contour>
    <contour>
      <point x="241" y="325" type="curve"/>
      <point x="399" y="140" type="line"/>
      <point x="359" y="78"/>
      <point x="320" y="52"/>
      <point x="260" y="52" type="curve" smooth="yes"/>
      <point x="197" y="52"/>
      <point x="125" y="112"/>
      <point x="125" y="185" type="curve" smooth="yes"/>
      <point x="125" y="252"/>
      <point x="186" y="292"/>
    </contour>
  </outline>
</glyph>
<glyph name="parenleft" format="2">
  <advance width="305"/>
  <unicode hex="0028"/>
  <note>
parenleft
</note>
  <outline>
    <contour>
      <point x="289" y="-159" type="curve"/>
      <point x="181" y="-70"/>
      <point x="114" y="49"/>
      <point x="114" y="268" type="curve" smooth="yes"/>
      <point x="114" y="487"/>
      <point x="148" y="599"/>
      <point x="289" y="723" type="curve"/>
      <point x="286" y="736"/>
      <point x="271" y="749"/>
      <point x="263" y="754" type="curve"/>
      <point x="145" y="658"/>
      <point x="38" y="493"/>
      <point x="38" y="291" type="curve" smooth="yes"/>
      <point x="38" y="89"/>
      <point x="115" y="-96"/>
      <point x="264" y="-189" type="curve"/>
      <point x="274" y="-184"/>
      <point x="285" y="-173"/>
    </contour>
    <contour>
      <point x="289" y="-159" type="curve"/>
      <point x="181" y="-70"/>
      <point x="114" y="49"/>
      <point x="114" y="268" type="curve" smooth="yes"/>
      <point x="114" y="487"/>
      <point x="148" y="599"/>
      <point x="289" y="723" type="curve"/>
      <point x="286" y="736"/>
      <point x="271" y="749"/>
      <point x="263" y="754" type="curve"/>
      <point x="145" y="658"/>
      <point x="38" y="493"/>
      <point x="38" y="291" type="curve" smooth="yes"/>
      <point x="38" y="89"/>
      <point x="115" y="-96"/>
      <point x="264" y="-189" type="curve"/>
      <point x="274" y="-184"/>
      <point x="285" y="-173"/>
    </contour>
  </outline>
</glyph>
<glyph name="parenright" format="2">
  <advance width="303"/>
  <unicode hex="0029"/>
  <note>
parenright
</note>
  <outline>
    <contour>
      <point x="38" y="-159" type="curve"/>
      <point x="42" y="-173"/>
      <point x="53" y="-184"/>
      <point x="62" y="-189" type="curve"/>
      <point x="211" y="-96"/>
      <point x="289" y="99"/>
      <point x="289" y="301" type="curve" smooth="yes"/>
      <point x="289" y="503"/>
      <point x="182" y="658"/>
      <point x="64" y="754" type="curve"/>
      <point x="56" y="749"/>
      <point x="41" y="736"/>
      <point x="38" y="723" type="curve"/>
      <point x="175" y="592"/>
      <point x="215" y="493"/>
      <point x="215" y="275" type="curve" smooth="yes"/>
      <point x="215" y="56"/>
      <point x="145" y="-67"/>
    </contour>
  </outline>
</glyph>
<glyph name="asterisk" format="2">
  <advance width="339"/>
  <unicode hex="002A"/>
  <note>
asterisk
</note>
  <outline>
    <contour>
      <point x="241" y="715" type="curve"/>
      <point x="225" y="728"/>
      <point x="201" y="733"/>
      <point x="180" y="733" type="curve"/>
      <point x="170" y="644"/>
      <point x="146" y="538"/>
      <point x="95" y="455" type="curve"/>
      <point x="112" y="443"/>
      <point x="134" y="436"/>
      <point x="157" y="435" type="curve"/>
      <point x="168" y="523"/>
      <point x="187" y="614"/>
    </contour>
    <contour>
      <point x="315" y="596" type="curve"/>
      <point x="316" y="615"/>
      <point x="308" y="642"/>
      <point x="300" y="658" type="curve"/>
      <point x="223" y="612"/>
      <point x="123" y="586"/>
      <point x="20" y="582" type="curve"/>
      <point x="19" y="558"/>
      <point x="30" y="534"/>
      <point x="42" y="519" type="curve"/>
      <point x="120" y="571"/>
      <point x="219" y="585"/>
    </contour>
    <contour>
      <point x="253" y="458" type="curve"/>
      <point x="270" y="466"/>
      <point x="296" y="486"/>
      <point x="303" y="504" type="curve"/>
      <point x="229" y="545"/>
      <point x="144" y="634"/>
      <point x="94" y="717" type="curve"/>
      <point x="75" y="709"/>
      <point x="55" y="691"/>
      <point x="47" y="670" type="curve"/>
      <point x="124" y="614"/>
      <point x="200" y="543"/>
    </contour>
  </outline>
</glyph>
<glyph name="plus" format="2">
  <advance width="533"/>
  <unicode hex="002B"/>
  <note>
plus
</note>
  <outline>
    <contour>
      <point x="472" y="194" type="curve"/>
      <point x="483" y="209"/>
      <point x="490" y="236"/>
      <point x="490" y="256" type="curve"/>
      <point x="425" y="250"/>
      <point x="125" y="248"/>
      <point x="61" y="251" type="curve"/>
      <point x="53" y="232"/>
      <point x="47" y="204"/>
      <point x="47" y="185" type="curve"/>
      <point x="112" y="193"/>
      <point x="408" y="196"/>
    </contour>
    <contour>
      <point x="237" y="-6" type="curve"/>
      <point x="253" y="-5"/>
      <point x="288" y="1"/>
      <point x="301" y="9" type="curve"/>
      <point x="293" y="75"/>
      <point x="294" y="387"/>
      <point x="299" y="452" type="curve"/>
      <point x="281" y="451"/>
      <point x="251" y="444"/>
      <point x="232" y="432" type="curve"/>
      <point x="240" y="368"/>
      <point x="239" y="60"/>
    </contour>
  </outline>
</glyph>
<glyph name="comma" format="2">
  <advance width="187"/>
  <unicode hex="002C"/>
  <note>
comma
</note>
  <outline>
    <contour>
      <point x="147" y="124" type="curve"/>
      <point x="114" y="124"/>
      <point x="67" y="109"/>
      <point x="42" y="89" type="curve"/>
      <point x="59" y="65"/>
      <point x="66" y="36"/>
      <point x="66" y="6" type="curve" smooth="yes"/>
      <point x="66" y="-48"/>
      <point x="42" y="-104"/>
      <point x="7" y="-134" type="curve"/>
      <point x="13" y="-142"/>
      <point x="27" y="-149"/>
      <point x="38" y="-152" type="curve"/>
      <point x="95" y="-125"/>
      <point x="153" y="-30"/>
      <point x="153" y="65" type="curve" smooth="yes"/>
      <point x="153" y="86"/>
      <point x="150" y="110"/>
    </contour>
  </outline>
</glyph>
<glyph name="hyphen" format="2">
  <advance width="315"/>
  <unicode hex="002D"/>
  <note>
hyphen
</note>
  <outline>
    <contour>
      <point x="260" y="200" type="curve"/>
      <point x="265" y="215"/>
      <point x="266" y="245"/>
      <point x="264" y="265" type="curve"/>
      <point x="194" y="260"/>
      <point x="123" y="259"/>
      <point x="55" y="260" type="curve"/>
      <point x="51" y="240"/>
      <point x="49" y="211"/>
      <point x="51" y="191" type="curve"/>
      <point x="120" y="196"/>
      <point x="191" y="199"/>
    </contour>
  </outline>
</glyph>
<glyph name="period" format="2">
  <advance width="242"/>
  <unicode hex="002E"/>
  <note>
period
</note>
  <outline>
    <contour>
      <point x="190" y="77" type="curve"/>
      <point x="171" y="99"/>
      <point x="134" y="120"/>
      <point x="106" y="124" type="curve"/>
      <point x="82" y="103"/>
      <point x="61" y="68"/>
      <point x="55" y="35" type="curve"/>
      <point x="71" y="15"/>
      <point x="107" y="-5"/>
      <point x="140" y="-11" type="curve"/>
      <point x="160" y="6"/>
      <point x="185" y="46"/>
    </contour>
  </outline>
</glyph>
<glyph name="slash" format="2">
  <advance width="440"/>
  <unicode hex="002F"/>
  <note>
slash
</note>
  <outline>
    <contour>
      <point x="26" y="-81" type="curve"/>
      <point x="38" y="-90"/>
      <point x="79" y="-99"/>
      <point x="97" y="-97" type="curve"/>
      <point x="118" y="-29"/>
      <point x="374" y="681"/>
      <point x="410" y="744" type="curve"/>
      <point x="399" y="753"/>
      <point x="354" y="767"/>
      <point x="338" y="766" type="curve"/>
      <point x="320" y="702"/>
      <point x="71" y="2"/>
    </contour>
  </outline>
</glyph>
<glyph name="zero" format="2">
  <advance width="539"/>
  <unicode hex="0030"/>
  <note>
zero
</note>
  <outline>
    <contour>
      <point x="56" y="313" type="curve" smooth="yes"/>
      <point x="56" y="165"/>
      <point x="100" y="-11"/>
      <point x="264" y="-11" type="curve" smooth="yes"/>
      <point x="407" y="-11"/>
      <point x="494" y="121"/>
      <point x="494" y="342" type="curve" smooth="yes"/>
      <point x="494" y="513"/>
      <point x="440" y="660"/>
      <point x="290" y="660" type="curve" smooth="yes"/>
      <point x="150" y="660"/>
      <point x="56" y="528"/>
    </contour>
    <contour>
      <point x="274" y="599" type="curve" smooth="yes"/>
      <point x="369" y="599"/>
      <point x="401" y="458"/>
      <point x="401" y="302" type="curve" smooth="yes"/>
      <point x="401" y="194"/>
      <point x="386" y="50"/>
      <point x="289" y="50" type="curve" smooth="yes"/>
      <point x="191" y="50"/>
      <point x="144" y="200"/>
      <point x="144" y="338" type="curve" smooth="yes"/>
      <point x="144" y="456"/>
      <point x="178" y="599"/>
    </contour>
  </outline>
</glyph>
<glyph name="one" format="2">
  <advance width="430"/>
  <unicode hex="0031"/>
  <note>
one
</note>
  <outline>
    <contour>
      <point x="400" y="-3" type="curve"/>
      <point x="407" y="37" type="line"/>
      <point x="279" y="60" type="line"/>
      <point x="276" y="146"/>
      <point x="275" y="249"/>
      <point x="275" y="341" type="curve" smooth="yes"/>
      <point x="275" y="470"/>
      <point x="276" y="587"/>
      <point x="285" y="661" type="curve"/>
      <point x="242" y="638"/>
      <point x="73" y="568"/>
      <point x="31" y="559" type="curve"/>
      <point x="29" y="545"/>
      <point x="25" y="509"/>
      <point x="26" y="499" type="curve"/>
      <point x="191" y="546" type="line"/>
      <point x="191" y="131" type="line" smooth="yes"/>
      <point x="191" y="68"/>
      <point x="94" y="48"/>
      <point x="37" y="37" type="curve"/>
      <point x="30" y="-3" type="line"/>
      <point x="96" y="0"/>
      <point x="154" y="0"/>
      <point x="220" y="0" type="curve" smooth="yes"/>
      <point x="286" y="0"/>
      <point x="332" y="0"/>
    </contour>
  </outline>
</glyph>
<glyph name="two" format="2">
  <advance width="484"/>
  <unicode hex="0032"/>
  <note>
two
</note>
  <outline>
    <contour>
      <point x="67" y="81" type="curve" smooth="yes"/>
      <point x="25" y="30" type="line"/>
      <point x="30" y="16"/>
      <point x="48" y="-1"/>
      <point x="60" y="-3" type="curve"/>
      <point x="117" y="0"/>
      <point x="191" y="0"/>
      <point x="239" y="0" type="curve" smooth="yes"/>
      <point x="287" y="0"/>
      <point x="363" y="-2"/>
      <point x="427" y="-5" type="curve"/>
      <point x="459" y="156" type="line"/>
      <point x="453" y="161"/>
      <point x="432" y="165"/>
      <point x="422" y="165" type="curve"/>
      <point x="402" y="96"/>
      <point x="377" y="65"/>
      <point x="297" y="62" type="curve" smooth="yes"/>
      <point x="130" y="54" type="line"/>
      <point x="224" y="153"/>
      <point x="426" y="363"/>
      <point x="426" y="505" type="curve" smooth="yes"/>
      <point x="426" y="615"/>
      <point x="357" y="667"/>
      <point x="231" y="667" type="curve" smooth="yes"/>
      <point x="202" y="667"/>
      <point x="69" y="606"/>
      <point x="39" y="582" type="curve"/>
      <point x="57" y="451" type="line"/>
      <point x="61" y="450"/>
      <point x="69" y="448"/>
      <point x="77" y="448" type="curve" smooth="yes"/>
      <point x="85" y="448"/>
      <point x="94" y="450"/>
      <point x="97" y="451" type="curve"/>
      <point x="130" y="564" type="line"/>
      <point x="157" y="582"/>
      <point x="200" y="600"/>
      <point x="229" y="600" type="curve" smooth="yes"/>
      <point x="273" y="600"/>
      <point x="330" y="559"/>
      <point x="330" y="475" type="curve" smooth="yes"/>
      <point x="330" y="410"/>
      <point x="247" y="295"/>
    </contour>
  </outline>
</glyph>
<glyph name="three" format="2">
  <advance width="490"/>
  <unicode hex="0033"/>
  <note>
three
</note>
  <outline>
    <contour>
      <point x="156" y="361" type="curve"/>
      <point x="151" y="353"/>
      <point x="141" y="319"/>
      <point x="140" y="309" type="curve"/>
      <point x="191" y="309" type="line" smooth="yes"/>
      <point x="268" y="309"/>
      <point x="350" y="286"/>
      <point x="350" y="184" type="curve" smooth="yes"/>
      <point x="350" y="119"/>
      <point x="316" y="48"/>
      <point x="231" y="48" type="curve" smooth="yes"/>
      <point x="159" y="48"/>
      <point x="117" y="73"/>
      <point x="87" y="145" type="curve"/>
      <point x="79" y="145"/>
      <point x="39" y="135"/>
      <point x="38" y="133" type="curve"/>
      <point x="74" y="3" type="line"/>
      <point x="92" y="-3"/>
      <point x="133" y="-11"/>
      <point x="164" y="-11" type="curve" smooth="yes"/>
      <point x="312" y="-11"/>
      <point x="440" y="40"/>
      <point x="440" y="212" type="curve" smooth="yes"/>
      <point x="440" y="334"/>
      <point x="343" y="353"/>
      <point x="297" y="359" type="curve"/>
      <point x="323" y="370"/>
      <point x="413" y="428"/>
      <point x="413" y="513" type="curve" smooth="yes"/>
      <point x="413" y="616"/>
      <point x="355" y="667"/>
      <point x="221" y="667" type="curve" smooth="yes"/>
      <point x="193" y="667"/>
      <point x="92" y="619"/>
      <point x="62" y="595" type="curve"/>
      <point x="82" y="499" type="line"/>
      <point x="86" y="498"/>
      <point x="94" y="496"/>
      <point x="102" y="496" type="curve" smooth="yes"/>
      <point x="110" y="496"/>
      <point x="119" y="498"/>
      <point x="122" y="499" type="curve"/>
      <point x="141" y="574" type="line"/>
      <point x="163" y="591"/>
      <point x="200" y="601"/>
      <point x="228" y="601" type="curve" smooth="yes"/>
      <point x="279" y="601"/>
      <point x="328" y="566"/>
      <point x="328" y="495" type="curve" smooth="yes"/>
      <point x="328" y="396"/>
      <point x="231" y="366"/>
    </contour>
  </outline>
</glyph>
<glyph name="four" format="2">
  <advance width="492"/>
  <unicode hex="0034"/>
  <note>
four
</note>
  <outline>
    <contour>
      <point x="449" y="32" type="line"/>
      <point x="363" y="61" type="line"/>
      <point x="363" y="177" type="line"/>
      <point x="470" y="177" type="line"/>
      <point x="475" y="196"/>
      <point x="484" y="237"/>
      <point x="484" y="260" type="curve"/>
      <point x="363" y="248" type="line"/>
      <point x="363" y="348" type="line" smooth="yes"/>
      <point x="363" y="456"/>
      <point x="364" y="603"/>
      <point x="369" y="652" type="curve"/>
      <point x="349" y="652"/>
      <point x="334" y="646"/>
      <point x="317" y="639" type="curve"/>
      <point x="223" y="584"/>
      <point x="49" y="296"/>
      <point x="16" y="203" type="curve"/>
      <point x="17" y="196"/>
      <point x="27" y="182"/>
      <point x="32" y="177" type="curve"/>
      <point x="284" y="177" type="line"/>
      <point x="284" y="102" type="line" smooth="yes"/>
      <point x="284" y="68"/>
      <point x="266" y="45"/>
      <point x="230" y="38" type="curve" smooth="yes"/>
      <point x="200" y="32" type="line"/>
      <point x="193" y="-3" type="line"/>
      <point x="239" y="0"/>
      <point x="286" y="0"/>
      <point x="323" y="0" type="curve" smooth="yes"/>
      <point x="360" y="0"/>
      <point x="394" y="0"/>
      <point x="442" y="-3" type="curve"/>
    </contour>
    <contour>
      <point x="284" y="241" type="line"/>
      <point x="99" y="223" type="line"/>
      <point x="140" y="331"/>
      <point x="207" y="434"/>
      <point x="284" y="522" type="curve"/>
    </contour>
  </outline>
</glyph>
<glyph name="eight" format="2">
  <advance width="519"/>
  <unicode hex="0038"/>
  <note>
eight
</note>
  <outline>
    <contour>
      <point x="199" y="347" type="curve"/>
      <point x="164" y="327"/>
      <point x="53" y="253"/>
      <point x="53" y="144" type="curve" smooth="yes"/>
      <point x="53" y="55"/>
      <point x="126" y="-12"/>
      <point x="247" y="-12" type="curve" smooth="yes"/>
      <point x="321" y="-12"/>
      <point x="467" y="49"/>
      <point x="467" y="178" type="curve" smooth="yes"/>
      <point x="467" y="254"/>
      <point x="439" y="294"/>
      <point x="327" y="369" type="curve"/>
      <point x="403" y="421"/>
      <point x="434" y="462"/>
      <point x="434" y="520" type="curve" smooth="yes"/>
      <point x="434" y="612"/>
      <point x="358" y="660"/>
      <point x="276" y="660" type="curve" smooth="yes"/>
      <point x="169" y="660"/>
      <point x="85" y="580"/>
      <point x="85" y="496" type="curve" smooth="yes"/>
      <point x="85" y="428"/>
      <point x="139" y="383"/>
    </contour>
    <contour>
      <point x="263" y="605" type="curve" smooth="yes"/>
      <point x="323" y="605"/>
      <point x="357" y="572"/>
      <point x="357" y="518" type="curve" smooth="yes"/>
      <point x="357" y="464"/>
      <point x="322" y="429"/>
      <point x="278" y="398" type="curve"/>
      <point x="191" y="446"/>
      <point x="166" y="478"/>
      <point x="166" y="521" type="curve" smooth="yes"/>
      <point x="166" y="579"/>
      <point x="210" y="605"/>
    </contour>
    <contour>
      <point x="244" y="316" type="curve"/>
      <point x="347" y="259"/>
      <point x="381" y="216"/>
      <point x="381" y="158" type="curve" smooth="yes"/>
      <point x="381" y="87"/>
      <point x="329" y="48"/>
      <point x="270" y="48" type="curve" smooth="yes"/>
      <point x="163" y="48"/>
      <point x="134" y="106"/>
      <point x="134" y="166" type="curve" smooth="yes"/>
      <point x="134" y="224"/>
      <point x="161" y="259"/>
    </contour>
  </outline>
</glyph>
<glyph name="nine" format="2">
  <advance width="525"/>
  <unicode hex="0039"/>
  <note>
nine
</note>
  <outline>
    <contour>
      <point x="121" y="-14" type="curve"/>
      <point x="425" y="48"/>
      <point x="474" y="219"/>
      <point x="474" y="417" type="curve" smooth="yes"/>
      <point x="474" y="526"/>
      <point x="425" y="663"/>
      <point x="280" y="663" type="curve" smooth="yes"/>
      <point x="162" y="663"/>
      <point x="57" y="570"/>
      <point x="57" y="446" type="curve" smooth="yes"/>
      <point x="57" y="323"/>
      <point x="159" y="253"/>
      <point x="216" y="253" type="curve" smooth="yes"/>
      <point x="283" y="253"/>
      <point x="347" y="286"/>
      <point x="382" y="315" type="curve"/>
      <point x="365" y="148"/>
      <point x="278" y="72"/>
      <point x="123" y="72" type="curve" smooth="yes"/>
      <point x="111" y="72"/>
      <point x="100" y="72"/>
      <point x="87" y="73" type="curve"/>
      <point x="92" y="48"/>
      <point x="105" y="5"/>
    </contour>
    <contour>
      <point x="252" y="599" type="curve" smooth="yes"/>
      <point x="315" y="599"/>
      <point x="384" y="551"/>
      <point x="384" y="441" type="curve" smooth="yes"/>
      <point x="384" y="428"/>
      <point x="383" y="398"/>
      <point x="380" y="385" type="curve"/>
      <point x="358" y="350"/>
      <point x="319" y="322"/>
      <point x="256" y="322" type="curve" smooth="yes"/>
      <point x="187" y="322"/>
      <point x="147" y="356"/>
      <point x="147" y="475" type="curve" smooth="yes"/>
      <point x="147" y="549"/>
      <point x="189" y="599"/>
    </contour>
  </outline>
</glyph>
<glyph name="colon" format="2">
  <advance width="235"/>
  <unicode hex="003A"/>
  <note>
colon
</note>
  <outline>
    <contour>
      <point x="177" y="317" type="curve"/>
      <point x="159" y="337"/>
      <point x="125" y="357"/>
      <point x="99" y="360" type="curve"/>
      <point x="76" y="341"/>
      <point x="57" y="308"/>
      <point x="51" y="277" type="curve"/>
      <point x="66" y="259"/>
      <point x="100" y="240"/>
      <point x="130" y="235" type="curve"/>
      <point x="149" y="250"/>
      <point x="172" y="288"/>
    </contour>
    <contour>
      <point x="177" y="72" type="curve"/>
      <point x="159" y="92"/>
      <point x="125" y="112"/>
      <point x="99" y="115" type="curve"/>
      <point x="76" y="96"/>
      <point x="57" y="63"/>
      <point x="51" y="33" type="curve"/>
      <point x="66" y="14"/>
      <point x="100" y="-5"/>
      <point x="130" y="-10" type="curve"/>
      <point x="149" y="6"/>
      <point x="172" y="43"/>
    </contour>
  </outline>
</glyph>
<glyph name="semicolon" format="2">
  <advance width="238"/>
  <unicode hex="003B"/>
  <note>
semicolon
</note>
  <outline>
    <contour>
      <point x="177" y="124" type="curve"/>
      <point x="144" y="124"/>
      <point x="97" y="109"/>
      <point x="72" y="89" type="curve"/>
      <point x="89" y="65"/>
      <point x="96" y="36"/>
      <point x="96" y="6" type="curve" smooth="yes"/>
      <point x="96" y="-48"/>
      <point x="72" y="-104"/>
      <point x="37" y="-134" type="curve"/>
      <point x="43" y="-142"/>
      <point x="57" y="-149"/>
      <point x="68" y="-152" type="curve"/>
      <point x="125" y="-125"/>
      <point x="183" y="-30"/>
      <point x="183" y="65" type="curve" smooth="yes"/>
      <point x="183" y="86"/>
      <point x="180" y="110"/>
    </contour>
    <contour>
      <point x="188" y="340" type="curve"/>
      <point x="169" y="362"/>
      <point x="132" y="383"/>
      <point x="104" y="387" type="curve"/>
      <point x="80" y="366"/>
      <point x="59" y="331"/>
      <point x="53" y="298" type="curve"/>
      <point x="69" y="278"/>
      <point x="105" y="258"/>
      <point x="138" y="252" type="curve"/>
      <point x="158" y="269"/>
      <point x="183" y="309"/>
    </contour>
  </outline>
</glyph>
<glyph name="less" format="2">
  <advance width="533"/>
  <unicode hex="003C"/>
  <note>
less
</note>
  <outline>
    <contour>
      <point x="456" y="377" type="curve"/>
      <point x="459" y="396"/>
      <point x="454" y="427"/>
      <point x="448" y="446" type="curve"/>
      <point x="390" y="413"/>
      <point x="133" y="282"/>
      <point x="74" y="261" type="curve"/>
      <point x="68" y="242"/>
      <point x="63" y="224"/>
      <point x="61" y="205" type="curve"/>
      <point x="155" y="162"/>
      <point x="244" y="116"/>
      <point x="437" y="10" type="curve"/>
      <point x="449" y="22"/>
      <point x="462" y="51"/>
      <point x="465" y="71" type="curve"/>
      <point x="419" y="88"/>
      <point x="247" y="174"/>
      <point x="142" y="227" type="curve"/>
      <point x="142" y="229"/>
      <point x="144" y="235"/>
      <point x="146" y="236" type="curve"/>
      <point x="249" y="286"/>
      <point x="414" y="360"/>
    </contour>
  </outline>
</glyph>
<glyph name="equal" format="2">
  <advance width="533"/>
  <unicode hex="003D"/>
  <note>
equal
</note>
  <outline>
    <contour>
      <point x="472" y="115" type="curve"/>
      <point x="483" y="130"/>
      <point x="490" y="157"/>
      <point x="490" y="177" type="curve"/>
      <point x="425" y="171"/>
      <point x="125" y="169"/>
      <point x="61" y="172" type="curve"/>
      <point x="53" y="153"/>
      <point x="47" y="125"/>
      <point x="47" y="106" type="curve"/>
      <point x="112" y="114"/>
      <point x="408" y="116"/>
    </contour>
    <contour>
      <point x="472" y="277" type="curve"/>
      <point x="483" y="292"/>
      <point x="490" y="319"/>
      <point x="490" y="339" type="curve"/>
      <point x="425" y="333"/>
      <point x="125" y="331"/>
      <point x="61" y="334" type="curve"/>
      <point x="53" y="315"/>
      <point x="47" y="287"/>
      <point x="47" y="268" type="curve"/>
      <point x="112" y="276"/>
      <point x="408" y="278"/>
    </contour>
  </outline>
</glyph>
<glyph name="greater" format="2">
  <advance width="533"/>
  <unicode hex="003E"/>
  <note>
greater
</note>
  <outline>
    <contour>
      <point x="76" y="79" type="curve"/>
      <point x="74" y="61"/>
      <point x="78" y="29"/>
      <point x="85" y="10" type="curve"/>
      <point x="143" y="43"/>
      <point x="397" y="170"/>
      <point x="456" y="194" type="curve"/>
      <point x="463" y="212"/>
      <point x="470" y="234"/>
      <point x="472" y="253" type="curve"/>
      <point x="345" y="311"/>
      <point x="220" y="378"/>
      <point x="96" y="446" type="curve"/>
      <point x="84" y="434"/>
      <point x="71" y="405"/>
      <point x="68" y="385" type="curve"/>
      <point x="114" y="369"/>
      <point x="284" y="283"/>
      <point x="388" y="230" type="curve"/>
      <point x="388" y="228"/>
      <point x="386" y="223"/>
      <point x="385" y="221" type="curve"/>
      <point x="282" y="171"/>
      <point x="118" y="96"/>
    </contour>
  </outline>
</glyph>
<glyph name="question" format="2">
  <advance width="415"/>
  <unicode hex="003F"/>
  <note>
question
</note>
  <outline>
    <contour>
      <point x="304" y="524" type="curve" smooth="yes"/>
      <point x="304" y="451"/>
      <point x="241" y="401"/>
      <point x="152" y="344" type="curve"/>
      <point x="158" y="306"/>
      <point x="161" y="269"/>
      <point x="161" y="225" type="curve" smooth="yes"/>
      <point x="161" y="210"/>
      <point x="161" y="194"/>
      <point x="160" y="176" type="curve"/>
      <point x="177" y="176"/>
      <point x="205" y="179"/>
      <point x="222" y="184" type="curve"/>
      <point x="221" y="197"/>
      <point x="221" y="209"/>
      <point x="221" y="220" type="curve" smooth="yes"/>
      <point x="221" y="256"/>
      <point x="225" y="286"/>
      <point x="233" y="326" type="curve"/>
      <point x="279" y="354"/>
      <point x="390" y="446"/>
      <point x="390" y="539" type="curve" smooth="yes"/>
      <point x="390" y="655"/>
      <point x="305" y="680"/>
      <point x="206" y="680" type="curve" smooth="yes"/>
      <point x="185" y="680"/>
      <point x="75" y="626"/>
      <point x="42" y="607" type="curve"/>
      <point x="64" y="493" type="line"/>
      <point x="68" y="489"/>
      <point x="76" y="488"/>
      <point x="84" y="488" type="curve" smooth="yes"/>
      <point x="92" y="488"/>
      <point x="100" y="489"/>
      <point x="106" y="492" type="curve"/>
      <point x="122" y="586" type="line"/>
      <point x="140" y="599"/>
      <point x="172" y="618"/>
      <point x="211" y="618" type="curve" smooth="yes"/>
      <point x="266" y="618"/>
      <point x="304" y="580"/>
    </contour>
    <contour>
      <point x="260" y="77" type="curve"/>
      <point x="241" y="99"/>
      <point x="204" y="120"/>
      <point x="176" y="124" type="curve"/>
      <point x="152" y="103"/>
      <point x="131" y="68"/>
      <point x="125" y="35" type="curve"/>
      <point x="141" y="15"/>
      <point x="177" y="-5"/>
      <point x="210" y="-11" type="curve"/>
      <point x="230" y="6"/>
      <point x="255" y="46"/>
    </contour>
  </outline>
</glyph>
<glyph name="at" format="2">
  <advance width="802"/>
  <unicode hex="0040"/>
  <note>
at
</note>
  <outline>
    <contour>
      <point x="328" y="-10" type="line"/>
      <point x="464" y="149" type="line"/>
      <point x="454" y="115"/>
      <point x="448" y="73"/>
      <point x="448" y="42" type="curve" smooth="yes"/>
      <point x="448" y="2"/>
      <point x="473" y="-5"/>
      <point x="501" y="-5" type="curve" smooth="yes"/>
      <point x="620" y="-5"/>
      <point x="756" y="108"/>
      <point x="756" y="299" type="curve" smooth="yes"/>
      <point x="756" y="453"/>
      <point x="644" y="570"/>
      <point x="453" y="570" type="curve" smooth="yes"/>
      <point x="225" y="570"/>
      <point x="47" y="352"/>
      <point x="47" y="133" type="curve" smooth="yes"/>
      <point x="47" y="-79"/>
      <point x="165" y="-195"/>
      <point x="348" y="-195" type="curve" smooth="yes"/>
      <point x="360" y="-195"/>
      <point x="381" y="-192"/>
      <point x="391" y="-184" type="curve"/>
      <point x="396" y="-175"/>
      <point x="398" y="-158"/>
      <point x="393" y="-147" type="curve"/>
      <point x="385" y="-148"/>
      <point x="381" y="-148"/>
      <point x="376" y="-148" type="curve" smooth="yes"/>
      <point x="191" y="-148"/>
      <point x="122" y="-30"/>
      <point x="122" y="148" type="curve" smooth="yes"/>
      <point x="122" y="366"/>
      <point x="248" y="520"/>
      <point x="438" y="520" type="curve" smooth="yes"/>
      <point x="600" y="520"/>
      <point x="692" y="407"/>
      <point x="692" y="270" type="curve" smooth="yes"/>
      <point x="692" y="142"/>
      <point x="647" y="57"/>
      <point x="552" y="57" type="curve" smooth="yes"/>
      <point x="533" y="57"/>
      <point x="510" y="61"/>
      <point x="520" y="109" type="curve" smooth="yes"/>
      <point x="553" y="263" type="line" smooth="yes"/>
      <point x="563" y="312"/>
      <point x="573" y="353"/>
      <point x="591" y="384" type="curve"/>
      <point x="566" y="394"/>
      <point x="530" y="399"/>
      <point x="461" y="399" type="curve" smooth="yes"/>
      <point x="348" y="398"/>
      <point x="227" y="297"/>
      <point x="227" y="89" type="curve" smooth="yes"/>
      <point x="227" y="20"/>
      <point x="263" y="-10"/>
      <point x="292" y="-10" type="curve" smooth="yes"/>
    </contour>
    <contour>
      <point x="318" y="66" type="curve"/>
      <point x="302" y="85"/>
      <point x="297" y="118"/>
      <point x="297" y="142" type="curve" smooth="yes"/>
      <point x="297" y="208"/>
      <point x="312" y="264"/>
      <point x="348" y="305" type="curve" smooth="yes"/>
      <point x="385" y="346"/>
      <point x="454" y="358"/>
      <point x="505" y="340" type="curve"/>
      <point x="472" y="196" type="line"/>
      <point x="438" y="158"/>
      <point x="368" y="81"/>
    </contour>
  </outline>
</glyph>
<glyph name="A" format="2">
  <advance width="701"/>
  <unicode hex="0041"/>
  <note>
A
</note>
  <outline>
    <contour>
      <point x="29" y="39" type="curve"/>
      <point x="20" y="-3" type="line"/>
      <point x="77" y="0"/>
      <point x="93" y="0"/>
      <point x="123" y="0" type="curve" smooth="yes"/>
      <point x="154" y="0"/>
      <point x="173" y="0"/>
      <point x="241" y="-3" type="curve"/>
      <point x="252" y="29" type="line"/>
      <point x="165" y="51" type="line"/>
      <point x="168" y="62"/>
      <point x="200" y="172"/>
      <point x="219" y="221" type="curve" smooth="yes"/>
      <point x="224" y="235"/>
      <point x="229" y="246"/>
      <point x="253" y="248" type="curve" smooth="yes"/>
      <point x="273" y="249"/>
      <point x="296" y="250"/>
      <point x="318" y="250" type="curve" smooth="yes"/>
      <point x="341" y="250"/>
      <point x="363" y="249"/>
      <point x="385" y="248" type="curve" smooth="yes"/>
      <point x="426" y="246"/>
      <point x="441" y="236"/>
      <point x="447" y="218" type="curve" smooth="yes"/>
      <point x="503" y="53" type="line"/>
      <point x="429" y="33" type="line"/>
      <point x="424" y="-3" type="line"/>
      <point x="484" y="0"/>
      <point x="507" y="0"/>
      <point x="549" y="0" type="curve" smooth="yes"/>
      <point x="592" y="0"/>
      <point x="613" y="0"/>
      <point x="674" y="-3" type="curve"/>
      <point x="681" y="34" type="line"/>
      <point x="617" y="47"/>
      <point x="604" y="67"/>
      <point x="564" y="171" type="curve" smooth="yes"/>
      <point x="526" y="267"/>
      <point x="440" y="499"/>
      <point x="405" y="639" type="curve" smooth="yes"/>
      <point x="394" y="683" type="line"/>
      <point x="377" y="683"/>
      <point x="314" y="665"/>
      <point x="301" y="648" type="curve"/>
      <point x="301" y="629"/>
      <point x="294" y="604"/>
      <point x="290" y="591" type="curve" smooth="yes"/>
      <point x="282" y="566" type="line" smooth="yes"/>
      <point x="251" y="470"/>
      <point x="134" y="167"/>
      <point x="125" y="146" type="curve" smooth="yes"/>
      <point x="101" y="94"/>
      <point x="83" y="55"/>
    </contour>
    <contour>
      <point x="343" y="566" type="line"/>
      <point x="420" y="310" type="line" smooth="yes"/>
      <point x="422" y="304"/>
      <point x="417" y="304"/>
      <point x="412" y="304" type="curve" smooth="yes"/>
      <point x="256" y="295" type="line" smooth="yes"/>
      <point x="250" y="295"/>
      <point x="247" y="297"/>
      <point x="249" y="302" type="curve" smooth="yes"/>
      <point x="338" y="566" type="line"/>
    </contour>
  </outline>
</glyph>
<glyph name="B" format="2">
  <advance width="576"/>
  <unicode hex="0042"/>
  <note>
B
</note>
  <outline>
    <contour>
      <point x="45" y="608" type="curve"/>
      <point x="38" y="568" type="line"/>
      <point x="49" y="570"/>
      <point x="60" y="571"/>
      <point x="68" y="571" type="curve" smooth="yes"/>
      <point x="103" y="571"/>
      <point x="123" y="553"/>
      <point x="123" y="493" type="curve" smooth="yes"/>
      <point x="123" y="115" type="line" smooth="yes"/>
      <point x="123" y="72"/>
      <point x="99" y="35"/>
      <point x="38" y="27" type="curve"/>
      <point x="33" y="-10" type="line"/>
      <point x="73" y="-5"/>
      <point x="112" y="-5"/>
      <point x="156" y="-5" type="curve" smooth="yes"/>
      <point x="186" y="-5"/>
      <point x="207" y="-6"/>
      <point x="240" y="-10" type="curve" smooth="yes"/>
      <point x="256" y="-12"/>
      <point x="286" y="-16"/>
      <point x="307" y="-16" type="curve" smooth="yes"/>
      <point x="404" y="-16"/>
      <point x="538" y="61"/>
      <point x="538" y="182" type="curve" smooth="yes"/>
      <point x="538" y="278"/>
      <point x="454" y="333"/>
      <point x="385" y="341" type="curve"/>
      <point x="446" y="366"/>
      <point x="484" y="418"/>
      <point x="484" y="485" type="curve" smooth="yes"/>
      <point x="484" y="572"/>
      <point x="421" y="625"/>
      <point x="251" y="625" type="curve" smooth="yes"/>
      <point x="194" y="625"/>
      <point x="127" y="619"/>
    </contour>
    <contour>
      <point x="209" y="343" type="line"/>
      <point x="209" y="571" type="line"/>
      <point x="228" y="575"/>
      <point x="252" y="577"/>
      <point x="267" y="577" type="curve" smooth="yes"/>
      <point x="338" y="577"/>
      <point x="395" y="539"/>
      <point x="395" y="457" type="curve" smooth="yes"/>
      <point x="395" y="384"/>
      <point x="351" y="359"/>
      <point x="288" y="352" type="curve" smooth="yes"/>
    </contour>
    <contour>
      <point x="306" y="38" type="curve" smooth="yes"/>
      <point x="257" y="38"/>
      <point x="209" y="60"/>
      <point x="209" y="61" type="curve" smooth="yes"/>
      <point x="209" y="290" type="line"/>
      <point x="288" y="300" type="line"/>
      <point x="303" y="304"/>
      <point x="308" y="304"/>
      <point x="315" y="304" type="curve" smooth="yes"/>
      <point x="391" y="304"/>
      <point x="445" y="252"/>
      <point x="445" y="170" type="curve" smooth="yes"/>
      <point x="445" y="74"/>
      <point x="371" y="38"/>
    </contour>
  </outline>
</glyph>
<glyph name="C" format="2">
  <advance width="708"/>
  <unicode hex="0043"/>
  <note>
C
</note>
  <outline>
    <contour>
      <point x="40" y="318" type="curve" smooth="yes"/>
      <point x="40" y="152"/>
      <point x="149" y="-21"/>
      <point x="397" y="-21" type="curve" smooth="yes"/>
      <point x="543" y="-21"/>
      <point x="602" y="4"/>
      <point x="641" y="38" type="curve"/>
      <point x="673" y="198" type="line"/>
      <point x="669" y="202"/>
      <point x="660" y="205"/>
      <point x="649" y="205" type="curve" smooth="yes"/>
      <point x="643" y="205"/>
      <point x="636" y="204"/>
      <point x="631" y="202" type="curve"/>
      <point x="596" y="58"/>
      <point x="530" y="39"/>
      <point x="415" y="39" type="curve" smooth="yes"/>
      <point x="231" y="39"/>
      <point x="148" y="206"/>
      <point x="148" y="337" type="curve" smooth="yes"/>
      <point x="148" y="520"/>
      <point x="226" y="626"/>
      <point x="408" y="626" type="curve" smooth="yes"/>
      <point x="523" y="626"/>
      <point x="579" y="604"/>
      <point x="592" y="473" type="curve"/>
      <point x="595" y="470"/>
      <point x="606" y="469"/>
      <point x="614" y="469" type="curve" smooth="yes"/>
      <point x="623" y="469"/>
      <point x="633" y="471"/>
      <point x="636" y="475" type="curve"/>
      <point x="656" y="672" type="line"/>
      <point x="645" y="670"/>
      <point x="626" y="668"/>
      <point x="608" y="668" type="curve" smooth="yes"/>
      <point x="590" y="668"/>
      <point x="566" y="670"/>
      <point x="530" y="674" type="curve" smooth="yes"/>
      <point x="507" y="677"/>
      <point x="470" y="681"/>
      <point x="429" y="681" type="curve" smooth="yes"/>
      <point x="217" y="681"/>
      <point x="40" y="573"/>
    </contour>
  </outline>
</glyph>
<glyph name="D" format="2">
  <advance width="775"/>
  <unicode hex="0044"/>
  <note>
D
</note>
  <outline>
    <contour>
      <point x="54" y="657" type="curve"/>
      <point x="49" y="618" type="line"/>
      <point x="100" y="615"/>
      <point x="134" y="600"/>
      <point x="134" y="571" type="curve" smooth="yes"/>
      <point x="134" y="325" type="line" smooth="yes"/>
      <point x="134" y="256"/>
      <point x="133" y="197"/>
      <point x="129" y="109" type="curve" smooth="yes"/>
      <point x="126" y="54"/>
      <point x="92" y="35"/>
      <point x="41" y="29" type="curve"/>
      <point x="35" y="-10" type="line"/>
      <point x="78" y="-6"/>
      <point x="120" y="-5"/>
      <point x="159" y="-5" type="curve" smooth="yes"/>
      <point x="198" y="-5"/>
      <point x="223" y="-6"/>
      <point x="253" y="-10" type="curve" smooth="yes"/>
      <point x="287" y="-15"/>
      <point x="325" y="-17"/>
      <point x="350" y="-17" type="curve" smooth="yes"/>
      <point x="497" y="-17"/>
      <point x="735" y="53"/>
      <point x="735" y="345" type="curve" smooth="yes"/>
      <point x="735" y="561"/>
      <point x="563" y="673"/>
      <point x="355" y="673" type="curve" smooth="yes"/>
      <point x="292" y="673"/>
      <point x="228" y="669"/>
      <point x="179" y="665" type="curve" smooth="yes"/>
      <point x="129" y="661"/>
      <point x="89" y="659"/>
    </contour>
    <contour>
      <point x="372" y="42" type="curve" smooth="yes"/>
      <point x="314" y="42"/>
      <point x="276" y="54"/>
      <point x="230" y="74" type="curve"/>
      <point x="226" y="153"/>
      <point x="226" y="250"/>
      <point x="226" y="336" type="curve" smooth="yes"/>
      <point x="226" y="423"/>
      <point x="226" y="516"/>
      <point x="230" y="598" type="curve" smooth="yes"/>
      <point x="230" y="599"/>
      <point x="283" y="614"/>
      <point x="353" y="614" type="curve" smooth="yes"/>
      <point x="535" y="614"/>
      <point x="634" y="515"/>
      <point x="634" y="325" type="curve" smooth="yes"/>
      <point x="634" y="56"/>
      <point x="436" y="42"/>
    </contour>
  </outline>
</glyph>
<glyph name="E" format="2">
  <advance width="561"/>
  <unicode hex="0045"/>
  <note>
E
</note>
  <outline>
    <contour>
      <point x="114" y="529" type="curve" smooth="yes"/>
      <point x="114" y="107" type="line" smooth="yes"/>
      <point x="114" y="36"/>
      <point x="87" y="32"/>
      <point x="34" y="23" type="curve"/>
      <point x="32" y="-7" type="line"/>
      <point x="101" y="2"/>
      <point x="174" y="3"/>
      <point x="238" y="3" type="curve" smooth="yes"/>
      <point x="329" y="3"/>
      <point x="410" y="1"/>
      <point x="492" y="-7" type="curve"/>
      <point x="529" y="171" type="line"/>
      <point x="525" y="173"/>
      <point x="517" y="174"/>
      <point x="508" y="174" type="curve" smooth="yes"/>
      <point x="501" y="174"/>
      <point x="492" y="173"/>
      <point x="488" y="171" type="curve"/>
      <point x="468" y="59"/>
      <point x="396" y="45"/>
      <point x="309" y="45" type="curve" smooth="yes"/>
      <point x="297" y="45" type="line" smooth="yes"/>
      <point x="230" y="45"/>
      <point x="200" y="78"/>
      <point x="200" y="132" type="curve" smooth="yes"/>
      <point x="200" y="250" type="line" smooth="yes"/>
      <point x="200" y="290"/>
      <point x="203" y="291"/>
      <point x="242" y="291" type="curve" smooth="yes"/>
      <point x="297" y="291" type="line" smooth="yes"/>
      <point x="344" y="291"/>
      <point x="380" y="289"/>
      <point x="393" y="237" type="curve"/>
      <point x="421" y="237" type="line"/>
      <point x="439" y="392" type="line"/>
      <point x="411" y="392" type="line"/>
      <point x="396" y="339"/>
      <point x="365" y="334"/>
      <point x="306" y="334" type="curve" smooth="yes"/>
      <point x="242" y="334" type="line" smooth="yes"/>
      <point x="203" y="334"/>
      <point x="200" y="337"/>
      <point x="200" y="377" type="curve" smooth="yes"/>
      <point x="200" y="502" type="line" smooth="yes"/>
      <point x="200" y="567"/>
      <point x="200" y="572"/>
      <point x="264" y="572" type="curve" smooth="yes"/>
      <point x="361" y="572"/>
      <point x="433" y="567"/>
      <point x="450" y="466" type="curve"/>
      <point x="452" y="464"/>
      <point x="458" y="462"/>
      <point x="466" y="462" type="curve" smooth="yes"/>
      <point x="473" y="462"/>
      <point x="481" y="464"/>
      <point x="485" y="466" type="curve"/>
      <point x="479" y="633" type="line"/>
      <point x="423" y="617"/>
      <point x="317" y="615"/>
      <point x="236" y="615" type="curve" smooth="yes"/>
      <point x="158" y="615"/>
      <point x="118" y="615"/>
      <point x="40" y="622" type="curve"/>
      <point x="36" y="590" type="line"/>
      <point x="74" y="584"/>
      <point x="114" y="576"/>
    </contour>
  </outline>
</glyph>
<glyph name="F" format="2">
  <advance width="569"/>
  <unicode hex="0046"/>
  <note>
F
</note>
  <outline>
    <contour>
      <point x="126" y="544" type="curve" smooth="yes"/>
      <point x="126" y="173" type="line" smooth="yes"/>
      <point x="126" y="70"/>
      <point x="104" y="44"/>
      <point x="43" y="33" type="curve"/>
      <point x="35" y="-3" type="line"/>
      <point x="102" y="-2"/>
      <point x="150" y="-1"/>
      <point x="187" y="-1" type="curve" smooth="yes"/>
      <point x="224" y="-1"/>
      <point x="261" y="-2"/>
      <point x="329" y="-3" type="curve"/>
      <point x="339" y="31" type="line"/>
      <point x="220" y="63" type="line"/>
      <point x="220" y="251" type="line" smooth="yes"/>
      <point x="220" y="293"/>
      <point x="220" y="293"/>
      <point x="261" y="293" type="curve" smooth="yes"/>
      <point x="322" y="293" type="line" smooth="yes"/>
      <point x="391" y="293"/>
      <point x="410" y="274"/>
      <point x="417" y="219" type="curve"/>
      <point x="447" y="219" type="line"/>
      <point x="466" y="405" type="line"/>
      <point x="436" y="405" type="line"/>
      <point x="427" y="362"/>
      <point x="387" y="343"/>
      <point x="322" y="343" type="curve" smooth="yes"/>
      <point x="261" y="343" type="line" smooth="yes"/>
      <point x="220" y="343"/>
      <point x="220" y="343"/>
      <point x="220" y="385" type="curve" smooth="yes"/>
      <point x="220" y="546" type="line" smooth="yes"/>
      <point x="220" y="616"/>
      <point x="220" y="616"/>
      <point x="287" y="616" type="curve" smooth="yes"/>
      <point x="421" y="616"/>
      <point x="457" y="606"/>
      <point x="479" y="502" type="curve"/>
      <point x="485" y="499"/>
      <point x="512" y="500"/>
      <point x="518" y="505" type="curve"/>
      <point x="534" y="686" type="line"/>
      <point x="474" y="669"/>
      <point x="360" y="661"/>
      <point x="256" y="661" type="curve" smooth="yes"/>
      <point x="171" y="661"/>
      <point x="135" y="661"/>
      <point x="53" y="671" type="curve"/>
      <point x="49" y="634" type="line"/>
      <point x="110" y="623"/>
      <point x="126" y="604"/>
    </contour>
  </outline>
</glyph>
<glyph name="G" format="2">
  <advance width="764"/>
  <unicode hex="0047"/>
  <note>
G
</note>
  <outline>
    <contour>
      <point x="40" y="319" type="curve" smooth="yes"/>
      <point x="40" y="162"/>
      <point x="136" y="-21"/>
      <point x="404" y="-21" type="curve" smooth="yes"/>
      <point x="508" y="-21"/>
      <point x="583" y="-12"/>
      <point x="680" y="23" type="curve"/>
      <point x="666" y="66"/>
      <point x="663" y="102"/>
      <point x="663" y="140" type="curve" smooth="yes"/>
      <point x="663" y="193"/>
      <point x="669" y="241"/>
      <point x="722" y="260" type="curve"/>
      <point x="729" y="311" type="line"/>
      <point x="646" y="303"/>
      <point x="596" y="302"/>
      <point x="557" y="302" type="curve" smooth="yes"/>
      <point x="504" y="302"/>
      <point x="475" y="302"/>
      <point x="441" y="305" type="curve"/>
      <point x="433" y="256" type="line"/>
      <point x="554" y="239"/>
      <point x="569" y="229"/>
      <point x="569" y="134" type="curve" smooth="yes"/>
      <point x="569" y="57"/>
      <point x="528" y="30"/>
      <point x="400" y="30" type="curve" smooth="yes"/>
      <point x="238" y="30"/>
      <point x="153" y="185"/>
      <point x="153" y="346" type="curve" smooth="yes"/>
      <point x="153" y="506"/>
      <point x="237" y="635"/>
      <point x="421" y="635" type="curve" smooth="yes"/>
      <point x="533" y="635"/>
      <point x="580" y="587"/>
      <point x="592" y="482" type="curve"/>
      <point x="595" y="479"/>
      <point x="607" y="478"/>
      <point x="614" y="478" type="curve" smooth="yes"/>
      <point x="624" y="478"/>
      <point x="634" y="480"/>
      <point x="638" y="483" type="curve"/>
      <point x="658" y="671" type="line"/>
      <point x="645" y="669"/>
      <point x="626" y="668"/>
      <point x="613" y="668" type="curve" smooth="yes"/>
      <point x="589" y="668"/>
      <point x="564" y="671"/>
      <point x="549" y="673" type="curve" smooth="yes"/>
      <point x="509" y="678"/>
      <point x="475" y="681"/>
      <point x="440" y="681" type="curve" smooth="yes"/>
      <point x="229" y="681"/>
      <point x="40" y="573"/>
    </contour>
  </outline>
</glyph>
<glyph name="H" format="2">
  <advance width="765"/>
  <unicode hex="0048"/>
  <note>
H
</note>
  <outline>
    <contour>
      <point x="39" y="27" type="curve"/>
      <point x="35" y="-3" type="line"/>
      <point x="93" y="0"/>
      <point x="131" y="0"/>
      <point x="174" y="0" type="curve" smooth="yes"/>
      <point x="217" y="0"/>
      <point x="253" y="0"/>
      <point x="309" y="-3" type="curve"/>
      <point x="312" y="27" type="line"/>
      <point x="218" y="51" type="line"/>
      <point x="218" y="124"/>
      <point x="218" y="194"/>
      <point x="218" y="267" type="curve" smooth="yes"/>
      <point x="218" y="298"/>
      <point x="233" y="302"/>
      <point x="271" y="304" type="curve" smooth="yes"/>
      <point x="322" y="307"/>
      <point x="343" y="307"/>
      <point x="390" y="307" type="curve" smooth="yes"/>
      <point x="423" y="307"/>
      <point x="449" y="307"/>
      <point x="503" y="304" type="curve" smooth="yes"/>
      <point x="536" y="302"/>
      <point x="545" y="296"/>
      <point x="545" y="252" type="curve" smooth="yes"/>
      <point x="545" y="52" type="line"/>
      <point x="458" y="28" type="line"/>
      <point x="454" y="-3" type="line"/>
      <point x="527" y="0"/>
      <point x="560" y="0"/>
      <point x="599" y="0" type="curve" smooth="yes"/>
      <point x="638" y="0"/>
      <point x="661" y="0"/>
      <point x="725" y="-3" type="curve"/>
      <point x="730" y="27" type="line"/>
      <point x="680" y="36"/>
      <point x="638" y="51"/>
      <point x="638" y="101" type="curve" smooth="yes"/>
      <point x="638" y="562" type="line" smooth="yes"/>
      <point x="638" y="605"/>
      <point x="670" y="629"/>
      <point x="725" y="634" type="curve"/>
      <point x="729" y="664" type="line"/>
      <point x="678" y="661"/>
      <point x="636" y="661"/>
      <point x="598" y="661" type="curve" smooth="yes"/>
      <point x="560" y="661"/>
      <point x="511" y="661"/>
      <point x="458" y="664" type="curve"/>
      <point x="454" y="634" type="line"/>
      <point x="545" y="612" type="line"/>
      <point x="545" y="414" type="line" smooth="yes"/>
      <point x="545" y="371"/>
      <point x="535" y="364"/>
      <point x="503" y="362" type="curve" smooth="yes"/>
      <point x="451" y="359"/>
      <point x="424" y="359"/>
      <point x="384" y="359" type="curve" smooth="yes"/>
      <point x="344" y="359"/>
      <point x="322" y="359"/>
      <point x="271" y="362" type="curve" smooth="yes"/>
      <point x="228" y="365"/>
      <point x="218" y="371"/>
      <point x="218" y="414" type="curve" smooth="yes"/>
      <point x="218" y="612" type="line"/>
      <point x="308" y="634" type="line"/>
      <point x="311" y="664" type="line"/>
      <point x="259" y="661"/>
      <point x="218" y="661"/>
      <point x="179" y="661" type="curve" smooth="yes"/>
      <point x="142" y="661"/>
      <point x="94" y="661"/>
      <point x="41" y="664" type="curve"/>
      <point x="35" y="634" type="line"/>
      <point x="91" y="626"/>
      <point x="124" y="602"/>
      <point x="124" y="564" type="curve" smooth="yes"/>
      <point x="124" y="101" type="line" smooth="yes"/>
      <point x="124" y="52"/>
      <point x="95" y="41"/>
    </contour>
  </outline>
</glyph>
<glyph name="I" format="2">
  <advance width="364"/>
  <unicode hex="0049"/>
  <note>
I
</note>
  <outline>
    <contour>
      <point x="40" y="27" type="curve"/>
      <point x="36" y="-3" type="line"/>
      <point x="101" y="0"/>
      <point x="138" y="0"/>
      <point x="181" y="0" type="curve" smooth="yes"/>
      <point x="224" y="0"/>
      <point x="259" y="0"/>
      <point x="322" y="-3" type="curve"/>
      <point x="326" y="27" type="line"/>
      <point x="265" y="34"/>
      <point x="229" y="62"/>
      <point x="229" y="102" type="curve" smooth="yes"/>
      <point x="229" y="558" type="line" smooth="yes"/>
      <point x="229" y="605"/>
      <point x="253" y="626"/>
      <point x="323" y="634" type="curve"/>
      <point x="329" y="664" type="line"/>
      <point x="258" y="661"/>
      <point x="222" y="661"/>
      <point x="182" y="661" type="curve" smooth="yes"/>
      <point x="142" y="661"/>
      <point x="103" y="661"/>
      <point x="40" y="664" type="curve"/>
      <point x="35" y="634" type="line"/>
      <point x="101" y="626"/>
      <point x="136" y="605"/>
      <point x="136" y="558" type="curve" smooth="yes"/>
      <point x="136" y="102" type="line" smooth="yes"/>
      <point x="136" y="62"/>
      <point x="112" y="35"/>
    </contour>
  </outline>
</glyph>
<glyph name="J" format="2">
  <advance width="375"/>
  <unicode hex="004A"/>
  <note>
J
</note>
  <outline>
    <contour>
      <point x="149" y="169" type="curve" smooth="yes"/>
      <point x="149" y="67" type="line" smooth="yes"/>
      <point x="149" y="-85"/>
      <point x="138" y="-186"/>
      <point x="35" y="-186" type="curve" smooth="yes"/>
      <point x="8" y="-186"/>
      <point x="-14" y="-179"/>
      <point x="-70" y="-146" type="curve"/>
      <point x="-87" y="-170"/>
      <point x="-92" y="-198"/>
      <point x="-92" y="-227" type="curve"/>
      <point x="-70" y="-248"/>
      <point x="-22" y="-265"/>
      <point x="13" y="-265" type="curve" smooth="yes"/>
      <point x="93" y="-265"/>
      <point x="187" y="-176"/>
      <point x="214" y="-107" type="curve" smooth="yes"/>
      <point x="236" y="-50"/>
      <point x="239" y="65"/>
      <point x="239" y="172" type="curve" smooth="yes"/>
      <point x="239" y="524" type="line" smooth="yes"/>
      <point x="239" y="584"/>
      <point x="260" y="621"/>
      <point x="334" y="630" type="curve"/>
      <point x="340" y="664" type="line"/>
      <point x="289" y="662"/>
      <point x="228" y="661"/>
      <point x="183" y="661" type="curve" smooth="yes"/>
      <point x="138" y="661"/>
      <point x="93" y="662"/>
      <point x="40" y="664" type="curve"/>
      <point x="35" y="634" type="line"/>
      <point x="140" y="601" type="line"/>
      <point x="149" y="457"/>
      <point x="149" y="285"/>
    </contour>
    <contour>
      <point x="149" y="169" type="curve" smooth="yes"/>
      <point x="149" y="67" type="line" smooth="yes"/>
      <point x="149" y="-85"/>
      <point x="138" y="-186"/>
      <point x="35" y="-186" type="curve" smooth="yes"/>
      <point x="8" y="-186"/>
      <point x="-14" y="-179"/>
      <point x="-70" y="-146" type="curve"/>
      <point x="-87" y="-170"/>
      <point x="-92" y="-198"/>
      <point x="-92" y="-227" type="curve"/>
      <point x="-70" y="-248"/>
      <point x="-22" y="-265"/>
      <point x="13" y="-265" type="curve" smooth="yes"/>
      <point x="93" y="-265"/>
      <point x="187" y="-176"/>
      <point x="214" y="-107" type="curve" smooth="yes"/>
      <point x="236" y="-50"/>
      <point x="239" y="65"/>
      <point x="239" y="172" type="curve" smooth="yes"/>
      <point x="239" y="524" type="line" smooth="yes"/>
      <point x="239" y="584"/>
      <point x="260" y="621"/>
      <point x="334" y="630" type="curve"/>
      <point x="340" y="664" type="line"/>
      <point x="289" y="662"/>
      <point x="228" y="661"/>
      <point x="183" y="661" type="curve" smooth="yes"/>
      <point x="138" y="661"/>
      <point x="93" y="662"/>
      <point x="40" y="664" type="curve"/>
      <point x="35" y="634" type="line"/>
      <point x="140" y="601" type="line"/>
      <point x="149" y="457"/>
      <point x="149" y="285"/>
    </contour>
  </outline>
</glyph>
<glyph name="K" format="2">
  <advance width="679"/>
  <unicode hex="004B"/>
  <note>
K
</note>
  <outline>
    <contour>
      <point x="37" y="26" type="curve"/>
      <point x="33" y="-3" type="line"/>
      <point x="85" y="0"/>
      <point x="126" y="0"/>
      <point x="169" y="0" type="curve" smooth="yes"/>
      <point x="209" y="0"/>
      <point x="252" y="0"/>
      <point x="303" y="-3" type="curve"/>
      <point x="307" y="26" type="line"/>
      <point x="212" y="54" type="line"/>
      <point x="212" y="251" type="line"/>
      <point x="257" y="286" type="line"/>
      <point x="381" y="123" type="line" smooth="yes"/>
      <point x="408" y="88"/>
      <point x="476" y="9"/>
      <point x="520" y="-16" type="curve"/>
      <point x="560" y="-6"/>
      <point x="600" y="1"/>
      <point x="654" y="1" type="curve"/>
      <point x="660" y="34" type="line"/>
      <point x="614" y="34"/>
      <point x="563" y="68"/>
      <point x="529" y="98" type="curve" smooth="yes"/>
      <point x="487" y="134"/>
      <point x="341" y="294"/>
      <point x="321" y="345" type="curve"/>
      <point x="338" y="363"/>
      <point x="479" y="499"/>
      <point x="511" y="530" type="curve" smooth="yes"/>
      <point x="539" y="557"/>
      <point x="579" y="579"/>
      <point x="623" y="587" type="curve"/>
      <point x="628" y="618" type="line"/>
      <point x="576" y="615"/>
      <point x="550" y="615"/>
      <point x="519" y="615" type="curve" smooth="yes"/>
      <point x="487" y="615"/>
      <point x="439" y="615"/>
      <point x="388" y="618" type="curve"/>
      <point x="385" y="590" type="line"/>
      <point x="463" y="574" type="line"/>
      <point x="405" y="484"/>
      <point x="319" y="410"/>
      <point x="212" y="317" type="curve"/>
      <point x="212" y="571" type="line"/>
      <point x="291" y="590" type="line"/>
      <point x="296" y="618" type="line"/>
      <point x="230" y="615"/>
      <point x="208" y="615"/>
      <point x="169" y="615" type="curve" smooth="yes"/>
      <point x="131" y="615"/>
      <point x="103" y="615"/>
      <point x="45" y="618" type="curve"/>
      <point x="41" y="592" type="line"/>
      <point x="101" y="586"/>
      <point x="126" y="569"/>
      <point x="126" y="518" type="curve" smooth="yes"/>
      <point x="126" y="96" type="line" smooth="yes"/>
      <point x="126" y="68"/>
      <point x="110" y="36"/>
    </contour>
  </outline>
</glyph>
<glyph name="L" format="2">
  <advance width="595"/>
  <unicode hex="004C"/>
  <note>
L
</note>
  <outline>
    <contour>
      <point x="36" y="634" type="line"/>
      <point x="130" y="615" type="line"/>
      <point x="130" y="126" type="line" smooth="yes"/>
      <point x="130" y="65"/>
      <point x="90" y="40"/>
      <point x="40" y="23" type="curve"/>
      <point x="35" y="-12" type="line"/>
      <point x="133" y="0"/>
      <point x="226" y="2"/>
      <point x="310" y="2" type="curve" smooth="yes"/>
      <point x="432" y="2"/>
      <point x="474" y="0"/>
      <point x="526" y="-8" type="curve"/>
      <point x="570" y="185" type="line"/>
      <point x="567" y="188"/>
      <point x="556" y="189"/>
      <point x="547" y="189" type="curve" smooth="yes"/>
      <point x="539" y="189"/>
      <point x="527" y="188"/>
      <point x="525" y="185" type="curve"/>
      <point x="487" y="68"/>
      <point x="454" y="54"/>
      <point x="338" y="54" type="curve" smooth="yes"/>
      <point x="321" y="54" type="line" smooth="yes"/>
      <point x="285" y="54"/>
      <point x="253" y="60"/>
      <point x="220" y="76" type="curve"/>
      <point x="220" y="557" type="line" smooth="yes"/>
      <point x="220" y="595"/>
      <point x="243" y="626"/>
      <point x="316" y="634" type="curve"/>
      <point x="321" y="664" type="line"/>
      <point x="269" y="661"/>
      <point x="221" y="661"/>
      <point x="179" y="661" type="curve" smooth="yes"/>
      <point x="136" y="661"/>
      <point x="94" y="661"/>
      <point x="41" y="664" type="curve"/>
    </contour>
  </outline>
</glyph>
<glyph name="M" format="2">
  <advance width="946"/>
  <unicode hex="004D"/>
  <note>
M
</note>
  <outline>
    <contour>
      <point x="29" y="27" type="curve"/>
      <point x="25" y="-3" type="line"/>
      <point x="103" y="0"/>
      <point x="199" y="0"/>
      <point x="261" y="-3" type="curve"/>
      <point x="266" y="27" type="line"/>
      <point x="188" y="49" type="line"/>
      <point x="199" y="208"/>
      <point x="212" y="380"/>
      <point x="223" y="539" type="curve"/>
      <point x="295" y="359"/>
      <point x="368" y="176"/>
      <point x="440" y="-4" type="curve" smooth="yes"/>
      <point x="441" y="-6"/>
      <point x="445" y="-7"/>
      <point x="450" y="-7" type="curve" smooth="yes"/>
      <point x="462" y="-7"/>
      <point x="482" y="-2"/>
      <point x="484" y="3" type="curve" smooth="yes"/>
      <point x="556" y="177"/>
      <point x="630" y="353"/>
      <point x="702" y="527" type="curve"/>
      <point x="712" y="367"/>
      <point x="724" y="210"/>
      <point x="734" y="50" type="curve"/>
      <point x="657" y="27" type="line"/>
      <point x="651" y="-3" type="line"/>
      <point x="703" y="0"/>
      <point x="752" y="0"/>
      <point x="788" y="0" type="curve" smooth="yes"/>
      <point x="825" y="0"/>
      <point x="862" y="0"/>
      <point x="917" y="-3" type="curve"/>
      <point x="921" y="27" type="line"/>
      <point x="880" y="40"/>
      <point x="823" y="58"/>
      <point x="820" y="101" type="curve" smooth="yes"/>
      <point x="788" y="613" type="line"/>
      <point x="856" y="634" type="line"/>
      <point x="859" y="664" type="line"/>
      <point x="826" y="661"/>
      <point x="795" y="661"/>
      <point x="771" y="661" type="curve" smooth="yes"/>
      <point x="747" y="661"/>
      <point x="722" y="661"/>
      <point x="684" y="664" type="curve"/>
      <point x="656" y="556"/>
      <point x="595" y="398"/>
      <point x="480" y="143" type="curve"/>
      <point x="382" y="359"/>
      <point x="292" y="574"/>
      <point x="273" y="664" type="curve"/>
      <point x="227" y="661"/>
      <point x="204" y="661"/>
      <point x="180" y="661" type="curve" smooth="yes"/>
      <point x="158" y="661"/>
      <point x="131" y="661"/>
      <point x="92" y="664" type="curve"/>
      <point x="88" y="634" type="line"/>
      <point x="159" y="614" type="line"/>
      <point x="129" y="146" type="line" smooth="yes"/>
      <point x="124" y="69"/>
      <point x="84" y="51"/>
    </contour>
  </outline>
</glyph>
<glyph name="N" format="2">
  <advance width="742"/>
  <unicode hex="004E"/>
  <note>
N
</note>
  <outline>
    <contour>
      <point x="37" y="25" type="curve"/>
      <point x="33" y="-3" type="line"/>
      <point x="116" y="0"/>
      <point x="219" y="0"/>
      <point x="304" y="-3" type="curve"/>
      <point x="308" y="25" type="line"/>
      <point x="190" y="70" type="line"/>
      <point x="189" y="242"/>
      <point x="189" y="344"/>
      <point x="189" y="514" type="curve" smooth="yes"/>
      <point x="189" y="516"/>
      <point x="190" y="516"/>
      <point x="191" y="516" type="curve" smooth="yes"/>
      <point x="192" y="516"/>
      <point x="193" y="516"/>
      <point x="194" y="514" type="curve" smooth="yes"/>
      <point x="549" y="-11" type="line"/>
      <point x="581" y="-11"/>
      <point x="617" y="-4"/>
      <point x="631" y="10" type="curve"/>
      <point x="627" y="104"/>
      <point x="626" y="197"/>
      <point x="626" y="290" type="curve" smooth="yes"/>
      <point x="626" y="383"/>
      <point x="627" y="487"/>
      <point x="631" y="562" type="curve"/>
      <point x="705" y="590" type="line"/>
      <point x="709" y="618" type="line"/>
      <point x="668" y="615"/>
      <point x="634" y="615"/>
      <point x="599" y="615" type="curve" smooth="yes"/>
      <point x="563" y="615"/>
      <point x="534" y="615"/>
      <point x="491" y="618" type="curve"/>
      <point x="487" y="590" type="line"/>
      <point x="552" y="573"/>
      <point x="565" y="539"/>
      <point x="566" y="490" type="curve" smooth="yes"/>
      <point x="567" y="439"/>
      <point x="567" y="393"/>
      <point x="567" y="343" type="curve" smooth="yes"/>
      <point x="566" y="290"/>
      <point x="567" y="228"/>
      <point x="565" y="132" type="curve" smooth="yes"/>
      <point x="565" y="131"/>
      <point x="564" y="131"/>
      <point x="563" y="131" type="curve" smooth="yes"/>
      <point x="562" y="131"/>
      <point x="560" y="131"/>
      <point x="560" y="132" type="curve"/>
      <point x="445" y="293"/>
      <point x="335" y="453"/>
      <point x="227" y="618" type="curve"/>
      <point x="182" y="615"/>
      <point x="160" y="615"/>
      <point x="138" y="615" type="curve" smooth="yes"/>
      <point x="115" y="615"/>
      <point x="88" y="615"/>
      <point x="50" y="618" type="curve"/>
      <point x="47" y="590" type="line"/>
      <point x="128" y="552" type="line"/>
      <point x="132" y="466"/>
      <point x="134" y="390"/>
      <point x="134" y="333" type="curve" smooth="yes"/>
      <point x="134" y="277"/>
      <point x="133" y="219"/>
      <point x="130" y="169" type="curve" smooth="yes"/>
      <point x="124" y="70"/>
      <point x="92" y="46"/>
    </contour>
  </outline>
</glyph>
<glyph name="O" format="2">
  <advance width="712"/>
  <unicode hex="004F"/>
  <note>
O
</note>
  <outline>
    <contour>
      <point x="37" y="306" type="curve" smooth="yes"/>
      <point x="37" y="155"/>
      <point x="130" y="-20"/>
      <point x="339" y="-20" type="curve" smooth="yes"/>
      <point x="502" y="-20"/>
      <point x="675" y="88"/>
      <point x="675" y="309" type="curve" smooth="yes"/>
      <point x="675" y="467"/>
      <point x="590" y="633"/>
      <point x="375" y="633" type="curve" smooth="yes"/>
      <point x="178" y="633"/>
      <point x="37" y="494"/>
    </contour>
    <contour>
      <point x="350" y="586" type="curve" smooth="yes"/>
      <point x="522" y="586"/>
      <point x="583" y="413"/>
      <point x="583" y="290" type="curve" smooth="yes"/>
      <point x="583" y="186"/>
      <point x="537" y="26"/>
      <point x="370" y="26" type="curve" smooth="yes"/>
      <point x="201" y="26"/>
      <point x="133" y="198"/>
      <point x="133" y="328" type="curve" smooth="yes"/>
      <point x="133" y="463"/>
      <point x="206" y="586"/>
    </contour>
  </outline>
</glyph>
<glyph name="P" format="2">
  <advance width="595"/>
  <unicode hex="0050"/>
  <note>
P
</note>
  <outline>
    <contour>
      <point x="39" y="27" type="curve"/>
      <point x="35" y="-3" type="line"/>
      <point x="91" y="-1"/>
      <point x="144" y="0"/>
      <point x="195" y="0" type="curve" smooth="yes"/>
      <point x="246" y="0"/>
      <point x="302" y="1"/>
      <point x="355" y="-3" type="curve"/>
      <point x="360" y="27" type="line"/>
      <point x="227" y="67" type="line"/>
      <point x="227" y="242" type="line"/>
      <point x="292" y="249" type="line" smooth="yes"/>
      <point x="399" y="261"/>
      <point x="555" y="313"/>
      <point x="555" y="474" type="curve" smooth="yes"/>
      <point x="555" y="589"/>
      <point x="497" y="672"/>
      <point x="331" y="672" type="curve" smooth="yes"/>
      <point x="240" y="672"/>
      <point x="138" y="663"/>
      <point x="47" y="652" type="curve"/>
      <point x="44" y="615" type="line"/>
      <point x="105" y="610"/>
      <point x="133" y="583"/>
      <point x="133" y="553" type="curve" smooth="yes"/>
      <point x="133" y="113" type="line" smooth="yes"/>
      <point x="133" y="68"/>
      <point x="95" y="47"/>
    </contour>
    <contour>
      <point x="456" y="454" type="curve" smooth="yes"/>
      <point x="456" y="343"/>
      <point x="389" y="299"/>
      <point x="292" y="299" type="curve" smooth="yes"/>
      <point x="267" y="299"/>
      <point x="246" y="302"/>
      <point x="227" y="310" type="curve"/>
      <point x="227" y="610" type="line"/>
      <point x="250" y="618"/>
      <point x="290" y="622"/>
      <point x="312" y="622" type="curve" smooth="yes"/>
      <point x="412" y="622"/>
      <point x="456" y="543"/>
    </contour>
  </outline>
</glyph>
<glyph name="Q" format="2">
  <advance width="713"/>
  <unicode hex="0051"/>
  <note>
Q
</note>
  <outline>
    <contour>
      <point x="37" y="309" type="curve" smooth="yes"/>
      <point x="37" y="219"/>
      <point x="68" y="115"/>
      <point x="146" y="51" type="curve" smooth="yes"/>
      <point x="215" y="-6"/>
      <point x="296" y="-9"/>
      <point x="338" y="-20" type="curve" smooth="yes"/>
      <point x="440" y="-47"/>
      <point x="524" y="-180"/>
      <point x="666" y="-180" type="curve" smooth="yes"/>
      <point x="731" y="-180"/>
      <point x="811" y="-151"/>
      <point x="849" y="-114" type="curve"/>
      <point x="851" y="-105"/>
      <point x="845" y="-88"/>
      <point x="835" y="-87" type="curve"/>
      <point x="795" y="-105"/>
      <point x="746" y="-116"/>
      <point x="709" y="-116" type="curve" smooth="yes"/>
      <point x="636" y="-116"/>
      <point x="574" y="-74"/>
      <point x="456" y="0" type="curve"/>
      <point x="578" y="40"/>
      <point x="676" y="143"/>
      <point x="676" y="311" type="curve" smooth="yes"/>
      <point x="676" y="506"/>
      <point x="550" y="633"/>
      <point x="369" y="633" type="curve" smooth="yes"/>
      <point x="190" y="633"/>
      <point x="37" y="511"/>
    </contour>
    <contour>
      <point x="348" y="588" type="curve" smooth="yes"/>
      <point x="512" y="588"/>
      <point x="582" y="428"/>
      <point x="582" y="293" type="curve" smooth="yes"/>
      <point x="582" y="197"/>
      <point x="547" y="25"/>
      <point x="379" y="25" type="curve" smooth="yes"/>
      <point x="210" y="25"/>
      <point x="136" y="194"/>
      <point x="136" y="330" type="curve" smooth="yes"/>
      <point x="136" y="460"/>
      <point x="203" y="588"/>
    </contour>
  </outline>
</glyph>
<glyph name="R" format="2">
  <advance width="679"/>
  <unicode hex="0052"/>
  <note>
R
</note>
  <outline>
    <contour>
      <point x="40" y="27" type="curve"/>
      <point x="35" y="-3" type="line"/>
      <point x="145" y="0"/>
      <point x="208" y="0"/>
      <point x="319" y="-3" type="curve"/>
      <point x="325" y="27" type="line"/>
      <point x="228" y="56" type="line"/>
      <point x="228" y="290" type="line"/>
      <point x="326" y="308" type="line"/>
      <point x="344" y="267" type="line" smooth="yes"/>
      <point x="380" y="185"/>
      <point x="457" y="31"/>
      <point x="534" y="-14" type="curve"/>
      <point x="566" y="-2"/>
      <point x="603" y="1"/>
      <point x="654" y="1" type="curve"/>
      <point x="659" y="41" type="line"/>
      <point x="568" y="60"/>
      <point x="532" y="112"/>
      <point x="500" y="164" type="curve" smooth="yes"/>
      <point x="476" y="203"/>
      <point x="450" y="249"/>
      <point x="408" y="330" type="curve"/>
      <point x="436" y="339"/>
      <point x="538" y="385"/>
      <point x="538" y="494" type="curve" smooth="yes"/>
      <point x="538" y="571"/>
      <point x="485" y="664"/>
      <point x="323" y="664" type="curve" smooth="yes"/>
      <point x="294" y="664"/>
      <point x="232" y="661"/>
      <point x="183" y="661" type="curve" smooth="yes"/>
      <point x="145" y="661"/>
      <point x="102" y="661"/>
      <point x="59" y="664" type="curve"/>
      <point x="54" y="629" type="line"/>
      <point x="134" y="604" type="line"/>
      <point x="134" y="105" type="line" smooth="yes"/>
      <point x="134" y="67"/>
      <point x="97" y="40"/>
    </contour>
    <contour>
      <point x="444" y="480" type="curve" smooth="yes"/>
      <point x="444" y="391"/>
      <point x="386" y="365"/>
      <point x="335" y="351" type="curve" smooth="yes"/>
      <point x="291" y="339"/>
      <point x="260" y="340"/>
      <point x="228" y="348" type="curve"/>
      <point x="228" y="606" type="line"/>
      <point x="252" y="614"/>
      <point x="274" y="619"/>
      <point x="299" y="619" type="curve" smooth="yes"/>
      <point x="365" y="619"/>
      <point x="444" y="584"/>
    </contour>
  </outline>
</glyph>
<glyph name="S" format="2">
  <advance width="490"/>
  <unicode hex="0053"/>
  <note>
S
</note>
  <outline>
    <contour>
      <point x="252" y="622" type="curve" smooth="yes"/>
      <point x="317" y="622"/>
      <point x="363" y="599"/>
      <point x="371" y="500" type="curve"/>
      <point x="374" y="498"/>
      <point x="383" y="496"/>
      <point x="391" y="496" type="curve" smooth="yes"/>
      <point x="397" y="496"/>
      <point x="407" y="497"/>
      <point x="411" y="499" type="curve"/>
      <point x="439" y="649" type="line"/>
      <point x="414" y="657"/>
      <point x="299" y="678"/>
      <point x="258" y="678" type="curve" smooth="yes"/>
      <point x="135" y="678"/>
      <point x="44" y="612"/>
      <point x="44" y="507" type="curve" smooth="yes"/>
      <point x="44" y="424"/>
      <point x="101" y="361"/>
      <point x="200" y="303" type="curve" smooth="yes"/>
      <point x="307" y="239"/>
      <point x="358" y="200"/>
      <point x="358" y="139" type="curve" smooth="yes"/>
      <point x="358" y="68"/>
      <point x="288" y="38"/>
      <point x="234" y="38" type="curve" smooth="yes"/>
      <point x="150" y="38"/>
      <point x="95" y="67"/>
      <point x="81" y="193" type="curve"/>
      <point x="77" y="194"/>
      <point x="70" y="195"/>
      <point x="64" y="195" type="curve" smooth="yes"/>
      <point x="54" y="195"/>
      <point x="44" y="192"/>
      <point x="40" y="189" type="curve"/>
      <point x="35" y="28" type="line"/>
      <point x="79" y="1"/>
      <point x="167" y="-18"/>
      <point x="210" y="-18" type="curve" smooth="yes"/>
      <point x="328" y="-18"/>
      <point x="450" y="53"/>
      <point x="450" y="189" type="curve" smooth="yes"/>
      <point x="450" y="259"/>
      <point x="418" y="300"/>
      <point x="281" y="374" type="curve" smooth="yes"/>
      <point x="177" y="431"/>
      <point x="129" y="471"/>
      <point x="129" y="546" type="curve" smooth="yes"/>
      <point x="129" y="595"/>
      <point x="181" y="622"/>
    </contour>
  </outline>
</glyph>
<glyph name="T" format="2">
  <advance width="698"/>
  <unicode hex="0054"/>
  <note>
T
</note>
  <outline>
    <contour>
      <point x="447" y="597" type="curve" smooth="yes"/>
      <point x="562" y="597"/>
      <point x="585" y="586"/>
      <point x="623" y="493" type="curve"/>
      <point x="628" y="491"/>
      <point x="635" y="490"/>
      <point x="641" y="490" type="curve" smooth="yes"/>
      <point x="650" y="490"/>
      <point x="657" y="492"/>
      <point x="663" y="495" type="curve"/>
      <point x="644" y="676" type="line"/>
      <point x="542" y="653"/>
      <point x="417" y="650"/>
      <point x="347" y="650" type="curve" smooth="yes"/>
      <point x="275" y="650"/>
      <point x="154" y="653"/>
      <point x="52" y="676" type="curve"/>
      <point x="33" y="495" type="line"/>
      <point x="39" y="492"/>
      <point x="46" y="490"/>
      <point x="55" y="490" type="curve" smooth="yes"/>
      <point x="61" y="490"/>
      <point x="68" y="491"/>
      <point x="73" y="493" type="curve"/>
      <point x="113" y="590"/>
      <point x="142" y="597"/>
      <point x="235" y="597" type="curve" smooth="yes"/>
      <point x="291" y="597"/>
      <point x="302" y="594"/>
      <point x="302" y="529" type="curve" smooth="yes"/>
      <point x="302" y="105" type="line" smooth="yes"/>
      <point x="302" y="62"/>
      <point x="265" y="41"/>
      <point x="206" y="27" type="curve"/>
      <point x="200" y="-3" type="line"/>
      <point x="263" y="0"/>
      <point x="308" y="0"/>
      <point x="346" y="0" type="curve"/>
      <point x="384" y="0"/>
      <point x="431" y="0"/>
      <point x="491" y="-3" type="curve"/>
      <point x="497" y="27" type="line"/>
      <point x="428" y="42"/>
      <point x="395" y="62"/>
      <point x="395" y="105" type="curve" smooth="yes"/>
      <point x="395" y="529" type="line" smooth="yes"/>
      <point x="395" y="596"/>
      <point x="411" y="597"/>
    </contour>
  </outline>
</glyph>
<glyph name="U" format="2">
  <advance width="681"/>
  <unicode hex="0055"/>
  <note>
U
</note>
  <outline>
    <contour>
      <point x="96" y="528" type="curve" smooth="yes"/>
      <point x="96" y="189" type="line" smooth="yes"/>
      <point x="96" y="57"/>
      <point x="180" y="-20"/>
      <point x="325" y="-20" type="curve" smooth="yes"/>
      <point x="434" y="-20"/>
      <point x="586" y="24"/>
      <point x="586" y="185" type="curve" smooth="yes"/>
      <point x="586" y="530" type="line" smooth="yes"/>
      <point x="586" y="564"/>
      <point x="612" y="584"/>
      <point x="645" y="590" type="curve"/>
      <point x="650" y="618" type="line"/>
      <point x="587" y="615"/>
      <point x="577" y="615"/>
      <point x="544" y="615" type="curve" smooth="yes"/>
      <point x="512" y="615"/>
      <point x="494" y="615"/>
      <point x="436" y="618" type="curve"/>
      <point x="432" y="590" type="line"/>
      <point x="522" y="569" type="line"/>
      <point x="522" y="190" type="line" smooth="yes"/>
      <point x="522" y="96"/>
      <point x="451" y="33"/>
      <point x="356" y="33" type="curve" smooth="yes"/>
      <point x="255" y="33"/>
      <point x="182" y="102"/>
      <point x="182" y="208" type="curve" smooth="yes"/>
      <point x="182" y="566" type="line"/>
      <point x="270" y="590" type="line"/>
      <point x="276" y="618" type="line"/>
      <point x="211" y="615"/>
      <point x="194" y="615"/>
      <point x="157" y="615" type="curve" smooth="yes"/>
      <point x="121" y="615"/>
      <point x="102" y="615"/>
      <point x="36" y="618" type="curve"/>
      <point x="33" y="590" type="line"/>
      <point x="58" y="585"/>
      <point x="96" y="564"/>
    </contour>
  </outline>
</glyph>
<glyph name="V" format="2">
  <advance width="741"/>
  <unicode hex="0056"/>
  <note>
V
</note>
  <outline>
    <contour>
      <point x="125" y="523" type="curve" smooth="yes"/>
      <point x="318" y="-8" type="line" smooth="yes"/>
      <point x="321" y="-16"/>
      <point x="391" y="-7"/>
      <point x="394" y="1" type="curve" smooth="yes"/>
      <point x="600" y="508" type="line" smooth="yes"/>
      <point x="624" y="567"/>
      <point x="641" y="603"/>
      <point x="699" y="634" type="curve"/>
      <point x="706" y="664" type="line"/>
      <point x="609" y="661"/>
      <point x="597" y="661"/>
      <point x="502" y="664" type="curve"/>
      <point x="497" y="634" type="line"/>
      <point x="566" y="609" type="line"/>
      <point x="376" y="121" type="line" smooth="yes"/>
      <point x="374" y="115"/>
      <point x="363" y="114"/>
      <point x="361" y="119" type="curve" smooth="yes"/>
      <point x="191" y="614" type="line"/>
      <point x="257" y="634" type="line"/>
      <point x="261" y="664" type="line"/>
      <point x="160" y="661"/>
      <point x="140" y="661"/>
      <point x="39" y="664" type="curve"/>
      <point x="35" y="634" type="line"/>
      <point x="73" y="626"/>
      <point x="94" y="608"/>
    </contour>
  </outline>
</glyph>
<glyph name="W" format="2">
  <advance width="999"/>
  <unicode hex="0057"/>
  <note>
W
</note>
  <outline>
    <contour>
      <point x="148" y="439" type="curve" smooth="yes"/>
      <point x="306" y="-17" type="line"/>
      <point x="310" y="-24"/>
      <point x="369" y="-16"/>
      <point x="372" y="-9" type="curve" smooth="yes"/>
      <point x="519" y="371" type="line"/>
      <point x="651" y="-17" type="line" smooth="yes"/>
      <point x="653" y="-24"/>
      <point x="715" y="-16"/>
      <point x="717" y="-8" type="curve" smooth="yes"/>
      <point x="865" y="475" type="line" smooth="yes"/>
      <point x="884" y="537"/>
      <point x="915" y="578"/>
      <point x="960" y="590" type="curve"/>
      <point x="966" y="618" type="line"/>
      <point x="878" y="615"/>
      <point x="830" y="615"/>
      <point x="739" y="618" type="curve"/>
      <point x="735" y="590" type="line"/>
      <point x="829" y="572" type="line"/>
      <point x="703" y="113" type="line" smooth="yes"/>
      <point x="701" y="107"/>
      <point x="693" y="106"/>
      <point x="691" y="111" type="curve" smooth="yes"/>
      <point x="552" y="573" type="line"/>
      <point x="633" y="589" type="line"/>
      <point x="640" y="618" type="line"/>
      <point x="544" y="615"/>
      <point x="481" y="615"/>
      <point x="385" y="618" type="curve"/>
      <point x="378" y="590" type="line"/>
      <point x="459" y="575" type="line"/>
      <point x="491" y="462" type="line"/>
      <point x="359" y="112" type="line" smooth="yes"/>
      <point x="357" y="107"/>
      <point x="350" y="106"/>
      <point x="348" y="111" type="curve" smooth="yes"/>
      <point x="196" y="573" type="line"/>
      <point x="279" y="590" type="line"/>
      <point x="285" y="618" type="line"/>
      <point x="191" y="615"/>
      <point x="131" y="615"/>
      <point x="37" y="618" type="curve"/>
      <point x="33" y="590" type="line"/>
      <point x="81" y="573"/>
      <point x="114" y="537"/>
    </contour>
  </outline>
</glyph>
<glyph name="X" format="2">
  <advance width="739"/>
  <unicode hex="0058"/>
  <note>
X
</note>
  <outline>
    <contour>
      <point x="170" y="561" type="curve" smooth="yes"/>
      <point x="317" y="326" type="line" smooth="yes"/>
      <point x="320" y="322"/>
      <point x="319" y="319"/>
      <point x="317" y="316" type="curve" smooth="yes"/>
      <point x="178" y="108" type="line" smooth="yes"/>
      <point x="143" y="55"/>
      <point x="88" y="34"/>
      <point x="42" y="27" type="curve"/>
      <point x="35" y="-3" type="line"/>
      <point x="96" y="0"/>
      <point x="120" y="0"/>
      <point x="162" y="0" type="curve" smooth="yes"/>
      <point x="204" y="0"/>
      <point x="232" y="0"/>
      <point x="300" y="-3" type="curve"/>
      <point x="307" y="27" type="line"/>
      <point x="213" y="50" type="line"/>
      <point x="350" y="258" type="line" smooth="yes"/>
      <point x="352" y="261"/>
      <point x="363" y="261"/>
      <point x="365" y="258" type="curve" smooth="yes"/>
      <point x="492" y="48" type="line"/>
      <point x="416" y="28" type="line"/>
      <point x="410" y="-3" type="line"/>
      <point x="480" y="0"/>
      <point x="504" y="0"/>
      <point x="548" y="0" type="curve" smooth="yes"/>
      <point x="592" y="0"/>
      <point x="616" y="0"/>
      <point x="687" y="-3" type="curve"/>
      <point x="693" y="28" type="line"/>
      <point x="640" y="40"/>
      <point x="597" y="54"/>
      <point x="567" y="102" type="curve" smooth="yes"/>
      <point x="420" y="338" type="line" smooth="yes"/>
      <point x="417" y="342"/>
      <point x="417" y="342"/>
      <point x="420" y="346" type="curve" smooth="yes"/>
      <point x="559" y="558" type="line" smooth="yes"/>
      <point x="593" y="610"/>
      <point x="626" y="623"/>
      <point x="696" y="634" type="curve"/>
      <point x="704" y="664" type="line"/>
      <point x="636" y="661"/>
      <point x="613" y="661"/>
      <point x="570" y="661" type="curve" smooth="yes"/>
      <point x="527" y="661"/>
      <point x="504" y="661"/>
      <point x="436" y="664" type="curve"/>
      <point x="430" y="634" type="line"/>
      <point x="522" y="610" type="line"/>
      <point x="385" y="405" type="line" smooth="yes"/>
      <point x="382" y="400"/>
      <point x="375" y="400"/>
      <point x="372" y="405" type="curve" smooth="yes"/>
      <point x="240" y="615" type="line"/>
      <point x="317" y="634" type="line"/>
      <point x="322" y="664" type="line"/>
      <point x="252" y="661"/>
      <point x="229" y="661"/>
      <point x="186" y="661" type="curve" smooth="yes"/>
      <point x="143" y="661"/>
      <point x="121" y="661"/>
      <point x="50" y="664" type="curve"/>
      <point x="44" y="634" type="line"/>
      <point x="108" y="617"/>
      <point x="140" y="609"/>
    </contour>
  </outline>
</glyph>
<glyph name="Y" format="2">
  <advance width="730"/>
  <unicode hex="0059"/>
  <note>
Y
</note>
  <outline>
    <contour>
      <point x="157" y="550" type="curve" smooth="yes"/>
      <point x="287" y="302" type="line" smooth="yes"/>
      <point x="291" y="294"/>
      <point x="302" y="277"/>
      <point x="302" y="261" type="curve" smooth="yes"/>
      <point x="302" y="103" type="line" smooth="yes"/>
      <point x="302" y="56"/>
      <point x="258" y="39"/>
      <point x="208" y="27" type="curve"/>
      <point x="204" y="-3" type="line"/>
      <point x="274" y="0"/>
      <point x="300" y="0"/>
      <point x="346" y="0" type="curve" smooth="yes"/>
      <point x="392" y="0"/>
      <point x="418" y="0"/>
      <point x="487" y="-3" type="curve"/>
      <point x="492" y="27" type="line"/>
      <point x="435" y="39"/>
      <point x="395" y="52"/>
      <point x="395" y="103" type="curve" smooth="yes"/>
      <point x="395" y="265" type="line" smooth="yes"/>
      <point x="395" y="274"/>
      <point x="394" y="294"/>
      <point x="399" y="302" type="curve" smooth="yes"/>
      <point x="558" y="548" type="line" smooth="yes"/>
      <point x="590" y="598"/>
      <point x="618" y="616"/>
      <point x="688" y="634" type="curve"/>
      <point x="695" y="664" type="line"/>
      <point x="598" y="661"/>
      <point x="541" y="661"/>
      <point x="444" y="664" type="curve"/>
      <point x="437" y="634" type="line"/>
      <point x="520" y="613" type="line"/>
      <point x="367" y="367" type="line" smooth="yes"/>
      <point x="365" y="363"/>
      <point x="354" y="363"/>
      <point x="352" y="367" type="curve" smooth="yes"/>
      <point x="222" y="615" type="line"/>
      <point x="293" y="634" type="line"/>
      <point x="299" y="664" type="line"/>
      <point x="239" y="661"/>
      <point x="209" y="661"/>
      <point x="170" y="661" type="curve" smooth="yes"/>
      <point x="131" y="661"/>
      <point x="102" y="661"/>
      <point x="41" y="664" type="curve"/>
      <point x="35" y="634" type="line"/>
      <point x="95" y="619"/>
      <point x="132" y="598"/>
    </contour>
  </outline>
</glyph>
<glyph name="Z" format="2">
  <advance width="629"/>
  <unicode hex="005A"/>
  <note>
Z
</note>
  <outline>
    <contour>
      <point x="29" y="12" type="curve" smooth="yes"/>
      <point x="23" y="4"/>
      <point x="26" y="0"/>
      <point x="37" y="0" type="curve" smooth="yes"/>
      <point x="562" y="0" type="line"/>
      <point x="604" y="198" type="line"/>
      <point x="603" y="210"/>
      <point x="568" y="217"/>
      <point x="559" y="211" type="curve"/>
      <point x="517" y="70"/>
      <point x="485" y="56"/>
      <point x="358" y="56" type="curve" smooth="yes"/>
      <point x="190" y="56" type="line" smooth="yes"/>
      <point x="178" y="56"/>
      <point x="175" y="61"/>
      <point x="182" y="71" type="curve" smooth="yes"/>
      <point x="580" y="649" type="line" smooth="yes"/>
      <point x="584" y="655"/>
      <point x="581" y="661"/>
      <point x="571" y="661" type="curve" smooth="yes"/>
      <point x="303" y="661" type="line" smooth="yes"/>
      <point x="221" y="661"/>
      <point x="161" y="661"/>
      <point x="61" y="681" type="curve"/>
      <point x="31" y="484" type="line"/>
      <point x="37" y="475"/>
      <point x="73" y="472"/>
      <point x="80" y="478" type="curve"/>
      <point x="106" y="599"/>
      <point x="149" y="605"/>
      <point x="225" y="605" type="curve" smooth="yes"/>
      <point x="426" y="605" type="line" smooth="yes"/>
      <point x="438" y="605"/>
      <point x="440" y="603"/>
      <point x="433" y="593" type="curve" smooth="yes"/>
      <point x="304" y="395"/>
      <point x="167" y="204"/>
    </contour>
  </outline>
</glyph>
<glyph name="bracketleft" format="2">
  <advance width="320"/>
  <unicode hex="005B"/>
  <note>
bracketleft
</note>
  <outline>
    <contour>
      <point x="161" y="740" type="curve" smooth="yes"/>
      <point x="292" y="734" type="line"/>
      <point x="292" y="754"/>
      <point x="291" y="775"/>
      <point x="285" y="795" type="curve"/>
      <point x="272" y="796"/>
      <point x="221" y="797"/>
      <point x="170" y="797" type="curve" smooth="yes"/>
      <point x="119" y="797"/>
      <point x="67" y="796"/>
      <point x="52" y="795" type="curve"/>
      <point x="52" y="-185" type="line"/>
      <point x="68" y="-187"/>
      <point x="126" y="-188"/>
      <point x="177" y="-188" type="curve" smooth="yes"/>
      <point x="228" y="-188"/>
      <point x="273" y="-187"/>
      <point x="285" y="-186" type="curve"/>
      <point x="291" y="-166"/>
      <point x="292" y="-145"/>
      <point x="292" y="-125" type="curve"/>
      <point x="161" y="-131" type="line" smooth="yes"/>
      <point x="111" y="-133"/>
      <point x="120" y="-91"/>
      <point x="120" y="-55" type="curve" smooth="yes"/>
      <point x="120" y="662" type="line" smooth="yes"/>
      <point x="120" y="698"/>
      <point x="111" y="742"/>
    </contour>
  </outline>
</glyph>
<glyph name="backslash" format="2">
  <advance width="410"/>
  <unicode hex="005C"/>
  <note>
backslash
</note>
  <outline>
    <contour>
      <point x="387" y="-84" type="curve"/>
      <point x="345" y="-7"/>
      <point x="114" y="654"/>
      <point x="97" y="713" type="curve"/>
      <point x="82" y="714"/>
      <point x="38" y="701"/>
      <point x="28" y="693" type="curve"/>
      <point x="61" y="634"/>
      <point x="302" y="-35"/>
      <point x="321" y="-99" type="curve"/>
      <point x="338" y="-101"/>
      <point x="376" y="-92"/>
    </contour>
  </outline>
</glyph>
<glyph name="bracketright" format="2">
  <advance width="303"/>
  <unicode hex="005D"/>
  <note>
bracketright
</note>
  <outline>
    <contour>
      <point x="25" y="683" type="curve"/>
      <point x="147" y="689" type="line" smooth="yes"/>
      <point x="194" y="691"/>
      <point x="185" y="650"/>
      <point x="185" y="616" type="curve" smooth="yes"/>
      <point x="185" y="-51" type="line" smooth="yes"/>
      <point x="185" y="-85"/>
      <point x="194" y="-124"/>
      <point x="147" y="-122" type="curve" smooth="yes"/>
      <point x="25" y="-116" type="line"/>
      <point x="25" y="-135"/>
      <point x="26" y="-155"/>
      <point x="32" y="-173" type="curve"/>
      <point x="43" y="-174"/>
      <point x="85" y="-175"/>
      <point x="132" y="-175" type="curve" smooth="yes"/>
      <point x="180" y="-175"/>
      <point x="234" y="-174"/>
      <point x="249" y="-172" type="curve"/>
      <point x="249" y="740" type="line"/>
      <point x="235" y="741"/>
      <point x="186" y="742"/>
      <point x="139" y="742" type="curve" smooth="yes"/>
      <point x="91" y="742"/>
      <point x="44" y="741"/>
      <point x="32" y="740" type="curve"/>
      <point x="26" y="722"/>
      <point x="25" y="702"/>
    </contour>
  </outline>
</glyph>
<glyph name="asciicircum" format="2">
  <advance width="507"/>
  <unicode hex="005E"/>
  <note>
asciicircum
</note>
  <outline>
    <contour>
      <point x="291" y="600" type="curve"/>
      <point x="270" y="601"/>
      <point x="230" y="595"/>
      <point x="213" y="587" type="curve"/>
      <point x="188" y="528"/>
      <point x="91" y="307"/>
      <point x="59" y="250" type="curve"/>
      <point x="73" y="242"/>
      <point x="96" y="239"/>
      <point x="116" y="241" type="curve"/>
      <point x="138" y="303"/>
      <point x="194" y="425"/>
      <point x="242" y="530" type="curve"/>
      <point x="244" y="531"/>
      <point x="246" y="531"/>
      <point x="248" y="531" type="curve"/>
      <point x="289" y="432"/>
      <point x="356" y="281"/>
      <point x="371" y="235" type="curve"/>
      <point x="395" y="233"/>
      <point x="435" y="240"/>
      <point x="448" y="250" type="curve"/>
      <point x="413" y="303"/>
      <point x="314" y="535"/>
    </contour>
  </outline>
</glyph>
<glyph name="underscore" format="2">
  <advance width="572"/>
  <unicode hex="005F"/>
  <note>
underscore
</note>
  <outline>
    <contour>
      <point x="-13" y="0" type="curve"/>
      <point x="569" y="0" type="line"/>
      <point x="576" y="20"/>
      <point x="579" y="34"/>
      <point x="579" y="54" type="curve"/>
      <point x="-3" y="54" type="line"/>
      <point x="-10" y="34"/>
      <point x="-13" y="20"/>
    </contour>
  </outline>
</glyph>
<glyph name="grave" format="2">
  <advance width="414"/>
  <unicode hex="0060"/>
  <note>
grave
</note>
  <outline>
    <contour>
      <point x="93" y="590" type="curve"/>
      <point x="126" y="542"/>
      <point x="191" y="481"/>
      <point x="243" y="443" type="curve"/>
      <point x="252" y="443"/>
      <point x="271" y="454"/>
      <point x="276" y="466" type="curve"/>
      <point x="231" y="506"/>
      <point x="194" y="566"/>
      <point x="181" y="614" type="curve"/>
      <point x="155" y="614"/>
      <point x="107" y="600"/>
    </contour>
  </outline>
</glyph>
<glyph name="a" format="2">
  <advance width="401"/>
  <unicode hex="0061"/>
  <note>
a
</note>
  <outline>
    <contour>
      <point x="249" y="196" type="curve"/>
      <point x="249" y="88" type="line"/>
      <point x="216" y="66"/>
      <point x="178" y="59"/>
      <point x="138" y="59" type="curve"/>
      <point x="118" y="73"/>
      <point x="106" y="93"/>
      <point x="106" y="115" type="curve" smooth="yes"/>
      <point x="106" y="121"/>
      <point x="106" y="138"/>
      <point x="109" y="147" type="curve"/>
      <point x="133" y="166"/>
      <point x="201" y="185"/>
    </contour>
    <contour>
      <point x="183" y="351" type="curve" smooth="yes"/>
      <point x="227" y="351"/>
      <point x="249" y="316"/>
      <point x="249" y="229" type="curve"/>
      <point x="207" y="223"/>
      <point x="84" y="188"/>
      <point x="46" y="166" type="curve"/>
      <point x="31" y="141"/>
      <point x="28" y="112"/>
      <point x="28" y="95" type="curve" smooth="yes"/>
      <point x="28" y="34"/>
      <point x="65" y="2"/>
      <point x="119" y="-10" type="curve"/>
      <point x="250" y="47" type="line"/>
      <point x="250" y="23"/>
      <point x="253" y="3"/>
      <point x="259" y="-10" type="curve"/>
      <point x="290" y="2"/>
      <point x="355" y="11"/>
      <point x="391" y="15" type="curve"/>
      <point x="396" y="48" type="line"/>
      <point x="389" y="47"/>
      <point x="381" y="47"/>
      <point x="380" y="47" type="curve" smooth="yes"/>
      <point x="347" y="47"/>
      <point x="322" y="61"/>
      <point x="322" y="110" type="curve" smooth="yes"/>
      <point x="322" y="263" type="line" smooth="yes"/>
      <point x="322" y="345"/>
      <point x="290" y="397"/>
      <point x="219" y="397" type="curve" smooth="yes"/>
      <point x="174" y="397"/>
      <point x="103" y="376"/>
      <point x="51" y="353" type="curve"/>
      <point x="51" y="255" type="line"/>
      <point x="57" y="252"/>
      <point x="66" y="251"/>
      <point x="74" y="251" type="curve" smooth="yes"/>
      <point x="82" y="251"/>
      <point x="91" y="252"/>
      <point x="96" y="255" type="curve"/>
      <point x="119" y="337" type="line"/>
      <point x="140" y="346"/>
      <point x="165" y="351"/>
    </contour>
  </outline>
</glyph>
<glyph name="b" format="2">
  <advance width="466"/>
  <unicode hex="0062"/>
  <note>
b
</note>
  <outline>
    <contour>
      <point x="59" y="33" type="curve"/>
      <point x="92" y="6"/>
      <point x="143" y="-10"/>
      <point x="194" y="-10" type="curve" smooth="yes"/>
      <point x="324" y="-10"/>
      <point x="430" y="94"/>
      <point x="430" y="223" type="curve" smooth="yes"/>
      <point x="430" y="341"/>
      <point x="343" y="397"/>
      <point x="276" y="397" type="curve" smooth="yes"/>
      <point x="266" y="397"/>
      <point x="174" y="361"/>
      <point x="144" y="348" type="curve"/>
      <point x="144" y="452" type="line" smooth="yes"/>
      <point x="144" y="498"/>
      <point x="147" y="624"/>
      <point x="159" y="675" type="curve"/>
      <point x="125" y="675"/>
      <point x="26" y="651"/>
      <point x="-4" y="636" type="curve"/>
      <point x="-8" y="611" type="line"/>
      <point x="-3" y="612"/>
      <point x="2" y="612"/>
      <point x="7" y="612" type="curve" smooth="yes"/>
      <point x="53" y="612"/>
      <point x="63" y="598"/>
      <point x="67" y="552" type="curve" smooth="yes"/>
      <point x="70" y="520"/>
      <point x="71" y="449"/>
      <point x="71" y="354" type="curve" smooth="yes"/>
      <point x="71" y="191"/>
      <point x="68" y="87"/>
    </contour>
    <contour>
      <point x="228" y="37" type="curve" smooth="yes"/>
      <point x="189" y="37"/>
      <point x="157" y="54"/>
      <point x="148" y="96" type="curve" smooth="yes"/>
      <point x="144" y="114"/>
      <point x="144" y="137"/>
      <point x="144" y="193" type="curve" smooth="yes"/>
      <point x="144" y="309" type="line"/>
      <point x="196" y="332"/>
      <point x="229" y="342"/>
      <point x="247" y="342" type="curve" smooth="yes"/>
      <point x="294" y="342"/>
      <point x="352" y="272"/>
      <point x="352" y="187" type="curve" smooth="yes"/>
      <point x="352" y="117"/>
      <point x="314" y="37"/>
    </contour>
  </outline>
</glyph>
<glyph name="c" format="2">
  <advance width="416"/>
  <unicode hex="0063"/>
  <note>
c
</note>
  <outline>
    <contour>
      <point x="390" y="76" type="curve"/>
      <point x="391" y="83"/>
      <point x="382" y="109"/>
      <point x="374" y="112" type="curve"/>
      <point x="339" y="74"/>
      <point x="307" y="60"/>
      <point x="244" y="60" type="curve" smooth="yes"/>
      <point x="167" y="60"/>
      <point x="120" y="119"/>
      <point x="120" y="216" type="curve" smooth="yes"/>
      <point x="120" y="319"/>
      <point x="173" y="369"/>
      <point x="247" y="369" type="curve" smooth="yes"/>
      <point x="299" y="369"/>
      <point x="334" y="345"/>
      <point x="350" y="288" type="curve"/>
      <point x="353" y="287"/>
      <point x="358" y="286"/>
      <point x="363" y="286" type="curve" smooth="yes"/>
      <point x="368" y="286"/>
      <point x="374" y="287"/>
      <point x="377" y="288" type="curve"/>
      <point x="387" y="410" type="line"/>
      <point x="375" y="410"/>
      <point x="362" y="410"/>
      <point x="345" y="415" type="curve" smooth="yes"/>
      <point x="325" y="421"/>
      <point x="286" y="426"/>
      <point x="259" y="426" type="curve" smooth="yes"/>
      <point x="155" y="426"/>
      <point x="35" y="352"/>
      <point x="35" y="202" type="curve" smooth="yes"/>
      <point x="35" y="71"/>
      <point x="127" y="-11"/>
      <point x="217" y="-11" type="curve" smooth="yes"/>
      <point x="266" y="-11"/>
      <point x="338" y="13"/>
    </contour>
  </outline>
</glyph>
<glyph name="d" format="2">
  <advance width="486"/>
  <unicode hex="0064"/>
  <note>
d
</note>
  <outline>
    <contour>
      <point x="333" y="489" type="curve"/>
      <point x="333" y="383" type="line"/>
      <point x="316" y="388"/>
      <point x="284" y="396"/>
      <point x="249" y="396" type="curve" smooth="yes"/>
      <point x="128" y="396"/>
      <point x="33" y="296"/>
      <point x="33" y="167" type="curve" smooth="yes"/>
      <point x="33" y="46"/>
      <point x="116" y="-19"/>
      <point x="194" y="-19" type="curve" smooth="yes"/>
      <point x="200" y="-19"/>
      <point x="312" y="22"/>
      <point x="333" y="34" type="curve"/>
      <point x="334" y="22"/>
      <point x="337" y="1"/>
      <point x="344" y="-14" type="curve"/>
      <point x="383" y="0"/>
      <point x="438" y="9"/>
      <point x="475" y="11" type="curve"/>
      <point x="479" y="45" type="line"/>
      <point x="472" y="44"/>
      <point x="464" y="44"/>
      <point x="464" y="44" type="curve" smooth="yes"/>
      <point x="412" y="44"/>
      <point x="406" y="66"/>
      <point x="406" y="107" type="curve"/>
      <point x="406" y="524" type="line"/>
      <point x="406" y="545"/>
      <point x="409" y="625"/>
      <point x="421" y="675" type="curve"/>
      <point x="387" y="675"/>
      <point x="290" y="651"/>
      <point x="260" y="636" type="curve"/>
      <point x="256" y="611" type="line"/>
      <point x="261" y="612"/>
      <point x="266" y="612"/>
      <point x="271" y="612" type="curve" smooth="yes"/>
      <point x="302" y="612"/>
      <point x="320" y="603"/>
      <point x="328" y="574" type="curve" smooth="yes"/>
      <point x="333" y="555"/>
      <point x="333" y="524"/>
    </contour>
    <contour>
      <point x="219" y="41" type="curve" smooth="yes"/>
      <point x="185" y="41"/>
      <point x="116" y="83"/>
      <point x="116" y="190" type="curve" smooth="yes"/>
      <point x="116" y="279"/>
      <point x="161" y="352"/>
      <point x="250" y="352" type="curve" smooth="yes"/>
      <point x="269" y="352"/>
      <point x="292" y="349"/>
      <point x="333" y="337" type="curve"/>
      <point x="333" y="78" type="line"/>
      <point x="311" y="64"/>
      <point x="243" y="41"/>
    </contour>
  </outline>
</glyph>
<glyph name="e" format="2">
  <advance width="414"/>
  <unicode hex="0065"/>
  <note>
e
</note>
  <outline>
    <contour>
      <point x="389" y="73" type="curve"/>
      <point x="389" y="81"/>
      <point x="385" y="97"/>
      <point x="378" y="101" type="curve"/>
      <point x="351" y="77"/>
      <point x="317" y="57"/>
      <point x="268" y="57" type="curve" smooth="yes"/>
      <point x="183" y="57"/>
      <point x="120" y="119"/>
      <point x="113" y="207" type="curve"/>
      <point x="384" y="223" type="line"/>
      <point x="387" y="232"/>
      <point x="388" y="244"/>
      <point x="388" y="255" type="curve" smooth="yes"/>
      <point x="388" y="335"/>
      <point x="336" y="426"/>
      <point x="234" y="426" type="curve" smooth="yes"/>
      <point x="146" y="426"/>
      <point x="35" y="358"/>
      <point x="35" y="206" type="curve" smooth="yes"/>
      <point x="35" y="72"/>
      <point x="122" y="-11"/>
      <point x="216" y="-11" type="curve" smooth="yes"/>
      <point x="268" y="-11"/>
      <point x="350" y="14"/>
    </contour>
    <contour>
      <point x="303" y="262" type="curve"/>
      <point x="113" y="245" type="line"/>
      <point x="113" y="305"/>
      <point x="143" y="374"/>
      <point x="207" y="374" type="curve" smooth="yes"/>
      <point x="263" y="374"/>
      <point x="303" y="321"/>
    </contour>
  </outline>
</glyph>
<glyph name="f" format="2">
  <advance width="344"/>
  <unicode hex="0066"/>
  <note>
f
</note>
  <outline>
    <contour>
      <point x="273" y="27" type="line"/>
      <point x="185" y="62" type="line"/>
      <point x="181" y="115"/>
      <point x="181" y="198"/>
      <point x="181" y="303" type="curve" smooth="yes"/>
      <point x="181" y="358" type="line"/>
      <point x="316" y="358" type="line"/>
      <point x="323" y="373"/>
      <point x="326" y="395"/>
      <point x="326" y="416" type="curve" smooth="yes"/>
      <point x="326" y="417"/>
      <point x="326" y="421"/>
      <point x="325" y="424" type="curve"/>
      <point x="181" y="414" type="line"/>
      <point x="181" y="472" type="line" smooth="yes"/>
      <point x="181" y="564"/>
      <point x="207" y="656"/>
      <point x="277" y="656" type="curve" smooth="yes"/>
      <point x="304" y="656"/>
      <point x="349" y="642"/>
      <point x="393" y="605" type="curve"/>
      <point x="415" y="630"/>
      <point x="427" y="659"/>
      <point x="427" y="690" type="curve"/>
      <point x="396" y="703"/>
      <point x="349" y="718"/>
      <point x="302" y="718" type="curve"/>
      <point x="176" y="695"/>
      <point x="102" y="578"/>
      <point x="102" y="455" type="curve" smooth="yes"/>
      <point x="102" y="408" type="line"/>
      <point x="35" y="403" type="line"/>
      <point x="33" y="397"/>
      <point x="32" y="387"/>
      <point x="32" y="376" type="curve" smooth="yes"/>
      <point x="32" y="364"/>
      <point x="33" y="361"/>
      <point x="34" y="358" type="curve"/>
      <point x="102" y="358" type="line"/>
      <point x="102" y="248"/>
      <point x="100" y="156"/>
      <point x="96" y="118" type="curve" smooth="yes"/>
      <point x="91" y="75"/>
      <point x="77" y="44"/>
      <point x="29" y="27" type="curve"/>
      <point x="25" y="-3" type="line"/>
      <point x="75" y="0"/>
      <point x="107" y="0"/>
      <point x="140" y="0" type="curve" smooth="yes"/>
      <point x="173" y="0"/>
      <point x="215" y="0"/>
      <point x="267" y="-3" type="curve"/>
    </contour>
  </outline>
</glyph>
<glyph name="g" format="2">
  <advance width="489"/>
  <unicode hex="0067"/>
  <note>
g
</note>
  <outline>
    <contour>
      <point x="225" y="426" type="curve" smooth="yes"/>
      <point x="124" y="426"/>
      <point x="40" y="362"/>
      <point x="40" y="254" type="curve" smooth="yes"/>
      <point x="40" y="182"/>
      <point x="79" y="133"/>
      <point x="141" y="112" type="curve"/>
      <point x="70" y="69" type="line"/>
      <point x="70" y="-2" type="line"/>
      <point x="140" y="-16" type="line"/>
      <point x="61" y="-65" type="line" smooth="yes"/>
      <point x="34" y="-82"/>
      <point x="25" y="-107"/>
      <point x="25" y="-137" type="curve" smooth="yes"/>
      <point x="25" y="-234"/>
      <point x="123" y="-274"/>
      <point x="197" y="-274" type="curve" smooth="yes"/>
      <point x="308" y="-274"/>
      <point x="446" y="-182"/>
      <point x="446" y="-77" type="curve" smooth="yes"/>
      <point x="446" y="-13"/>
      <point x="395" y="19"/>
      <point x="359" y="25" type="curve" smooth="yes"/>
      <point x="147" y="60" type="line"/>
      <point x="176" y="106" type="line"/>
      <point x="292" y="106"/>
      <point x="376" y="176"/>
      <point x="376" y="283" type="curve" smooth="yes"/>
      <point x="376" y="304"/>
      <point x="373" y="332"/>
      <point x="368" y="346" type="curve"/>
      <point x="391" y="353"/>
      <point x="410" y="356"/>
      <point x="430" y="356" type="curve" smooth="yes"/>
      <point x="441" y="356"/>
      <point x="450" y="356"/>
      <point x="463" y="354" type="curve"/>
      <point x="464" y="358"/>
      <point x="464" y="363"/>
      <point x="464" y="369" type="curve" smooth="yes"/>
      <point x="464" y="387"/>
      <point x="461" y="405"/>
      <point x="453" y="416" type="curve"/>
      <point x="415" y="414"/>
      <point x="378" y="404"/>
      <point x="349" y="387" type="curve"/>
      <point x="313" y="413"/>
      <point x="271" y="426"/>
    </contour>
    <contour>
      <point x="202" y="382" type="curve" smooth="yes"/>
      <point x="262" y="382"/>
      <point x="293" y="333"/>
      <point x="293" y="260" type="curve" smooth="yes"/>
      <point x="293" y="195"/>
      <point x="269" y="157"/>
      <point x="218" y="157" type="curve" smooth="yes"/>
      <point x="155" y="157"/>
      <point x="123" y="216"/>
      <point x="123" y="283" type="curve" smooth="yes"/>
      <point x="123" y="334"/>
      <point x="142" y="382"/>
    </contour>
    <contour>
      <point x="232" y="-214" type="curve" smooth="yes"/>
      <point x="169" y="-214"/>
      <point x="103" y="-186"/>
      <point x="103" y="-107" type="curve" smooth="yes"/>
      <point x="103" y="-89"/>
      <point x="106" y="-74"/>
      <point x="115" y="-68" type="curve" smooth="yes"/>
      <point x="189" y="-22" type="line"/>
      <point x="317" y="-45" type="line" smooth="yes"/>
      <point x="351" y="-51"/>
      <point x="375" y="-74"/>
      <point x="375" y="-110" type="curve" smooth="yes"/>
      <point x="375" y="-166"/>
      <point x="315" y="-214"/>
    </contour>
  </outline>
</glyph>
<glyph name="h" format="2">
  <advance width="554"/>
  <unicode hex="0068"/>
  <note>
h
</note>
  <outline>
    <contour>
      <point x="241" y="27" type="line"/>
      <point x="183" y="52" type="line"/>
      <point x="183" y="309" type="line"/>
      <point x="211" y="324"/>
      <point x="288" y="361"/>
      <point x="316" y="361" type="curve" smooth="yes"/>
      <point x="346" y="361"/>
      <point x="382" y="318"/>
      <point x="382" y="265" type="curve" smooth="yes"/>
      <point x="382" y="46" type="line"/>
      <point x="325" y="27" type="line"/>
      <point x="320" y="-3" type="line"/>
      <point x="353" y="0"/>
      <point x="399" y="0"/>
      <point x="423" y="0" type="curve" smooth="yes"/>
      <point x="447" y="0"/>
      <point x="477" y="0"/>
      <point x="523" y="-3" type="curve"/>
      <point x="529" y="27" type="line"/>
      <point x="478" y="36"/>
      <point x="468" y="59"/>
      <point x="464" y="94" type="curve" smooth="yes"/>
      <point x="461" y="125"/>
      <point x="461" y="179"/>
      <point x="461" y="233" type="curve" smooth="yes"/>
      <point x="461" y="333"/>
      <point x="445" y="426"/>
      <point x="347" y="426" type="curve" smooth="yes"/>
      <point x="283" y="426"/>
      <point x="231" y="387"/>
      <point x="183" y="356" type="curve"/>
      <point x="183" y="378" type="line" smooth="yes"/>
      <point x="183" y="486"/>
      <point x="179" y="618"/>
      <point x="196" y="725" type="curve"/>
      <point x="159" y="725"/>
      <point x="56" y="699"/>
      <point x="24" y="683" type="curve"/>
      <point x="19" y="656" type="line"/>
      <point x="25" y="657"/>
      <point x="30" y="657"/>
      <point x="35" y="657" type="curve" smooth="yes"/>
      <point x="80" y="657"/>
      <point x="97" y="643"/>
      <point x="101" y="592" type="curve" smooth="yes"/>
      <point x="103" y="561"/>
      <point x="104" y="461"/>
      <point x="104" y="397" type="curve" smooth="yes"/>
      <point x="104" y="135" type="line" smooth="yes"/>
      <point x="104" y="77"/>
      <point x="82" y="45"/>
      <point x="29" y="27" type="curve"/>
      <point x="25" y="-3" type="line"/>
      <point x="72" y="0"/>
      <point x="110" y="0"/>
      <point x="137" y="0" type="curve" smooth="yes"/>
      <point x="164" y="0"/>
      <point x="188" y="0"/>
      <point x="237" y="-3" type="curve"/>
    </contour>
  </outline>
</glyph>
<glyph name="i" format="2">
  <advance width="267"/>
  <unicode hex="0069"/>
  <note>
i
</note>
  <outline>
    <contour>
      <point x="172" y="575" type="curve"/>
      <point x="155" y="596"/>
      <point x="124" y="612"/>
      <point x="98" y="615" type="curve"/>
      <point x="75" y="596"/>
      <point x="60" y="567"/>
      <point x="54" y="536" type="curve"/>
      <point x="69" y="518"/>
      <point x="99" y="503"/>
      <point x="129" y="497" type="curve"/>
      <point x="148" y="513"/>
      <point x="168" y="546"/>
    </contour>
    <contour>
      <point x="244" y="25" type="line"/>
      <point x="167" y="52" type="line"/>
      <point x="167" y="93" type="line" smooth="yes"/>
      <point x="167" y="188"/>
      <point x="162" y="305"/>
      <point x="174" y="399" type="curve"/>
      <point x="142" y="399"/>
      <point x="45" y="381"/>
      <point x="25" y="371" type="curve"/>
      <point x="20" y="339" type="line"/>
      <point x="24" y="340"/>
      <point x="29" y="340"/>
      <point x="30" y="340" type="curve" smooth="yes"/>
      <point x="70" y="340"/>
      <point x="93" y="317"/>
      <point x="93" y="273" type="curve" smooth="yes"/>
      <point x="93" y="115" type="line" smooth="yes"/>
      <point x="93" y="78"/>
      <point x="75" y="44"/>
      <point x="29" y="25" type="curve"/>
      <point x="23" y="-3" type="line"/>
      <point x="66" y="0"/>
      <point x="102" y="0"/>
      <point x="130" y="0" type="curve" smooth="yes"/>
      <point x="159" y="0"/>
      <point x="192" y="0"/>
      <point x="238" y="-3" type="curve"/>
    </contour>
  </outline>
</glyph>
<glyph name="j" format="2">
  <advance width="230"/>
  <unicode hex="006A"/>
  <note>
j
</note>
  <outline>
    <contour>
      <point x="-40" y="-260" type="curve"/>
      <point x="-36" y="-275"/>
      <point x="-22" y="-292"/>
      <point x="-6" y="-296" type="curve"/>
      <point x="147" y="-222"/>
      <point x="176" y="-93"/>
      <point x="176" y="-19" type="curve" smooth="yes"/>
      <point x="176" y="249" type="line" smooth="yes"/>
      <point x="176" y="320"/>
      <point x="176" y="393"/>
      <point x="180" y="429" type="curve"/>
      <point x="147" y="427"/>
      <point x="47" y="408"/>
      <point x="27" y="400" type="curve"/>
      <point x="21" y="364" type="line"/>
      <point x="26" y="365"/>
      <point x="31" y="365"/>
      <point x="31" y="365" type="curve"/>
      <point x="69" y="365"/>
      <point x="90" y="339"/>
      <point x="93" y="291" type="curve" smooth="yes"/>
      <point x="95" y="263"/>
      <point x="97" y="73"/>
      <point x="97" y="10" type="curve" smooth="yes"/>
      <point x="97" y="-196"/>
      <point x="30" y="-240"/>
    </contour>
    <contour>
      <point x="178" y="618" type="curve"/>
      <point x="159" y="640"/>
      <point x="126" y="657"/>
      <point x="98" y="661" type="curve"/>
      <point x="74" y="640"/>
      <point x="57" y="609"/>
      <point x="51" y="576" type="curve"/>
      <point x="67" y="556"/>
      <point x="99" y="540"/>
      <point x="132" y="534" type="curve"/>
      <point x="152" y="551"/>
      <point x="173" y="587"/>
    </contour>
  </outline>
</glyph>
<glyph name="k" format="2">
  <advance width="487"/>
  <unicode hex="006B"/>
  <note>
k
</note>
  <outline>
    <contour>
      <point x="216" y="25" type="line"/>
      <point x="167" y="43" type="line"/>
      <point x="167" y="162" type="line"/>
      <point x="219" y="205" type="line"/>
      <point x="230" y="162"/>
      <point x="290" y="26"/>
      <point x="356" y="-9" type="curve"/>
      <point x="382" y="-3"/>
      <point x="431" y="0"/>
      <point x="463" y="0" type="curve"/>
      <point x="471" y="30" type="line"/>
      <point x="384" y="40"/>
      <point x="321" y="135"/>
      <point x="289" y="195" type="curve" smooth="yes"/>
      <point x="264" y="241" type="line"/>
      <point x="299" y="277"/>
      <point x="373" y="347"/>
      <point x="416" y="360" type="curve" smooth="yes"/>
      <point x="433" y="365" type="line"/>
      <point x="441" y="395" type="line"/>
      <point x="406" y="392"/>
      <point x="379" y="392"/>
      <point x="342" y="392" type="curve" smooth="yes"/>
      <point x="305" y="392"/>
      <point x="296" y="392"/>
      <point x="255" y="395" type="curve"/>
      <point x="248" y="365" type="line"/>
      <point x="297" y="353" type="line"/>
      <point x="276" y="309"/>
      <point x="190" y="237"/>
      <point x="167" y="221" type="curve"/>
      <point x="167" y="371" type="line" smooth="yes"/>
      <point x="167" y="467"/>
      <point x="176" y="586"/>
      <point x="192" y="641" type="curve"/>
      <point x="160" y="652"/>
      <point x="61" y="660"/>
      <point x="24" y="654" type="curve"/>
      <point x="19" y="625" type="line"/>
      <point x="73" y="611"/>
      <point x="94" y="591"/>
      <point x="94" y="521" type="curve"/>
      <point x="94" y="117" type="line"/>
      <point x="94" y="60"/>
      <point x="79" y="39"/>
      <point x="29" y="25" type="curve"/>
      <point x="23" y="-3" type="line"/>
      <point x="52" y="0"/>
      <point x="89" y="0"/>
      <point x="120" y="0" type="curve" smooth="yes"/>
      <point x="148" y="0"/>
      <point x="173" y="0"/>
      <point x="210" y="-3" type="curve"/>
    </contour>
  </outline>
</glyph>
<glyph name="l" format="2">
  <advance width="293"/>
  <unicode hex="006C"/>
  <note>
l
</note>
  <outline>
    <contour>
      <point x="273" y="27" type="line"/>
      <point x="189" y="56" type="line"/>
      <point x="188" y="103"/>
      <point x="187" y="181"/>
      <point x="187" y="273" type="curve" smooth="yes"/>
      <point x="187" y="405" type="line" smooth="yes"/>
      <point x="187" y="528"/>
      <point x="190" y="662"/>
      <point x="203" y="715" type="curve"/>
      <point x="169" y="718"/>
      <point x="56" y="695"/>
      <point x="25" y="674" type="curve"/>
      <point x="21" y="646" type="line"/>
      <point x="27" y="647"/>
      <point x="33" y="647"/>
      <point x="38" y="647" type="curve" smooth="yes"/>
      <point x="83" y="647"/>
      <point x="97" y="636"/>
      <point x="103" y="582" type="curve" smooth="yes"/>
      <point x="106" y="553"/>
      <point x="107" y="454"/>
      <point x="107" y="376" type="curve" smooth="yes"/>
      <point x="107" y="277"/>
      <point x="106" y="175"/>
      <point x="104" y="132" type="curve" smooth="yes"/>
      <point x="101" y="85"/>
      <point x="81" y="34"/>
      <point x="33" y="27" type="curve"/>
      <point x="25" y="-3" type="line"/>
      <point x="57" y="0"/>
      <point x="109" y="0"/>
      <point x="145" y="0" type="curve" smooth="yes"/>
      <point x="180" y="0"/>
      <point x="222" y="0"/>
      <point x="266" y="-3" type="curve"/>
    </contour>
  </outline>
</glyph>
<glyph name="m" format="2">
  <advance width="789"/>
  <unicode hex="006D"/>
  <note>
m
</note>
  <outline>
    <contour>
      <point x="246" y="27" type="line"/>
      <point x="188" y="46" type="line"/>
      <point x="188" y="318" type="line"/>
      <point x="219" y="337"/>
      <point x="283" y="362"/>
      <point x="296" y="362" type="curve"/>
      <point x="319" y="358"/>
      <point x="350" y="334"/>
      <point x="359" y="310" type="curve"/>
      <point x="359" y="46" type="line"/>
      <point x="308" y="27" type="line"/>
      <point x="303" y="-3" type="line"/>
      <point x="329" y="-1"/>
      <point x="374" y="0"/>
      <point x="397" y="0" type="curve" smooth="yes"/>
      <point x="421" y="0"/>
      <point x="464" y="-1"/>
      <point x="492" y="-3" type="curve"/>
      <point x="498" y="27" type="line"/>
      <point x="439" y="46" type="line"/>
      <point x="439" y="318" type="line"/>
      <point x="468" y="337"/>
      <point x="531" y="359"/>
      <point x="551" y="363" type="curve"/>
      <point x="577" y="363"/>
      <point x="605" y="324"/>
      <point x="607" y="308" type="curve" smooth="yes"/>
      <point x="610" y="271"/>
      <point x="612" y="224"/>
      <point x="612" y="180" type="curve" smooth="yes"/>
      <point x="612" y="135"/>
      <point x="612" y="81"/>
      <point x="611" y="46" type="curve"/>
      <point x="566" y="27" type="line"/>
      <point x="560" y="-3" type="line"/>
      <point x="595" y="0"/>
      <point x="633" y="0"/>
      <point x="662" y="0" type="curve" smooth="yes"/>
      <point x="691" y="0"/>
      <point x="723" y="0"/>
      <point x="756" y="-3" type="curve"/>
      <point x="764" y="27" type="line"/>
      <point x="723" y="39"/>
      <point x="694" y="59"/>
      <point x="693" y="97" type="curve" smooth="yes"/>
      <point x="692" y="154"/>
      <point x="691" y="232"/>
      <point x="691" y="290" type="curve" smooth="yes"/>
      <point x="691" y="387"/>
      <point x="617" y="426"/>
      <point x="588" y="426" type="curve" smooth="yes"/>
      <point x="556" y="426"/>
      <point x="478" y="380"/>
      <point x="434" y="353" type="curve"/>
      <point x="418" y="377"/>
      <point x="377" y="426"/>
      <point x="321" y="426" type="curve" smooth="yes"/>
      <point x="306" y="426"/>
      <point x="205" y="366"/>
      <point x="188" y="354" type="curve"/>
      <point x="188" y="381"/>
      <point x="193" y="407"/>
      <point x="195" y="427" type="curve"/>
      <point x="164" y="427"/>
      <point x="57" y="407"/>
      <point x="29" y="392" type="curve"/>
      <point x="24" y="362" type="line"/>
      <point x="76" y="365"/>
      <point x="98" y="355"/>
      <point x="104" y="289" type="curve" smooth="yes"/>
      <point x="106" y="263"/>
      <point x="107" y="241"/>
      <point x="107" y="211" type="curve" smooth="yes"/>
      <point x="107" y="181"/>
      <point x="106" y="126"/>
      <point x="104" y="95" type="curve" smooth="yes"/>
      <point x="101" y="52"/>
      <point x="73" y="42"/>
      <point x="29" y="27" type="curve"/>
      <point x="25" y="-3" type="line"/>
      <point x="55" y="0"/>
      <point x="108" y="0"/>
      <point x="136" y="0" type="curve" smooth="yes"/>
      <point x="165" y="0"/>
      <point x="210" y="0"/>
      <point x="240" y="-3" type="curve"/>
    </contour>
  </outline>
</glyph>
<glyph name="n" format="2">
  <advance width="549"/>
  <unicode hex="006E"/>
  <note>
n
</note>
  <outline>
    <contour>
      <point x="236" y="27" type="line"/>
      <point x="181" y="50" type="line"/>
      <point x="178" y="106"/>
      <point x="176" y="172"/>
      <point x="176" y="234" type="curve" smooth="yes"/>
      <point x="176" y="263"/>
      <point x="176" y="291"/>
      <point x="177" y="317" type="curve"/>
      <point x="212" y="332"/>
      <point x="301" y="363"/>
      <point x="310" y="363" type="curve" smooth="yes"/>
      <point x="345" y="363"/>
      <point x="366" y="315"/>
      <point x="367" y="296" type="curve" smooth="yes"/>
      <point x="371" y="247"/>
      <point x="371" y="203"/>
      <point x="371" y="153" type="curve" smooth="yes"/>
      <point x="371" y="118"/>
      <point x="368" y="77"/>
      <point x="365" y="46" type="curve"/>
      <point x="324" y="27" type="line"/>
      <point x="319" y="-3" type="line"/>
      <point x="355" y="0"/>
      <point x="389" y="0"/>
      <point x="418" y="0" type="curve" smooth="yes"/>
      <point x="446" y="0"/>
      <point x="481" y="0"/>
      <point x="518" y="-3" type="curve"/>
      <point x="523" y="27" type="line"/>
      <point x="486" y="36"/>
      <point x="450" y="47"/>
      <point x="450" y="95" type="curve" smooth="yes"/>
      <point x="450" y="263" type="line" smooth="yes"/>
      <point x="450" y="359"/>
      <point x="436" y="426"/>
      <point x="327" y="426" type="curve" smooth="yes"/>
      <point x="305" y="426"/>
      <point x="211" y="376"/>
      <point x="178" y="357" type="curve"/>
      <point x="179" y="383"/>
      <point x="182" y="406"/>
      <point x="190" y="427" type="curve"/>
      <point x="156" y="427"/>
      <point x="46" y="407"/>
      <point x="18" y="395" type="curve"/>
      <point x="14" y="365" type="line"/>
      <point x="18" y="366"/>
      <point x="25" y="366"/>
      <point x="30" y="366" type="curve" smooth="yes"/>
      <point x="74" y="366"/>
      <point x="91" y="352"/>
      <point x="94" y="303" type="curve" smooth="yes"/>
      <point x="96" y="269"/>
      <point x="97" y="240"/>
      <point x="97" y="216" type="curve" smooth="yes"/>
      <point x="97" y="182"/>
      <point x="97" y="137"/>
      <point x="93" y="97" type="curve" smooth="yes"/>
      <point x="89" y="52"/>
      <point x="73" y="35"/>
      <point x="29" y="27" type="curve"/>
      <point x="25" y="-3" type="line"/>
      <point x="71" y="0"/>
      <point x="105" y="0"/>
      <point x="129" y="0" type="curve" smooth="yes"/>
      <point x="154" y="0"/>
      <point x="174" y="0"/>
      <point x="231" y="-3" type="curve"/>
    </contour>
  </outline>
</glyph>
<glyph name="o" format="2">
  <advance width="496"/>
  <unicode hex="006F"/>
  <note>
o
</note>
  <outline>
    <contour>
      <point x="35" y="194" type="curve" smooth="yes"/>
      <point x="35" y="108"/>
      <point x="96" y="-12"/>
      <point x="236" y="-12" type="curve" smooth="yes"/>
      <point x="348" y="-12"/>
      <point x="461" y="66"/>
      <point x="461" y="216" type="curve" smooth="yes"/>
      <point x="461" y="324"/>
      <point x="402" y="426"/>
      <point x="260" y="426" type="curve" smooth="yes"/>
      <point x="133" y="426"/>
      <point x="35" y="343"/>
    </contour>
    <contour>
      <point x="243" y="377" type="curve" smooth="yes"/>
      <point x="335" y="377"/>
      <point x="371" y="277"/>
      <point x="371" y="195" type="curve" smooth="yes"/>
      <point x="371" y="128"/>
      <point x="347" y="47"/>
      <point x="250" y="47" type="curve" smooth="yes"/>
      <point x="151" y="47"/>
      <point x="125" y="133"/>
      <point x="125" y="211" type="curve" smooth="yes"/>
      <point x="125" y="309"/>
      <point x="166" y="377"/>
    </contour>
  </outline>
</glyph>
<glyph name="p" format="2">
  <advance width="490"/>
  <unicode hex="0070"/>
  <note>
p
</note>
  <outline>
    <contour>
      <point x="157" y="-208" type="line"/>
      <point x="158" y="7" type="line"/>
      <point x="178" y="-1"/>
      <point x="212" y="-8"/>
      <point x="237" y="-8" type="curve" smooth="yes"/>
      <point x="324" y="-8"/>
      <point x="455" y="85"/>
      <point x="455" y="231" type="curve" smooth="yes"/>
      <point x="455" y="344"/>
      <point x="384" y="397"/>
      <point x="283" y="397" type="curve"/>
      <point x="158" y="329" type="line"/>
      <point x="158" y="344"/>
      <point x="165" y="390"/>
      <point x="169" y="407" type="curve"/>
      <point x="138" y="407"/>
      <point x="35" y="385"/>
      <point x="9" y="373" type="curve"/>
      <point x="5" y="346" type="line"/>
      <point x="60" y="346"/>
      <point x="85" y="335"/>
      <point x="85" y="261" type="curve"/>
      <point x="85" y="-182" type="line" smooth="yes"/>
      <point x="85" y="-216"/>
      <point x="56" y="-229"/>
      <point x="39" y="-234" type="curve"/>
      <point x="32" y="-261" type="line"/>
      <point x="92" y="-261"/>
      <point x="158" y="-265"/>
      <point x="225" y="-277" type="curve"/>
      <point x="232" y="-244" type="line"/>
    </contour>
    <contour>
      <point x="260" y="41" type="curve" smooth="yes"/>
      <point x="224" y="41"/>
      <point x="179" y="57"/>
      <point x="158" y="71" type="curve"/>
      <point x="158" y="290" type="line"/>
      <point x="258" y="341" type="line"/>
      <point x="317" y="341"/>
      <point x="375" y="290"/>
      <point x="375" y="194" type="curve" smooth="yes"/>
      <point x="375" y="116"/>
      <point x="336" y="41"/>
    </contour>
  </outline>
</glyph>
<glyph name="q" format="2">
  <advance width="463"/>
  <unicode hex="0071"/>
  <note>
q
</note>
  <outline>
    <contour>
      <point x="331" y="-190" type="line"/>
      <point x="267" y="-228" type="line"/>
      <point x="265" y="-256" type="line"/>
      <point x="323" y="-246"/>
      <point x="413" y="-240"/>
      <point x="459" y="-240" type="curve"/>
      <point x="463" y="-213" type="line"/>
      <point x="425" y="-208"/>
      <point x="404" y="-193"/>
      <point x="404" y="-165" type="curve" smooth="yes"/>
      <point x="404" y="97" type="line" smooth="yes"/>
      <point x="404" y="162"/>
      <point x="408" y="335"/>
      <point x="418" y="375" type="curve"/>
      <point x="370" y="390"/>
      <point x="324" y="397"/>
      <point x="284" y="397" type="curve" smooth="yes"/>
      <point x="153" y="397"/>
      <point x="32" y="326"/>
      <point x="32" y="175" type="curve" smooth="yes"/>
      <point x="32" y="40"/>
      <point x="128" y="-21"/>
      <point x="186" y="-21" type="curve" smooth="yes"/>
      <point x="222" y="-21"/>
      <point x="280" y="2"/>
      <point x="331" y="28" type="curve"/>
    </contour>
    <contour>
      <point x="226" y="40" type="curve" smooth="yes"/>
      <point x="164" y="40"/>
      <point x="114" y="109"/>
      <point x="114" y="196" type="curve" smooth="yes"/>
      <point x="114" y="267"/>
      <point x="147" y="348"/>
      <point x="239" y="348" type="curve" smooth="yes"/>
      <point x="270" y="348"/>
      <point x="304" y="339"/>
      <point x="324" y="332" type="curve"/>
      <point x="330" y="274"/>
      <point x="331" y="184"/>
      <point x="331" y="128" type="curve" smooth="yes"/>
      <point x="331" y="72" type="line"/>
      <point x="306" y="57"/>
      <point x="257" y="40"/>
    </contour>
  </outline>
</glyph>
<glyph name="r" format="2">
  <advance width="381"/>
  <unicode hex="0072"/>
  <note>
r
</note>
  <outline>
    <contour>
      <point x="288" y="27" type="line"/>
      <point x="180" y="56" type="line"/>
      <point x="178" y="96"/>
      <point x="177" y="129"/>
      <point x="177" y="167" type="curve" smooth="yes"/>
      <point x="177" y="205"/>
      <point x="178" y="251"/>
      <point x="180" y="291" type="curve"/>
      <point x="202" y="322"/>
      <point x="228" y="353"/>
      <point x="266" y="356" type="curve" smooth="yes"/>
      <point x="281" y="356"/>
      <point x="306" y="354"/>
      <point x="317" y="308" type="curve"/>
      <point x="321" y="307"/>
      <point x="324" y="306"/>
      <point x="330" y="306" type="curve" smooth="yes"/>
      <point x="336" y="306"/>
      <point x="339" y="307"/>
      <point x="343" y="308" type="curve"/>
      <point x="356" y="428" type="line"/>
      <point x="263" y="429"/>
      <point x="229" y="397"/>
      <point x="182" y="340" type="curve"/>
      <point x="179" y="339"/>
      <point x="176" y="340"/>
      <point x="175" y="343" type="curve"/>
      <point x="182" y="427" type="line"/>
      <point x="147" y="428"/>
      <point x="46" y="405"/>
      <point x="18" y="390" type="curve"/>
      <point x="13" y="360" type="line"/>
      <point x="26" y="360" type="line" smooth="yes"/>
      <point x="66" y="360"/>
      <point x="94" y="355"/>
      <point x="98" y="303" type="curve" smooth="yes"/>
      <point x="100" y="279"/>
      <point x="101" y="256"/>
      <point x="101" y="226" type="curve" smooth="yes"/>
      <point x="101" y="195"/>
      <point x="100" y="156"/>
      <point x="98" y="115" type="curve" smooth="yes"/>
      <point x="96" y="62"/>
      <point x="89" y="38"/>
      <point x="33" y="27" type="curve"/>
      <point x="25" y="-3" type="line"/>
      <point x="96" y="0"/>
      <point x="120" y="0"/>
      <point x="154" y="0" type="curve" smooth="yes"/>
      <point x="188" y="0"/>
      <point x="212" y="0"/>
      <point x="280" y="-3" type="curve"/>
    </contour>
  </outline>
</glyph>
<glyph name="s" format="2">
  <advance width="343"/>
  <unicode hex="0073"/>
  <note>
s
</note>
  <outline>
    <contour>
      <point x="295" y="296" type="curve"/>
      <point x="311" y="408" type="line"/>
      <point x="287" y="417"/>
      <point x="206" y="426"/>
      <point x="194" y="426" type="curve" smooth="yes"/>
      <point x="110" y="426"/>
      <point x="35" y="388"/>
      <point x="35" y="297" type="curve" smooth="yes"/>
      <point x="35" y="238"/>
      <point x="95" y="205"/>
      <point x="148" y="176" type="curve" smooth="yes"/>
      <point x="220" y="138"/>
      <point x="237" y="124"/>
      <point x="237" y="92" type="curve" smooth="yes"/>
      <point x="237" y="52"/>
      <point x="209" y="39"/>
      <point x="168" y="39" type="curve" smooth="yes"/>
      <point x="109" y="39"/>
      <point x="75" y="66"/>
      <point x="64" y="137" type="curve"/>
      <point x="60" y="137" type="line" smooth="yes"/>
      <point x="51" y="137"/>
      <point x="35" y="134"/>
      <point x="29" y="127" type="curve"/>
      <point x="25" y="15" type="line"/>
      <point x="49" y="0"/>
      <point x="99" y="-11"/>
      <point x="146" y="-11" type="curve" smooth="yes"/>
      <point x="240" y="-11"/>
      <point x="318" y="32"/>
      <point x="318" y="117" type="curve" smooth="yes"/>
      <point x="318" y="170"/>
      <point x="288" y="195"/>
      <point x="211" y="234" type="curve" smooth="yes"/>
      <point x="132" y="274"/>
      <point x="105" y="294"/>
      <point x="105" y="330" type="curve" smooth="yes"/>
      <point x="105" y="368"/>
      <point x="135" y="383"/>
      <point x="173" y="383" type="curve" smooth="yes"/>
      <point x="220" y="383"/>
      <point x="247" y="359"/>
      <point x="259" y="296" type="curve"/>
      <point x="262" y="294"/>
      <point x="268" y="292"/>
      <point x="277" y="292" type="curve" smooth="yes"/>
      <point x="285" y="292"/>
      <point x="291" y="294"/>
    </contour>
  </outline>
</glyph>
<glyph name="t" format="2">
  <advance width="319"/>
  <unicode hex="0074"/>
  <note>
t
</note>
  <outline>
    <contour>
      <point x="164" y="381" type="line"/>
      <point x="164" y="528" type="line"/>
      <point x="146" y="526"/>
      <point x="102" y="502"/>
      <point x="91" y="491" type="curve"/>
      <point x="91" y="376" type="line"/>
      <point x="28" y="369" type="line"/>
      <point x="25" y="362"/>
      <point x="23" y="356"/>
      <point x="23" y="348" type="curve" smooth="yes"/>
      <point x="23" y="345"/>
      <point x="23" y="335"/>
      <point x="24" y="333" type="curve"/>
      <point x="91" y="333" type="line"/>
      <point x="91" y="19" type="line"/>
      <point x="104" y="9"/>
      <point x="160" y="-10"/>
      <point x="182" y="-10" type="curve" smooth="yes"/>
      <point x="210" y="-10"/>
      <point x="272" y="22"/>
      <point x="289" y="42" type="curve"/>
      <point x="290" y="48"/>
      <point x="279" y="75"/>
      <point x="274" y="83" type="curve"/>
      <point x="251" y="67"/>
      <point x="223" y="56"/>
      <point x="199" y="56" type="curve" smooth="yes"/>
      <point x="188" y="56"/>
      <point x="168" y="59"/>
      <point x="164" y="60" type="curve"/>
      <point x="164" y="333" type="line"/>
      <point x="285" y="333" type="line"/>
      <point x="291" y="345"/>
      <point x="295" y="362"/>
      <point x="295" y="379" type="curve" smooth="yes"/>
      <point x="295" y="381"/>
      <point x="295" y="385"/>
      <point x="294" y="388" type="curve"/>
    </contour>
  </outline>
</glyph>
<glyph name="u" format="2">
  <advance width="526"/>
  <unicode hex="0075"/>
  <note>
u
</note>
  <outline>
    <contour>
      <point x="217" y="-7" type="curve" smooth="yes"/>
      <point x="249" y="-7"/>
      <point x="335" y="40"/>
      <point x="362" y="63" type="curve"/>
      <point x="364" y="41"/>
      <point x="374" y="8"/>
      <point x="386" y="-12" type="curve"/>
      <point x="421" y="0"/>
      <point x="479" y="12"/>
      <point x="516" y="16" type="curve"/>
      <point x="521" y="52" type="line"/>
      <point x="514" y="51"/>
      <point x="505" y="51"/>
      <point x="504" y="51" type="curve" smooth="yes"/>
      <point x="468" y="51"/>
      <point x="451" y="65"/>
      <point x="446" y="98" type="curve" smooth="yes"/>
      <point x="443" y="117"/>
      <point x="443" y="158"/>
      <point x="443" y="215" type="curve" smooth="yes"/>
      <point x="443" y="289"/>
      <point x="447" y="379"/>
      <point x="456" y="430" type="curve"/>
      <point x="422" y="430"/>
      <point x="329" y="415"/>
      <point x="286" y="399" type="curve"/>
      <point x="280" y="368" type="line"/>
      <point x="289" y="370"/>
      <point x="299" y="371"/>
      <point x="307" y="371" type="curve" smooth="yes"/>
      <point x="346" y="371"/>
      <point x="365" y="352"/>
      <point x="365" y="305" type="curve" smooth="yes"/>
      <point x="365" y="212" type="line" smooth="yes"/>
      <point x="365" y="182"/>
      <point x="364" y="143"/>
      <point x="361" y="102" type="curve"/>
      <point x="333" y="83"/>
      <point x="273" y="58"/>
      <point x="242" y="58" type="curve" smooth="yes"/>
      <point x="210" y="58"/>
      <point x="190" y="88"/>
      <point x="184" y="118" type="curve" smooth="yes"/>
      <point x="180" y="140"/>
      <point x="178" y="188"/>
      <point x="178" y="242" type="curve" smooth="yes"/>
      <point x="178" y="306"/>
      <point x="179" y="383"/>
      <point x="186" y="429" type="curve"/>
      <point x="153" y="429"/>
      <point x="59" y="412"/>
      <point x="26" y="398" type="curve"/>
      <point x="20" y="368" type="line"/>
      <point x="26" y="369"/>
      <point x="33" y="370"/>
      <point x="40" y="370" type="curve" smooth="yes"/>
      <point x="79" y="370"/>
      <point x="100" y="345"/>
      <point x="100" y="296" type="curve" smooth="yes"/>
      <point x="100" y="229" type="line" smooth="yes"/>
      <point x="100" y="195"/>
      <point x="95" y="158"/>
      <point x="95" y="123" type="curve" smooth="yes"/>
      <point x="95" y="63"/>
      <point x="111" y="-7"/>
    </contour>
  </outline>
</glyph>
<glyph name="v" format="2">
  <advance width="511"/>
  <unicode hex="0076"/>
  <note>
v
</note>
  <outline>
    <contour>
      <point x="120" y="313" type="curve" smooth="yes"/>
      <point x="165" y="210"/>
      <point x="201" y="101"/>
      <point x="237" y="-7" type="curve"/>
      <point x="254" y="-7"/>
      <point x="284" y="-3"/>
      <point x="297" y="5" type="curve"/>
      <point x="326" y="75" type="line" smooth="yes"/>
      <point x="371" y="182"/>
      <point x="454" y="382"/>
      <point x="486" y="421" type="curve"/>
      <point x="486" y="430" type="line"/>
      <point x="429" y="421"/>
      <point x="359" y="421"/>
      <point x="312" y="421" type="curve"/>
      <point x="306" y="389" type="line"/>
      <point x="386" y="377" type="line"/>
      <point x="356" y="288"/>
      <point x="314" y="179"/>
      <point x="288" y="122" type="curve" smooth="yes"/>
      <point x="287" y="120"/>
      <point x="285" y="119"/>
      <point x="282" y="119" type="curve"/>
      <point x="282" y="119"/>
      <point x="280" y="119"/>
      <point x="279" y="121" type="curve" smooth="yes"/>
      <point x="246" y="175"/>
      <point x="189" y="362"/>
      <point x="184" y="429" type="curve"/>
      <point x="139" y="429"/>
      <point x="65" y="415"/>
      <point x="30" y="397" type="curve"/>
      <point x="26" y="364" type="line"/>
      <point x="32" y="365"/>
      <point x="45" y="365"/>
      <point x="52" y="365" type="curve" smooth="yes"/>
      <point x="84" y="365"/>
      <point x="105" y="345"/>
    </contour>
  </outline>
</glyph>
<glyph name="w" format="2">
  <advance width="724"/>
  <unicode hex="0077"/>
  <note>
w
</note>
  <outline>
    <contour>
      <point x="118" y="302" type="curve" smooth="yes"/>
      <point x="218" y="-7" type="line"/>
      <point x="222" y="-7" type="line" smooth="yes"/>
      <point x="233" y="-7"/>
      <point x="265" y="2"/>
      <point x="267" y="5" type="curve" smooth="yes"/>
      <point x="383" y="232" type="line"/>
      <point x="465" y="-7" type="line"/>
      <point x="469" y="-7" type="line"/>
      <point x="481" y="-10"/>
      <point x="515" y="3"/>
      <point x="516" y="6" type="curve" smooth="yes"/>
      <point x="547" y="93"/>
      <point x="663" y="379"/>
      <point x="699" y="421" type="curve"/>
      <point x="699" y="428" type="line"/>
      <point x="653" y="421"/>
      <point x="560" y="421"/>
      <point x="516" y="421" type="curve"/>
      <point x="510" y="391" type="line"/>
      <point x="596" y="375" type="line"/>
      <point x="570" y="287"/>
      <point x="537" y="203"/>
      <point x="503" y="118" type="curve"/>
      <point x="501" y="115"/>
      <point x="498" y="114"/>
      <point x="497" y="115" type="curve"/>
      <point x="451" y="215"/>
      <point x="423" y="335"/>
      <point x="406" y="429" type="curve"/>
      <point x="361" y="429"/>
      <point x="307" y="413"/>
      <point x="274" y="399" type="curve"/>
      <point x="268" y="368" type="line"/>
      <point x="309" y="373"/>
      <point x="339" y="351"/>
      <point x="352" y="316" type="curve" smooth="yes"/>
      <point x="363" y="291" type="line"/>
      <point x="272" y="120" type="line" smooth="yes"/>
      <point x="270" y="117"/>
      <point x="268" y="116"/>
      <point x="267" y="118" type="curve" smooth="yes"/>
      <point x="230" y="211"/>
      <point x="180" y="370"/>
      <point x="173" y="429" type="curve"/>
      <point x="129" y="429"/>
      <point x="55" y="412"/>
      <point x="29" y="400" type="curve"/>
      <point x="26" y="370" type="line"/>
      <point x="38" y="373"/>
      <point x="53" y="375"/>
      <point x="63" y="375" type="curve" smooth="yes"/>
      <point x="85" y="375"/>
      <point x="102" y="352"/>
    </contour>
  </outline>
</glyph>
<glyph name="x" format="2">
  <advance width="491"/>
  <unicode hex="0078"/>
  <note>
x
</note>
  <outline>
    <contour>
      <point x="131" y="309" type="curve" smooth="yes"/>
      <point x="211" y="194" type="line"/>
      <point x="115" y="81" type="line" smooth="yes"/>
      <point x="89" y="51"/>
      <point x="73" y="34"/>
      <point x="33" y="22" type="curve"/>
      <point x="23" y="-6" type="line"/>
      <point x="77" y="2"/>
      <point x="130" y="0"/>
      <point x="201" y="-2" type="curve"/>
      <point x="209" y="25" type="line"/>
      <point x="137" y="37" type="line"/>
      <point x="236" y="153" type="line"/>
      <point x="284" y="83"/>
      <point x="323" y="15"/>
      <point x="328" y="-7" type="curve"/>
      <point x="370" y="-7"/>
      <point x="426" y="-2"/>
      <point x="462" y="19" type="curve"/>
      <point x="467" y="46" type="line"/>
      <point x="430" y="32"/>
      <point x="389" y="37"/>
      <point x="368" y="71" type="curve" smooth="yes"/>
      <point x="284" y="205" type="line"/>
      <point x="358" y="294" type="line" smooth="yes"/>
      <point x="387" y="330"/>
      <point x="411" y="358"/>
      <point x="442" y="365" type="curve"/>
      <point x="446" y="396" type="line"/>
      <point x="398" y="392"/>
      <point x="325" y="392"/>
      <point x="290" y="392" type="curve"/>
      <point x="284" y="365" type="line"/>
      <point x="345" y="358" type="line"/>
      <point x="256" y="247" type="line"/>
      <point x="232" y="284"/>
      <point x="192" y="350"/>
      <point x="182" y="393" type="curve"/>
      <point x="121" y="393"/>
      <point x="88" y="391"/>
      <point x="39" y="371" type="curve"/>
      <point x="47" y="343" type="line"/>
      <point x="77" y="353"/>
      <point x="112" y="337"/>
    </contour>
  </outline>
</glyph>
<glyph name="y" format="2">
  <advance width="528"/>
  <unicode hex="0079"/>
  <note>
y
</note>
  <outline>
    <contour>
      <point x="121" y="319" type="curve" smooth="yes"/>
      <point x="165" y="243"/>
      <point x="206" y="161"/>
      <point x="249" y="40" type="curve"/>
      <point x="253" y="40"/>
      <point x="220" y="-39"/>
      <point x="190" y="-88" type="curve" smooth="yes"/>
      <point x="165" y="-129"/>
      <point x="133" y="-164"/>
      <point x="74" y="-164" type="curve" smooth="yes"/>
      <point x="65" y="-164"/>
      <point x="55" y="-163"/>
      <point x="45" y="-161" type="curve"/>
      <point x="45" y="-196"/>
      <point x="88" y="-253"/>
      <point x="128" y="-255" type="curve"/>
      <point x="201" y="-191"/>
      <point x="240" y="-118"/>
      <point x="319" y="41" type="curve" smooth="yes"/>
      <point x="374" y="152"/>
      <point x="445" y="304"/>
      <point x="503" y="422" type="curve"/>
      <point x="503" y="429" type="line"/>
      <point x="440" y="421"/>
      <point x="387" y="421"/>
      <point x="324" y="421" type="curve"/>
      <point x="317" y="391" type="line"/>
      <point x="399" y="383" type="line"/>
      <point x="384" y="327"/>
      <point x="329" y="197"/>
      <point x="294" y="132" type="curve"/>
      <point x="257" y="188"/>
      <point x="190" y="362"/>
      <point x="185" y="429" type="curve"/>
      <point x="140" y="429"/>
      <point x="65" y="418"/>
      <point x="29" y="401" type="curve"/>
      <point x="25" y="367" type="line"/>
      <point x="32" y="369"/>
      <point x="42" y="370"/>
      <point x="49" y="370" type="curve" smooth="yes"/>
      <point x="82" y="370"/>
      <point x="102" y="352"/>
    </contour>
  </outline>
</glyph>
<glyph name="z" format="2">
  <advance width="388"/>
  <unicode hex="007A"/>
  <note>
z
</note>
  <outline>
    <contour>
      <point x="245" y="348" type="curve" smooth="yes"/>
      <point x="29" y="18" type="line"/>
      <point x="33" y="7"/>
      <point x="45" y="-1"/>
      <point x="53" y="-4" type="curve"/>
      <point x="93" y="0"/>
      <point x="169" y="0"/>
      <point x="204" y="0" type="curve" smooth="yes"/>
      <point x="239" y="0"/>
      <point x="293" y="-1"/>
      <point x="341" y="-4" type="curve"/>
      <point x="364" y="123" type="line"/>
      <point x="357" y="128"/>
      <point x="343" y="131"/>
      <point x="333" y="131" type="curve"/>
      <point x="312" y="61"/>
      <point x="291" y="36"/>
      <point x="228" y="35" type="curve" smooth="yes"/>
      <point x="126" y="35" type="line"/>
      <point x="345" y="374" type="line"/>
      <point x="344" y="383"/>
      <point x="329" y="396"/>
      <point x="318" y="396" type="curve"/>
      <point x="287" y="391"/>
      <point x="267" y="390"/>
      <point x="195" y="390" type="curve" smooth="yes"/>
      <point x="150" y="390"/>
      <point x="99" y="392"/>
      <point x="50" y="404" type="curve"/>
      <point x="24" y="273" type="line"/>
      <point x="34" y="267"/>
      <point x="45" y="265"/>
      <point x="57" y="269" type="curve"/>
      <point x="78" y="345"/>
      <point x="98" y="355"/>
      <point x="144" y="355" type="curve" smooth="yes"/>
      <point x="242" y="355" type="line" smooth="yes"/>
      <point x="248" y="355"/>
      <point x="248" y="353"/>
    </contour>
  </outline>
</glyph>
<glyph name="braceleft" format="2">
  <advance width="398"/>
  <unicode hex="007B"/>
  <note>
braceleft
</note>
  <outline>
    <contour>
      <point x="44" y="302" type="curve"/>
      <point x="36" y="272" type="line"/>
      <point x="92" y="261"/>
      <point x="148" y="228"/>
      <point x="148" y="182" type="curve" smooth="yes"/>
      <point x="148" y="109"/>
      <point x="129" y="-25"/>
      <point x="161" y="-78" type="curve" smooth="yes"/>
      <point x="203" y="-148"/>
      <point x="284" y="-163"/>
      <point x="360" y="-168" type="curve"/>
      <point x="367" y="-163"/>
      <point x="371" y="-155"/>
      <point x="372" y="-148" type="curve"/>
      <point x="273" y="-119"/>
      <point x="252" y="-104"/>
      <point x="235" y="-45" type="curve" smooth="yes"/>
      <point x="212" y="29"/>
      <point x="208" y="126"/>
      <point x="213" y="233" type="curve"/>
      <point x="197" y="248"/>
      <point x="151" y="272"/>
      <point x="135" y="283" type="curve"/>
      <point x="136" y="290" type="line"/>
      <point x="153" y="300"/>
      <point x="196" y="322"/>
      <point x="213" y="339" type="curve"/>
      <point x="208" y="446"/>
      <point x="209" y="543"/>
      <point x="232" y="618" type="curve" smooth="yes"/>
      <point x="250" y="675"/>
      <point x="270" y="690"/>
      <point x="372" y="720" type="curve"/>
      <point x="371" y="727"/>
      <point x="367" y="735"/>
      <point x="360" y="739" type="curve"/>
      <point x="284" y="735"/>
      <point x="203" y="720"/>
      <point x="161" y="650" type="curve" smooth="yes"/>
      <point x="129" y="597"/>
      <point x="148" y="463"/>
      <point x="148" y="390" type="curve" smooth="yes"/>
      <point x="148" y="344"/>
      <point x="90" y="311"/>
    </contour>
  </outline>
</glyph>
<glyph name="bar" format="2">
  <advance width="335"/>
  <unicode hex="007C"/>
  <note>
bar
</note>
  <outline>
    <contour>
      <point x="204" y="703" type="curve"/>
      <point x="196" y="707"/>
      <point x="182" y="708"/>
      <point x="168" y="708" type="curve" smooth="yes"/>
      <point x="154" y="708"/>
      <point x="141" y="707"/>
      <point x="131" y="703" type="curve"/>
      <point x="134" y="670"/>
      <point x="135" y="434"/>
      <point x="135" y="196" type="curve" smooth="yes"/>
      <point x="135" y="-41"/>
      <point x="134" y="-277"/>
      <point x="131" y="-311" type="curve"/>
      <point x="141" y="-315"/>
      <point x="154" y="-316"/>
      <point x="168" y="-316" type="curve" smooth="yes"/>
      <point x="182" y="-316"/>
      <point x="196" y="-315"/>
      <point x="204" y="-311" type="curve"/>
      <point x="201" y="-277"/>
      <point x="200" y="-41"/>
      <point x="200" y="196" type="curve" smooth="yes"/>
      <point x="200" y="434"/>
      <point x="201" y="670"/>
    </contour>
  </outline>
</glyph>
<glyph name="braceright" format="2">
  <advance width="398"/>
  <unicode hex="007D"/>
  <note>
braceright
</note>
  <outline>
    <contour>
      <point x="355" y="270" type="curve"/>
      <point x="362" y="300" type="line"/>
      <point x="306" y="311"/>
      <point x="250" y="344"/>
      <point x="250" y="390" type="curve" smooth="yes"/>
      <point x="250" y="463"/>
      <point x="269" y="597"/>
      <point x="237" y="650" type="curve" smooth="yes"/>
      <point x="196" y="720"/>
      <point x="115" y="735"/>
      <point x="38" y="739" type="curve"/>
      <point x="32" y="735"/>
      <point x="28" y="727"/>
      <point x="26" y="720" type="curve"/>
      <point x="128" y="690"/>
      <point x="149" y="675"/>
      <point x="167" y="618" type="curve" smooth="yes"/>
      <point x="189" y="543"/>
      <point x="191" y="446"/>
      <point x="185" y="339" type="curve"/>
      <point x="201" y="324"/>
      <point x="248" y="300"/>
      <point x="263" y="289" type="curve"/>
      <point x="263" y="281" type="line"/>
      <point x="246" y="272"/>
      <point x="203" y="250"/>
      <point x="185" y="233" type="curve"/>
      <point x="191" y="126"/>
      <point x="186" y="29"/>
      <point x="164" y="-45" type="curve" smooth="yes"/>
      <point x="146" y="-104"/>
      <point x="126" y="-119"/>
      <point x="26" y="-148" type="curve"/>
      <point x="28" y="-155"/>
      <point x="32" y="-163"/>
      <point x="38" y="-168" type="curve"/>
      <point x="115" y="-163"/>
      <point x="196" y="-148"/>
      <point x="237" y="-78" type="curve" smooth="yes"/>
      <point x="269" y="-25"/>
      <point x="250" y="109"/>
      <point x="250" y="182" type="curve" smooth="yes"/>
      <point x="250" y="228"/>
      <point x="308" y="261"/>
    </contour>
  </outline>
</glyph>
<glyph name="asciitilde" format="2">
  <advance width="533"/>
  <unicode hex="007E"/>
  <note>
asciitilde
</note>
  <outline>
    <contour>
      <point x="509" y="284" type="curve"/>
      <point x="507" y="293"/>
      <point x="504" y="313"/>
      <point x="497" y="319" type="curve"/>
      <point x="468" y="287"/>
      <point x="418" y="246"/>
      <point x="371" y="246" type="curve" smooth="yes"/>
      <point x="312" y="246"/>
      <point x="245" y="310"/>
      <point x="186" y="310" type="curve" smooth="yes"/>
      <point x="133" y="310"/>
      <point x="59" y="258"/>
      <point x="22" y="208" type="curve"/>
      <point x="23" y="197"/>
      <point x="28" y="183"/>
      <point x="34" y="173" type="curve"/>
      <point x="75" y="220"/>
      <point x="122" y="240"/>
      <point x="157" y="240" type="curve" smooth="yes"/>
      <point x="219" y="240"/>
      <point x="283" y="176"/>
      <point x="339" y="176" type="curve" smooth="yes"/>
      <point x="392" y="176"/>
      <point x="480" y="233"/>
    </contour>
  </outline>
</glyph>
<glyph name="exclamdown" format="2">
  <advance width="233"/>
  <unicode hex="00A1"/>
  <note>
exclamdown
</note>
  <outline>
    <contour>
      <point x="174" y="-230" type="curve"/>
      <point x="159" y="-108"/>
      <point x="149" y="68"/>
      <point x="149" y="200" type="curve" smooth="yes"/>
      <point x="149" y="251" type="line"/>
      <point x="130" y="251"/>
      <point x="97" y="246"/>
      <point x="84" y="240" type="curve"/>
      <point x="84" y="152" type="line" smooth="yes"/>
      <point x="84" y="29"/>
      <point x="81" y="-134"/>
      <point x="69" y="-247" type="curve"/>
      <point x="96" y="-247"/>
      <point x="149" y="-241"/>
    </contour>
    <contour>
      <point x="49" y="353" type="curve"/>
      <point x="68" y="331"/>
      <point x="105" y="310"/>
      <point x="133" y="306" type="curve"/>
      <point x="157" y="327"/>
      <point x="178" y="362"/>
      <point x="184" y="395" type="curve"/>
      <point x="168" y="415"/>
      <point x="132" y="435"/>
      <point x="99" y="441" type="curve"/>
      <point x="79" y="424"/>
      <point x="54" y="384"/>
    </contour>
  </outline>
</glyph>
<glyph name="cent" format="2">
  <advance width="424"/>
  <unicode hex="00A2"/>
  <note>
cent
</note>
  <outline>
    <contour>
      <point x="405" y="155" type="curve"/>
      <point x="406" y="162"/>
      <point x="398" y="186"/>
      <point x="390" y="189" type="curve"/>
      <point x="358" y="154"/>
      <point x="318" y="144"/>
      <point x="250" y="144" type="curve" smooth="yes"/>
      <point x="193" y="144"/>
      <point x="135" y="199"/>
      <point x="135" y="295" type="curve" smooth="yes"/>
      <point x="135" y="385"/>
      <point x="185" y="439"/>
      <point x="253" y="439" type="curve" smooth="yes"/>
      <point x="303" y="439"/>
      <point x="352" y="412"/>
      <point x="367" y="358" type="curve"/>
      <point x="370" y="358"/>
      <point x="374" y="357"/>
      <point x="379" y="357" type="curve" smooth="yes"/>
      <point x="384" y="357"/>
      <point x="389" y="358"/>
      <point x="392" y="358" type="curve"/>
      <point x="406" y="468" type="line"/>
      <point x="395" y="468"/>
      <point x="371" y="472"/>
      <point x="355" y="475" type="curve" smooth="yes"/>
      <point x="336" y="479"/>
      <point x="290" y="485"/>
      <point x="264" y="485" type="curve" smooth="yes"/>
      <point x="168" y="485"/>
      <point x="56" y="416"/>
      <point x="56" y="273" type="curve" smooth="yes"/>
      <point x="56" y="155"/>
      <point x="132" y="78"/>
      <point x="232" y="78" type="curve" smooth="yes"/>
      <point x="271" y="78"/>
      <point x="357" y="97"/>
    </contour>
    <contour>
      <point x="204" y="-7" type="curve"/>
      <point x="217" y="-7"/>
      <point x="240" y="-3"/>
      <point x="253" y="7" type="curve"/>
      <point x="250" y="61"/>
      <point x="298" y="517"/>
      <point x="310" y="574" type="curve"/>
      <point x="297" y="573"/>
      <point x="272" y="566"/>
      <point x="262" y="562" type="curve"/>
      <point x="261" y="505"/>
      <point x="212" y="47"/>
    </contour>
  </outline>
</glyph>
<glyph name="section" format="2">
  <advance width="382"/>
  <unicode hex="00A7"/>
  <note>
section
</note>
  <outline>
    <contour>
      <point x="224" y="586" type="curve" smooth="yes"/>
      <point x="255" y="586"/>
      <point x="273" y="567"/>
      <point x="284" y="508" type="curve"/>
      <point x="290" y="506"/>
      <point x="298" y="504"/>
      <point x="304" y="504" type="curve" smooth="yes"/>
      <point x="312" y="504"/>
      <point x="319" y="506"/>
      <point x="327" y="508" type="curve"/>
      <point x="341" y="625" type="line"/>
      <point x="326" y="628"/>
      <point x="269" y="640"/>
      <point x="261" y="640" type="curve" smooth="yes"/>
      <point x="163" y="640"/>
      <point x="96" y="597"/>
      <point x="104" y="531" type="curve"/>
      <point x="46" y="489"/>
      <point x="10" y="417"/>
      <point x="61" y="323" type="curve" smooth="yes"/>
      <point x="154" y="155" type="line" smooth="yes"/>
      <point x="169" y="126"/>
      <point x="229" y="40"/>
      <point x="229" y="1" type="curve" smooth="yes"/>
      <point x="229" y="-27"/>
      <point x="200" y="-48"/>
      <point x="168" y="-48" type="curve" smooth="yes"/>
      <point x="137" y="-48"/>
      <point x="106" y="-30"/>
      <point x="86" y="35" type="curve"/>
      <point x="83" y="38"/>
      <point x="79" y="39"/>
      <point x="74" y="39" type="curve" smooth="yes"/>
      <point x="63" y="39"/>
      <point x="50" y="33"/>
      <point x="51" y="26" type="curve" smooth="yes"/>
      <point x="62" y="-80" type="line"/>
      <point x="74" y="-85"/>
      <point x="124" y="-105"/>
      <point x="166" y="-105" type="curve" smooth="yes"/>
      <point x="243" y="-105"/>
      <point x="331" y="-37"/>
      <point x="309" y="11" type="curve"/>
      <point x="345" y="41"/>
      <point x="396" y="117"/>
      <point x="355" y="192" type="curve" smooth="yes"/>
      <point x="220" y="434" type="line" smooth="yes"/>
      <point x="183" y="499"/>
      <point x="178" y="522"/>
      <point x="178" y="540" type="curve" smooth="yes"/>
      <point x="178" y="576"/>
      <point x="203" y="586"/>
    </contour>
    <contour>
      <point x="291" y="56" type="curve"/>
      <point x="114" y="383" type="line" smooth="yes"/>
      <point x="90" y="425"/>
      <point x="94" y="456"/>
      <point x="112" y="482" type="curve"/>
      <point x="282" y="169" type="line" smooth="yes"/>
      <point x="305" y="127"/>
      <point x="309" y="78"/>
    </contour>
  </outline>
</glyph>
<glyph name="dieresis" format="2">
  <advance width="445"/>
  <unicode hex="00A8"/>
  <note>
dieresis
</note>
  <outline>
    <contour>
      <point x="192" y="564" type="curve"/>
      <point x="179" y="579"/>
      <point x="152" y="594"/>
      <point x="132" y="597" type="curve"/>
      <point x="114" y="583"/>
      <point x="99" y="557"/>
      <point x="94" y="533" type="curve"/>
      <point x="106" y="518"/>
      <point x="133" y="504"/>
      <point x="156" y="499" type="curve"/>
      <point x="170" y="512"/>
      <point x="188" y="541"/>
    </contour>
    <contour>
      <point x="345" y="564" type="curve"/>
      <point x="332" y="579"/>
      <point x="305" y="594"/>
      <point x="285" y="597" type="curve"/>
      <point x="267" y="583"/>
      <point x="252" y="557"/>
      <point x="247" y="533" type="curve"/>
      <point x="259" y="518"/>
      <point x="286" y="504"/>
      <point x="309" y="499" type="curve"/>
      <point x="323" y="512"/>
      <point x="341" y="541"/>
    </contour>
  </outline>
</glyph>
<glyph name="macron" format="2">
  <advance width="443"/>
  <unicode hex="00AF"/>
  <note>
macron
</note>
  <outline>
    <contour>
      <point x="377" y="538" type="curve"/>
      <point x="116" y="538" type="line"/>
      <point x="108" y="525"/>
      <point x="103" y="509"/>
      <point x="103" y="488" type="curve" smooth="yes"/>
      <point x="103" y="487"/>
      <point x="103" y="482"/>
      <point x="104" y="477" type="curve"/>
      <point x="365" y="477" type="line"/>
      <point x="373" y="490"/>
      <point x="378" y="506"/>
      <point x="378" y="527" type="curve" smooth="yes"/>
      <point x="378" y="528"/>
      <point x="378" y="533"/>
    </contour>
  </outline>
</glyph>
<glyph name="plusminus" format="2">
  <advance width="533"/>
  <unicode hex="00B1"/>
  <note>
plusminus
</note>
  <outline>
    <contour>
      <point x="460" y="277" type="curve"/>
      <point x="471" y="293"/>
      <point x="478" y="320"/>
      <point x="478" y="340" type="curve"/>
      <point x="412" y="334"/>
      <point x="137" y="331"/>
      <point x="74" y="335" type="curve"/>
      <point x="65" y="316"/>
      <point x="60" y="288"/>
      <point x="60" y="269" type="curve"/>
      <point x="124" y="277"/>
      <point x="396" y="279"/>
    </contour>
    <contour>
      <point x="237" y="106" type="curve"/>
      <point x="253" y="107"/>
      <point x="288" y="113"/>
      <point x="301" y="121" type="curve"/>
      <point x="293" y="187"/>
      <point x="294" y="443"/>
      <point x="299" y="507" type="curve"/>
      <point x="281" y="506"/>
      <point x="251" y="500"/>
      <point x="232" y="488" type="curve"/>
      <point x="240" y="424"/>
      <point x="239" y="171"/>
    </contour>
    <contour>
      <point x="460" y="20" type="curve"/>
      <point x="471" y="36"/>
      <point x="478" y="60"/>
      <point x="478" y="79" type="curve"/>
      <point x="412" y="74"/>
      <point x="137" y="71"/>
      <point x="74" y="74" type="curve"/>
      <point x="65" y="55"/>
      <point x="60" y="31"/>
      <point x="60" y="12" type="curve"/>
      <point x="124" y="20"/>
      <point x="396" y="22"/>
    </contour>
  </outline>
</glyph>
<glyph name="acute" format="2">
  <advance width="414"/>
  <unicode hex="00B4"/>
  <note>
acute
</note>
  <outline>
    <contour>
      <point x="326" y="591" type="curve"/>
      <point x="312" y="600"/>
      <point x="263" y="614"/>
      <point x="238" y="614" type="curve"/>
      <point x="225" y="567"/>
      <point x="188" y="507"/>
      <point x="143" y="467" type="curve"/>
      <point x="148" y="455"/>
      <point x="167" y="444"/>
      <point x="176" y="444" type="curve"/>
      <point x="228" y="482"/>
      <point x="293" y="543"/>
    </contour>
  </outline>
</glyph>
<glyph name="periodcentered" format="2">
  <advance width="312"/>
  <unicode hex="00B7"/>
  <note>
periodcentered
</note>
  <outline>
    <contour>
      <point x="219" y="254" type="curve"/>
      <point x="201" y="275"/>
      <point x="167" y="294"/>
      <point x="141" y="298" type="curve"/>
      <point x="118" y="278"/>
      <point x="99" y="246"/>
      <point x="93" y="215" type="curve"/>
      <point x="108" y="196"/>
      <point x="142" y="178"/>
      <point x="172" y="172" type="curve"/>
      <point x="191" y="188"/>
      <point x="214" y="225"/>
    </contour>
  </outline>
</glyph>
<glyph name="cedilla" format="2">
  <advance width="439"/>
  <unicode hex="00B8"/>
  <note>
cedilla
</note>
  <outline>
    <contour>
      <point x="136" y="-193" type="curve"/>
      <point x="149" y="-205"/>
      <point x="171" y="-212"/>
      <point x="193" y="-212" type="curve" smooth="yes"/>
      <point x="249" y="-212"/>
      <point x="311" y="-166"/>
      <point x="311" y="-115" type="curve" smooth="yes"/>
      <point x="311" y="-80"/>
      <point x="282" y="-52"/>
      <point x="247" y="-33" type="curve"/>
      <point x="278" y="14" type="line"/>
      <point x="236" y="14" type="line"/>
      <point x="176" y="-76" type="line" smooth="yes"/>
      <point x="174" y="-79"/>
      <point x="176" y="-81"/>
      <point x="188" y="-83" type="curve" smooth="yes"/>
      <point x="224" y="-90"/>
      <point x="250" y="-113"/>
      <point x="250" y="-139" type="curve" smooth="yes"/>
      <point x="250" y="-156"/>
      <point x="238" y="-172"/>
      <point x="207" y="-172" type="curve" smooth="yes"/>
      <point x="187" y="-172"/>
      <point x="164" y="-165"/>
      <point x="145" y="-149" type="curve"/>
      <point x="138" y="-164"/>
      <point x="136" y="-177"/>
    </contour>
  </outline>
</glyph>
<glyph name="questiondown" format="2">
  <advance width="387"/>
  <unicode hex="00BF"/>
  <note>
questiondown
</note>
  <outline>
    <contour>
      <point x="103" y="-87" type="curve" smooth="yes"/>
      <point x="103" y="-19"/>
      <point x="162" y="28"/>
      <point x="245" y="81" type="curve"/>
      <point x="239" y="116"/>
      <point x="236" y="151"/>
      <point x="236" y="192" type="curve" smooth="yes"/>
      <point x="236" y="206"/>
      <point x="236" y="221"/>
      <point x="237" y="237" type="curve"/>
      <point x="222" y="237"/>
      <point x="196" y="235"/>
      <point x="180" y="230" type="curve"/>
      <point x="181" y="218"/>
      <point x="181" y="207"/>
      <point x="181" y="196" type="curve" smooth="yes"/>
      <point x="181" y="163"/>
      <point x="177" y="135"/>
      <point x="169" y="98" type="curve"/>
      <point x="127" y="72"/>
      <point x="23" y="-14"/>
      <point x="23" y="-101" type="curve" smooth="yes"/>
      <point x="23" y="-209"/>
      <point x="102" y="-232"/>
      <point x="195" y="-232" type="curve" smooth="yes"/>
      <point x="214" y="-232"/>
      <point x="317" y="-182"/>
      <point x="347" y="-164" type="curve"/>
      <point x="327" y="-58" type="line"/>
      <point x="323" y="-54"/>
      <point x="316" y="-53"/>
      <point x="308" y="-53" type="curve" smooth="yes"/>
      <point x="301" y="-53"/>
      <point x="293" y="-54"/>
      <point x="288" y="-57" type="curve"/>
      <point x="273" y="-144" type="line"/>
      <point x="256" y="-156"/>
      <point x="226" y="-174"/>
      <point x="190" y="-174" type="curve" smooth="yes"/>
      <point x="139" y="-174"/>
      <point x="103" y="-139"/>
    </contour>
    <contour>
      <point x="144" y="330" type="curve"/>
      <point x="162" y="309"/>
      <point x="196" y="290"/>
      <point x="223" y="286" type="curve"/>
      <point x="245" y="305"/>
      <point x="264" y="338"/>
      <point x="270" y="369" type="curve"/>
      <point x="255" y="387"/>
      <point x="222" y="406"/>
      <point x="191" y="412" type="curve"/>
      <point x="172" y="396"/>
      <point x="149" y="358"/>
    </contour>
  </outline>
</glyph>
<glyph name="longs" format="2">
  <advance width="344"/>
  <unicode hex="017F"/>
  <note>
longs
</note>
  <outline>
    <contour>
      <point x="273" y="27" type="line"/>
      <point x="185" y="62" type="line"/>
      <point x="181" y="115"/>
      <point x="181" y="198"/>
      <point x="181" y="303" type="curve" smooth="yes"/>
      <point x="181" y="472" type="line" smooth="yes"/>
      <point x="181" y="564"/>
      <point x="207" y="656"/>
      <point x="277" y="656" type="curve" smooth="yes"/>
      <point x="304" y="656"/>
      <point x="349" y="642"/>
      <point x="393" y="605" type="curve"/>
      <point x="415" y="630"/>
      <point x="427" y="659"/>
      <point x="427" y="690" type="curve"/>
      <point x="396" y="703"/>
      <point x="349" y="718"/>
      <point x="302" y="718" type="curve"/>
      <point x="176" y="695"/>
      <point x="102" y="578"/>
      <point x="102" y="455" type="curve" smooth="yes"/>
      <point x="102" y="358" type="line" smooth="yes"/>
      <point x="102" y="248"/>
      <point x="100" y="156"/>
      <point x="96" y="118" type="curve" smooth="yes"/>
      <point x="91" y="75"/>
      <point x="77" y="44"/>
      <point x="29" y="27" type="curve"/>
      <point x="25" y="-3" type="line"/>
      <point x="75" y="0"/>
      <point x="107" y="0"/>
      <point x="140" y="0" type="curve" smooth="yes"/>
      <point x="173" y="0"/>
      <point x="215" y="0"/>
      <point x="267" y="-3" type="curve"/>
    </contour>
  </outline>
</glyph>
<glyph name="florin" format="2">
  <advance width="344"/>
  <unicode hex="0192"/>
  <note>
florin
</note>
  <outline>
    <contour>
      <point x="181" y="358" type="line"/>
      <point x="316" y="358" type="line"/>
      <point x="323" y="373"/>
      <point x="326" y="395"/>
      <point x="326" y="416" type="curve" smooth="yes"/>
      <point x="326" y="417"/>
      <point x="326" y="421"/>
      <point x="325" y="424" type="curve"/>
      <point x="181" y="414" type="line"/>
      <point x="181" y="472" type="line" smooth="yes"/>
      <point x="181" y="564"/>
      <point x="207" y="656"/>
      <point x="277" y="656" type="curve" smooth="yes"/>
      <point x="304" y="656"/>
      <point x="349" y="642"/>
      <point x="393" y="605" type="curve"/>
      <point x="415" y="630"/>
      <point x="427" y="659"/>
      <point x="427" y="690" type="curve"/>
      <point x="396" y="703"/>
      <point x="349" y="718"/>
      <point x="302" y="718" type="curve"/>
      <point x="176" y="695"/>
      <point x="102" y="578"/>
      <point x="102" y="455" type="curve" smooth="yes"/>
      <point x="102" y="408" type="line"/>
      <point x="35" y="403" type="line"/>
      <point x="33" y="397"/>
      <point x="32" y="387"/>
      <point x="32" y="376" type="curve" smooth="yes"/>
      <point x="32" y="364"/>
      <point x="33" y="361"/>
      <point x="34" y="358" type="curve"/>
      <point x="102" y="358" type="line"/>
      <point x="102" y="-10" type="line" smooth="yes"/>
      <point x="102" y="-102"/>
      <point x="79" y="-188"/>
      <point x="4" y="-188" type="curve" smooth="yes"/>
      <point x="-18" y="-188"/>
      <point x="-40" y="-181"/>
      <point x="-85" y="-158" type="curve"/>
      <point x="-107" y="-183"/>
      <point x="-118" y="-214"/>
      <point x="-118" y="-238" type="curve"/>
      <point x="-87" y="-251"/>
      <point x="-46" y="-256"/>
      <point x="-19" y="-256" type="curve"/>
      <point x="107" y="-233"/>
      <point x="181" y="-116"/>
      <point x="181" y="7" type="curve" smooth="yes"/>
    </contour>
  </outline>
</glyph>
<glyph name="circumflex" format="2">
  <advance width="445"/>
  <unicode hex="02C6"/>
  <note>
circumflex
</note>
  <outline>
    <contour>
      <point x="248" y="641" type="curve" smooth="yes"/>
      <point x="246" y="644"/>
      <point x="242" y="645"/>
      <point x="237" y="645" type="curve" smooth="yes"/>
      <point x="227" y="645"/>
      <point x="215" y="641"/>
      <point x="211" y="636" type="curve" smooth="yes"/>
      <point x="167" y="586"/>
      <point x="118" y="539"/>
      <point x="68" y="494" type="curve"/>
      <point x="68" y="483"/>
      <point x="76" y="471"/>
      <point x="86" y="467" type="curve"/>
      <point x="129" y="500"/>
      <point x="175" y="532"/>
      <point x="221" y="560" type="curve"/>
      <point x="263" y="535"/>
      <point x="307" y="502"/>
      <point x="348" y="469" type="curve"/>
      <point x="364" y="469"/>
      <point x="376" y="481"/>
      <point x="380" y="491" type="curve"/>
      <point x="331" y="539"/>
      <point x="287" y="589"/>
    </contour>
  </outline>
</glyph>
<glyph name="caron" format="2">
  <advance width="414"/>
  <unicode hex="02C7"/>
  <note>
caron
</note>
  <outline>
    <contour>
      <point x="193" y="450" type="curve" smooth="yes"/>
      <point x="195" y="447"/>
      <point x="198" y="446"/>
      <point x="203" y="446" type="curve" smooth="yes"/>
      <point x="212" y="446"/>
      <point x="223" y="450"/>
      <point x="227" y="454" type="curve" smooth="yes"/>
      <point x="268" y="501"/>
      <point x="314" y="545"/>
      <point x="360" y="587" type="curve"/>
      <point x="360" y="597"/>
      <point x="353" y="608"/>
      <point x="344" y="612" type="curve"/>
      <point x="304" y="581"/>
      <point x="261" y="551"/>
      <point x="218" y="525" type="curve"/>
      <point x="179" y="548"/>
      <point x="138" y="579"/>
      <point x="100" y="610" type="curve"/>
      <point x="85" y="610"/>
      <point x="74" y="599"/>
      <point x="70" y="589" type="curve"/>
      <point x="115" y="545"/>
      <point x="156" y="498"/>
    </contour>
  </outline>
</glyph>
<glyph name="uni02D0" format="2">
  <advance width="238"/>
  <unicode hex="02D0"/>
  <note>
uni02D0
</note>
  <outline>
    <contour>
      <point x="52" y="6" type="curve"/>
      <point x="52" y="3"/>
      <point x="54" y="1"/>
      <point x="56" y="0" type="curve"/>
      <point x="184" y="0" type="line"/>
      <point x="186" y="1"/>
      <point x="188" y="3"/>
      <point x="188" y="7" type="curve"/>
      <point x="177" y="27"/>
      <point x="142" y="103"/>
      <point x="131" y="133" type="curve" smooth="yes"/>
      <point x="125" y="150" type="line"/>
      <point x="120" y="147"/>
      <point x="115" y="145"/>
      <point x="111" y="144" type="curve"/>
      <point x="94" y="96"/>
      <point x="75" y="52"/>
    </contour>
    <contour>
      <point x="186" y="415" type="curve"/>
      <point x="186" y="418"/>
      <point x="184" y="420"/>
      <point x="182" y="421" type="curve"/>
      <point x="54" y="421" type="line"/>
      <point x="52" y="420"/>
      <point x="50" y="418"/>
      <point x="50" y="414" type="curve"/>
      <point x="61" y="394"/>
      <point x="96" y="318"/>
      <point x="107" y="288" type="curve" smooth="yes"/>
      <point x="113" y="271" type="line"/>
      <point x="118" y="274"/>
      <point x="123" y="276"/>
      <point x="127" y="277" type="curve"/>
      <point x="144" y="325"/>
      <point x="163" y="369"/>
    </contour>
  </outline>
</glyph>
<glyph name="breve" format="2">
  <advance width="476"/>
  <unicode hex="02D8"/>
  <note>
breve
</note>
  <outline>
    <contour>
      <point x="368" y="594" type="curve"/>
      <point x="362" y="606"/>
      <point x="355" y="614"/>
      <point x="342" y="620" type="curve"/>
      <point x="307" y="574"/>
      <point x="280" y="549"/>
      <point x="231" y="549" type="curve" smooth="yes"/>
      <point x="182" y="549"/>
      <point x="155" y="574"/>
      <point x="120" y="620" type="curve"/>
      <point x="107" y="614"/>
      <point x="100" y="606"/>
      <point x="94" y="594" type="curve"/>
      <point x="109" y="537"/>
      <point x="162" y="485"/>
      <point x="231" y="485" type="curve" smooth="yes"/>
      <point x="300" y="485"/>
      <point x="353" y="537"/>
    </contour>
  </outline>
</glyph>
<glyph name="dotaccent" format="2">
  <advance width="237"/>
  <unicode hex="02D9"/>
  <note>
dotaccent
</note>
  <outline>
    <contour>
      <point x="173" y="810" type="curve"/>
      <point x="154" y="832"/>
      <point x="121" y="849"/>
      <point x="93" y="853" type="curve"/>
      <point x="69" y="832"/>
      <point x="52" y="801"/>
      <point x="46" y="768" type="curve"/>
      <point x="62" y="748"/>
      <point x="94" y="732"/>
      <point x="127" y="726" type="curve"/>
      <point x="147" y="743"/>
      <point x="168" y="779"/>
    </contour>
  </outline>
</glyph>
<glyph name="ring" format="2">
  <advance width="420"/>
  <unicode hex="02DA"/>
  <note>
ring
</note>
  <outline>
    <contour>
      <point x="124" y="510" type="curve" smooth="yes"/>
      <point x="124" y="463"/>
      <point x="156" y="439"/>
      <point x="189" y="439" type="curve" smooth="yes"/>
      <point x="227" y="439"/>
      <point x="284" y="472"/>
      <point x="284" y="536" type="curve" smooth="yes"/>
      <point x="284" y="577"/>
      <point x="261" y="610"/>
      <point x="221" y="610" type="curve" smooth="yes"/>
      <point x="177" y="610"/>
      <point x="124" y="570"/>
    </contour>
    <contour>
      <point x="205" y="569" type="curve" smooth="yes"/>
      <point x="227" y="569"/>
      <point x="241" y="553"/>
      <point x="241" y="530" type="curve" smooth="yes"/>
      <point x="241" y="506"/>
      <point x="227" y="480"/>
      <point x="203" y="480" type="curve" smooth="yes"/>
      <point x="181" y="480"/>
      <point x="167" y="500"/>
      <point x="167" y="523" type="curve" smooth="yes"/>
      <point x="167" y="546"/>
      <point x="180" y="569"/>
    </contour>
  </outline>
</glyph>
<glyph name="tilde" format="2">
  <advance width="445"/>
  <unicode hex="02DC"/>
  <note>
tilde
</note>
  <outline>
    <contour>
      <point x="388" y="568" type="curve"/>
      <point x="388" y="578"/>
      <point x="375" y="601"/>
      <point x="366" y="609" type="curve"/>
      <point x="346" y="578"/>
      <point x="323" y="567"/>
      <point x="294" y="567" type="curve" smooth="yes"/>
      <point x="246" y="567"/>
      <point x="209" y="598"/>
      <point x="161" y="598" type="curve" smooth="yes"/>
      <point x="117" y="598"/>
      <point x="84" y="572"/>
      <point x="56" y="529" type="curve"/>
      <point x="57" y="517"/>
      <point x="61" y="502"/>
      <point x="69" y="493" type="curve"/>
      <point x="98" y="524"/>
      <point x="122" y="536"/>
      <point x="146" y="536" type="curve" smooth="yes"/>
      <point x="187" y="536"/>
      <point x="251" y="502"/>
      <point x="295" y="502" type="curve" smooth="yes"/>
      <point x="334" y="502"/>
      <point x="360" y="528"/>
    </contour>
  </outline>
</glyph>
<glyph name="uni0374" format="2">
  <advance width="192"/>
  <unicode hex="0374"/>
  <note>
uni0374
</note>
  <outline>
    <contour>
      <point x="50" y="688" type="curve"/>
      <point x="61" y="613"/>
      <point x="66" y="536"/>
      <point x="66" y="448" type="curve"/>
      <point x="75" y="448"/>
      <point x="107" y="454"/>
      <point x="116" y="461" type="curve"/>
      <point x="121" y="549"/>
      <point x="128" y="626"/>
      <point x="142" y="701" type="curve"/>
      <point x="114" y="701"/>
      <point x="73" y="696"/>
    </contour>
  </outline>
</glyph>
<glyph name="uni0375" format="2">
  <advance width="179"/>
  <unicode hex="0375"/>
  <note>
uni0375
</note>
  <outline>
    <contour>
      <point x="132" y="-82" type="curve"/>
      <point x="122" y="-12"/>
      <point x="117" y="60"/>
      <point x="117" y="142" type="curve"/>
      <point x="109" y="142"/>
      <point x="79" y="136"/>
      <point x="71" y="129" type="curve"/>
      <point x="66" y="47"/>
      <point x="60" y="-24"/>
      <point x="47" y="-94" type="curve"/>
      <point x="73" y="-94"/>
      <point x="111" y="-89"/>
    </contour>
  </outline>
</glyph>
<glyph name="anoteleia" format="2">
  <advance width="237"/>
  <unicode hex="0387"/>
  <note>
anoteleia
</note>
  <outline>
    <contour>
      <point x="182" y="375" type="curve"/>
      <point x="164" y="396"/>
      <point x="129" y="415"/>
      <point x="103" y="419" type="curve"/>
      <point x="81" y="399"/>
      <point x="61" y="367"/>
      <point x="56" y="336" type="curve"/>
      <point x="71" y="317"/>
      <point x="104" y="299"/>
      <point x="135" y="293" type="curve"/>
      <point x="154" y="309"/>
      <point x="177" y="346"/>
    </contour>
  </outline>
</glyph>
<glyph name="endash" format="2">
  <advance width="508"/>
  <unicode hex="2013"/>
  <note>
endash
</note>
  <outline>
    <contour>
      <point x="455" y="186" type="curve"/>
      <point x="462" y="200"/>
      <point x="463" y="228"/>
      <point x="461" y="247" type="curve"/>
      <point x="395" y="243"/>
      <point x="115" y="242"/>
      <point x="51" y="243" type="curve"/>
      <point x="47" y="223"/>
      <point x="46" y="196"/>
      <point x="47" y="178" type="curve"/>
      <point x="112" y="182"/>
      <point x="392" y="185"/>
    </contour>
  </outline>
</glyph>
<glyph name="emdash" format="2">
  <advance width="999"/>
  <unicode hex="2014"/>
  <note>
emdash
</note>
  <outline>
    <contour>
      <point x="945" y="203" type="curve"/>
      <point x="950" y="220"/>
      <point x="951" y="248"/>
      <point x="949" y="268" type="curve"/>
      <point x="878" y="263"/>
      <point x="123" y="254"/>
      <point x="55" y="258" type="curve"/>
      <point x="51" y="237"/>
      <point x="49" y="208"/>
      <point x="51" y="188" type="curve"/>
      <point x="120" y="193"/>
      <point x="876" y="202"/>
    </contour>
  </outline>
</glyph>
<glyph name="quoteleft" format="2">
  <advance width="212"/>
  <unicode hex="2018"/>
  <note>
quoteleft
</note>
  <outline>
    <contour>
      <point x="60" y="440" type="curve"/>
      <point x="81" y="440"/>
      <point x="136" y="461"/>
      <point x="159" y="478" type="curve"/>
      <point x="140" y="503"/>
      <point x="132" y="533"/>
      <point x="132" y="562" type="curve" smooth="yes"/>
      <point x="132" y="610"/>
      <point x="154" y="659"/>
      <point x="188" y="689" type="curve"/>
      <point x="184" y="699"/>
      <point x="175" y="708"/>
      <point x="163" y="713" type="curve"/>
      <point x="107" y="687"/>
      <point x="53" y="599"/>
      <point x="53" y="501" type="curve" smooth="yes"/>
      <point x="53" y="482"/>
      <point x="55" y="457"/>
    </contour>
  </outline>
</glyph>
<glyph name="quoteright" format="2">
  <advance width="212"/>
  <unicode hex="2019"/>
  <note>
quoteright
</note>
  <outline>
    <contour>
      <point x="154" y="707" type="curve"/>
      <point x="133" y="707"/>
      <point x="78" y="686"/>
      <point x="55" y="669" type="curve"/>
      <point x="74" y="644"/>
      <point x="82" y="614"/>
      <point x="82" y="585" type="curve" smooth="yes"/>
      <point x="82" y="537"/>
      <point x="60" y="488"/>
      <point x="26" y="458" type="curve"/>
      <point x="30" y="448"/>
      <point x="39" y="439"/>
      <point x="51" y="434" type="curve"/>
      <point x="107" y="460"/>
      <point x="161" y="548"/>
      <point x="161" y="646" type="curve" smooth="yes"/>
      <point x="161" y="665"/>
      <point x="159" y="690"/>
    </contour>
  </outline>
</glyph>
<glyph name="quotedblleft" format="2">
  <advance width="346"/>
  <unicode hex="201C"/>
  <note>
quotedblleft
</note>
  <outline>
    <contour>
      <point x="56" y="410" type="curve"/>
      <point x="75" y="410"/>
      <point x="127" y="429"/>
      <point x="148" y="445" type="curve"/>
      <point x="130" y="468"/>
      <point x="123" y="496"/>
      <point x="123" y="523" type="curve" smooth="yes"/>
      <point x="123" y="568"/>
      <point x="143" y="614"/>
      <point x="175" y="641" type="curve"/>
      <point x="171" y="651"/>
      <point x="163" y="659"/>
      <point x="152" y="664" type="curve"/>
      <point x="100" y="640"/>
      <point x="49" y="558"/>
      <point x="49" y="466" type="curve" smooth="yes"/>
      <point x="49" y="449"/>
      <point x="51" y="425"/>
    </contour>
    <contour>
      <point x="203" y="410" type="curve"/>
      <point x="223" y="410"/>
      <point x="274" y="429"/>
      <point x="295" y="445" type="curve"/>
      <point x="277" y="468"/>
      <point x="270" y="496"/>
      <point x="270" y="523" type="curve" smooth="yes"/>
      <point x="270" y="568"/>
      <point x="290" y="614"/>
      <point x="322" y="641" type="curve"/>
      <point x="318" y="651"/>
      <point x="310" y="659"/>
      <point x="299" y="664" type="curve"/>
      <point x="247" y="640"/>
      <point x="196" y="558"/>
      <point x="196" y="466" type="curve" smooth="yes"/>
      <point x="196" y="449"/>
      <point x="198" y="425"/>
    </contour>
  </outline>
</glyph>
<glyph name="quotedblright" format="2">
  <advance width="346"/>
  <unicode hex="201D"/>
  <note>
quotedblright
</note>
  <outline>
    <contour>
      <point x="143" y="658" type="curve"/>
      <point x="124" y="658"/>
      <point x="73" y="639"/>
      <point x="51" y="623" type="curve"/>
      <point x="69" y="600"/>
      <point x="76" y="572"/>
      <point x="76" y="545" type="curve" smooth="yes"/>
      <point x="76" y="500"/>
      <point x="56" y="454"/>
      <point x="24" y="426" type="curve"/>
      <point x="28" y="417"/>
      <point x="36" y="409"/>
      <point x="47" y="404" type="curve"/>
      <point x="100" y="428"/>
      <point x="150" y="510"/>
      <point x="150" y="601" type="curve" smooth="yes"/>
      <point x="150" y="619"/>
      <point x="148" y="642"/>
    </contour>
    <contour>
      <point x="292" y="658" type="curve"/>
      <point x="273" y="658"/>
      <point x="222" y="639"/>
      <point x="200" y="623" type="curve"/>
      <point x="218" y="600"/>
      <point x="225" y="572"/>
      <point x="225" y="545" type="curve" smooth="yes"/>
      <point x="225" y="500"/>
      <point x="205" y="454"/>
      <point x="173" y="426" type="curve"/>
      <point x="177" y="417"/>
      <point x="185" y="409"/>
      <point x="196" y="404" type="curve"/>
      <point x="249" y="428"/>
      <point x="299" y="510"/>
      <point x="299" y="601" type="curve" smooth="yes"/>
      <point x="299" y="619"/>
      <point x="297" y="642"/>
    </contour>
  </outline>
</glyph>
<glyph name="dong" format="2">
  <advance width="491"/>
  <unicode hex="20AB"/>
  <note>
dong
</note>
  <outline>
    <contour>
      <point x="192" y="538" type="curve"/>
      <point x="183" y="527"/>
      <point x="179" y="505"/>
      <point x="179" y="492" type="curve"/>
      <point x="230" y="495"/>
      <point x="286" y="496"/>
      <point x="338" y="496" type="curve"/>
      <point x="338" y="411" type="line"/>
      <point x="318" y="415"/>
      <point x="276" y="426"/>
      <point x="270" y="426" type="curve" smooth="yes"/>
      <point x="147" y="426"/>
      <point x="35" y="343"/>
      <point x="35" y="186" type="curve" smooth="yes"/>
      <point x="35" y="80"/>
      <point x="118" y="10"/>
      <point x="198" y="10" type="curve" smooth="yes"/>
      <point x="205" y="10"/>
      <point x="316" y="51"/>
      <point x="338" y="62" type="curve"/>
      <point x="339" y="51"/>
      <point x="344" y="30"/>
      <point x="352" y="15" type="curve"/>
      <point x="390" y="29"/>
      <point x="445" y="38"/>
      <point x="481" y="40" type="curve"/>
      <point x="486" y="73" type="line"/>
      <point x="479" y="72"/>
      <point x="471" y="72"/>
      <point x="470" y="72" type="curve" smooth="yes"/>
      <point x="424" y="72"/>
      <point x="417" y="85"/>
      <point x="415" y="126" type="curve" smooth="yes"/>
      <point x="413" y="182"/>
      <point x="412" y="257"/>
      <point x="412" y="328" type="curve" smooth="yes"/>
      <point x="412" y="401" type="line" smooth="yes"/>
      <point x="412" y="433"/>
      <point x="412" y="465"/>
      <point x="413" y="496" type="curve"/>
      <point x="433" y="496"/>
      <point x="450" y="495"/>
      <point x="465" y="494" type="curve"/>
      <point x="472" y="507"/>
      <point x="477" y="534"/>
      <point x="477" y="543" type="curve"/>
      <point x="461" y="542"/>
      <point x="439" y="541"/>
      <point x="414" y="540" type="curve"/>
      <point x="416" y="607"/>
      <point x="420" y="665"/>
      <point x="427" y="695" type="curve"/>
      <point x="388" y="695"/>
      <point x="303" y="673"/>
      <point x="265" y="658" type="curve"/>
      <point x="262" y="628" type="line"/>
      <point x="268" y="629"/>
      <point x="275" y="629"/>
      <point x="276" y="629" type="curve" smooth="yes"/>
      <point x="322" y="629"/>
      <point x="335" y="598"/>
      <point x="337" y="538" type="curve"/>
      <point x="281" y="537"/>
      <point x="225" y="537"/>
    </contour>
    <contour>
      <point x="232" y="77" type="curve" smooth="yes"/>
      <point x="183" y="77"/>
      <point x="127" y="115"/>
      <point x="127" y="217" type="curve" smooth="yes"/>
      <point x="127" y="303"/>
      <point x="166" y="376"/>
      <point x="244" y="376" type="curve" smooth="yes"/>
      <point x="274" y="376"/>
      <point x="316" y="365"/>
      <point x="338" y="360" type="curve"/>
      <point x="338" y="111" type="line"/>
      <point x="313" y="96"/>
      <point x="270" y="77"/>
    </contour>
    <contour>
      <point x="89" y="-54" type="curve"/>
      <point x="459" y="-54" type="line"/>
      <point x="459" y="-70"/>
      <point x="455" y="-88"/>
      <point x="446" y="-104" type="curve"/>
      <point x="76" y="-104" type="line"/>
      <point x="76" y="-88"/>
      <point x="80" y="-70"/>
    </contour>
  </outline>
</glyph>
<glyph name="uni20B9" format="2">
  <advance width="438"/>
  <unicode hex="20B9"/>
  <note>
uni20B9
</note>
  <outline>
    <contour>
      <point x="403" y="622" type="curve"/>
      <point x="52" y="622" type="line"/>
      <point x="40" y="606"/>
      <point x="35" y="589"/>
      <point x="35" y="573" type="curve"/>
      <point x="173" y="573" type="line" smooth="yes"/>
      <point x="225" y="573"/>
      <point x="254" y="526"/>
      <point x="264" y="474" type="curve"/>
      <point x="52" y="474" type="line"/>
      <point x="40" y="458"/>
      <point x="35" y="441"/>
      <point x="35" y="425" type="curve"/>
      <point x="267" y="425" type="line"/>
      <point x="261" y="344"/>
      <point x="199" y="311"/>
      <point x="129" y="311" type="curve" smooth="yes"/>
      <point x="98" y="311"/>
      <point x="81" y="313"/>
      <point x="65" y="319" type="curve"/>
      <point x="56" y="315"/>
      <point x="48" y="307"/>
      <point x="44" y="298" type="curve"/>
      <point x="44" y="288"/>
      <point x="60" y="249"/>
      <point x="69" y="230" type="curve" smooth="yes"/>
      <point x="98" y="166"/>
      <point x="172" y="38"/>
      <point x="255" y="-22" type="curve"/>
      <point x="283" y="-11"/>
      <point x="315" y="-8"/>
      <point x="359" y="-8" type="curve"/>
      <point x="363" y="28" type="line"/>
      <point x="255" y="45"/>
      <point x="178" y="175"/>
      <point x="138" y="267" type="curve"/>
      <point x="205" y="271"/>
      <point x="320" y="318"/>
      <point x="336" y="425" type="curve"/>
      <point x="386" y="425" type="line"/>
      <point x="398" y="441"/>
      <point x="403" y="458"/>
      <point x="403" y="474" type="curve"/>
      <point x="336" y="474" type="line"/>
      <point x="332" y="506"/>
      <point x="320" y="544"/>
      <point x="293" y="573" type="curve"/>
      <point x="386" y="573" type="line"/>
      <point x="398" y="589"/>
      <point x="403" y="606"/>
    </contour>
  </outline>
</glyph>
<glyph name="minus" format="2">
  <advance width="533"/>
  <unicode hex="2212"/>
  <note>
minus
</note>
  <outline>
    <contour>
      <point x="472" y="194" type="curve"/>
      <point x="483" y="209"/>
      <point x="490" y="236"/>
      <point x="490" y="256" type="curve"/>
      <point x="425" y="250"/>
      <point x="125" y="248"/>
      <point x="61" y="251" type="curve"/>
      <point x="53" y="232"/>
      <point x="47" y="204"/>
      <point x="47" y="185" type="curve"/>
      <point x="112" y="193"/>
      <point x="408" y="196"/>
    </contour>
  </outline>
</glyph>
